<?xml version="1.0" standalone="no"?>
<!DOCTYPE svg PUBLIC "-//W3C//DTD SVG 1.1//EN" "http://www.w3.org/Graphics/SVG/1.1/DTD/svg11.dtd" >
<svg xmlns="http://www.w3.org/2000/svg">
<metadata>
Created by FontPrep 20130207 at Thu Nov 20 17:37:43 2014
 By Pepel
Copyright 2014 Adobe Systems Incorporated. All rights reserved.
</metadata>
<defs>
<font id="17913c201afda69879d5a8066710be80" horiz-adv-x='1024' >
  <font-face 
    font-family="MilioHeavyItalic"
    font-weight="900"
    font-style="italic"
    font-stretch="normal"
    units-per-em="2048"
    panose-1="0 0 0 0 0 0 0 0 0 0"
    ascent="1638"
    descent="-410"
    x-height="979"
    cap-height="1262"
    bbox="-385 -700 2447 2249"
    underline-thickness="102"
    underline-position="-102"
    slope="-6"
    unicode-range="U+0020-FB06"
  />
<missing-glyph horiz-adv-x="1003" 
d="M211 84h600l127 1268h-602zM127 2l143 1432h752l-143 -1432h-752z" />
    <glyph glyph-name="f_f" unicode="ff" 
d="M616 1343q117 0 197 -61q-27 -119 -94 -244h-68l-6 217q-16 8 -31 9q-24 0 -36 -52t-27 -198l-6 -66h229l2 23q23 217 142 325t305 109q186 0 290 -62q-31 -129 -94 -243h-100l-25 217q-25 8 -51 8q-75 0 -101 -67t-44 -244l-6 -66h110l-12 -86h-107l-71 -737
q-23 -217 -120 -323q-98 -106 -238 -107q-140 0 -222 61q31 129 94 244h66l-6 -217q10 -8 26 -8q31 1 47 71t31 240l76 776h-229l-80 -819q-23 -217 -142 -323t-305 -107q-186 0 -291 61q31 129 95 244h100l25 -217q25 -8 65 -8t59 15q37 28 56 154q6 46 16 142l84 858h-96
l12 86h92l2 23q23 186 126 279t261 93z" />
    <glyph glyph-name="fi" unicode="fi" horiz-adv-x="1136" 
d="M10 -387q-186 0 -291 61q31 129 95 244h100l25 -217q25 -8 65 -8t59 15q37 28 56 154q6 46 16 142l82 858h-94l12 86h90l4 27q23 217 161 323t356 106t333 -61q-27 -119 -94 -243h-100l-25 217q-41 8 -92 8q-113 0 -150 -63t-67 -248l-6 -66h549l-80 -778q-6 -53 33 -47
l59 10l20 -72q-170 -68 -309 -92q-59 15 -94 73t-27 138l74 682h-233l-80 -819q-23 -217 -142 -323t-305 -107z" />
    <glyph glyph-name="fl" unicode="fl" horiz-adv-x="1128" 
d="M788 1325q-127 0 -173 -68t-64 -243l-6 -66h110l-12 -86h-106l-80 -819q-23 -217 -142 -323t-305 -107q-186 0 -291 61q31 129 95 244h100l25 -217q25 -8 65 -8t59 15q37 28 56 154q6 46 16 142l84 858h-96l12 86h92l2 23q23 219 166 327t377 107q234 0 358 -62
l-116 -1173q-6 -53 33 -47l59 10l20 -72q-170 -68 -309 -92q-59 15 -94 73t-27 138q84 836 117 1145h-25z" />
    <glyph glyph-name="f_f_i" unicode="ffi" horiz-adv-x="1683" 
d="M1315 1325q-113 0 -150 -63t-67 -248l-6 -66h548l-79 -778q-6 -53 32 -47l60 10l20 -72q-170 -68 -309 -92q-59 15 -94 73t-27 138l74 682h-234l-71 -737q-23 -217 -120 -323q-98 -106 -238 -107q-140 0 -222 61q31 129 94 244h66l-6 -217q10 -8 26 -8q31 1 47 71t31 240
l74 776h-227l-80 -819q-23 -217 -142 -323t-305 -107q-186 0 -291 61q31 129 95 244h100l25 -217q25 -8 65 -8t59 15q37 28 56 154q6 46 16 142l82 858h-94l12 86h90l4 27q23 184 125 276t262 92q117 0 197 -61q-27 -119 -94 -244h-68l-6 217q-16 8 -31 9q-24 0 -36 -52
t-27 -198l-6 -66h227l4 27q23 217 161 323t355 106t334 -61q-27 -119 -94 -243h-100l-25 217q-41 8 -92 8z" />
    <glyph glyph-name="f_f_l" unicode="ffl" horiz-adv-x="1675" 
d="M1335 1325q-127 0 -173 -68t-64 -243l-6 -66h110l-12 -86h-107l-71 -737q-23 -217 -120 -323q-98 -106 -238 -107q-140 0 -222 61q31 129 94 244h66l-6 -217q10 -8 26 -8q31 1 47 71t31 240l74 776h-227l-80 -819q-23 -217 -142 -323t-305 -107q-186 0 -291 61
q31 129 95 244h100l25 -217q25 -8 65 -8t59 15q37 28 56 154q6 46 16 142l82 858h-94l12 86h90l4 27q23 184 125 276t262 92q117 0 197 -61q-27 -119 -94 -244h-68l-6 217q-16 8 -31 9q-24 0 -36 -52t-27 -198l-6 -66h227l4 27q23 217 166 323t377 106t358 -61l-116 -1173
q-6 -53 32 -47l60 10l20 -72q-170 -68 -309 -92q-59 15 -94 73t-27 138q84 836 117 1145h-25z" />
    <glyph glyph-name="f_h" unicode="fh" horiz-adv-x="1673" 
d="M1442 979q114 0 146 -92t11 -307l-40 -410q-6 -53 32 -47l62 10l18 -72l-317 -92q-66 0 -97 39t-18 162l37 352q25 244 -31 244q-23 0 -53 -23t-48 -47q-19 -24 -67 -78l-61 -618l-322 -27l135 1350q-25 2 -61 2q-115 0 -158 -71t-59 -240l-6 -66h110l-12 -86h-106
l-80 -819q-23 -217 -142 -323t-305 -107q-186 0 -291 61q31 129 95 244h100l25 -217q25 -8 65 -8t59 15q37 28 56 154q6 46 16 142l82 858h-94l12 86h90l4 27q45 427 543 429q244 0 379 -61l-59 -591q197 227 350 227z" />
    <glyph glyph-name="f_b" unicode="fb" horiz-adv-x="1609" 
d="M1190 854q-51 0 -105 -63l-71 -744h28q92 0 151 117q58 117 79 328q37 362 -82 362zM10 -387q-186 0 -291 61q31 129 95 244h100l25 -217q25 -8 65 -8t59 15q37 28 56 154q6 46 16 142l82 858h-94l12 86h90l4 27q45 427 538 429q239 0 374 -61l-45 -448q109 84 213 84
q151 0 239 -128t64 -366q-24 -239 -187 -377t-369 -138t-366 46l131 1307l-53 2q-115 0 -158 -71t-59 -240l-6 -66h110l-12 -86h-106l-80 -819q-23 -217 -142 -323t-305 -107z" />
    <glyph glyph-name="f_j" unicode="fj" horiz-adv-x="1095" 
d="M768 1325q-117 1 -159 -65t-60 -236l-8 -76h553l-93 -876q-20 -195 -141 -313t-344 -142l-16 74q104 87 144 220q15 54 25 87q9 34 18 102t16 115t18 197l49 450h-238l-75 -819q-23 -217 -142 -323t-305 -107q-186 0 -291 61q31 129 95 244h100l25 -217q25 -8 65 -8
t59 15q37 28 56 154q6 46 16 142l82 858h-94l12 86h90l4 27q23 217 161 323t356 106t333 -61q-27 -119 -94 -243h-100l-25 217q-41 8 -92 8z" />
    <glyph glyph-name="f_k" unicode="fk" horiz-adv-x="1673" 
d="M772 1405q244 0 379 -62l-57 -559q158 195 348 195q100 0 170 -55t69 -148q-1 -141 -71 -224t-217 -138l141 -236q51 -74 117 -61l22 8l21 -66q-147 -68 -332 -90q-117 29 -160 135l-92 224l14 69l70 60q88 76 113 130q25 53 25 111t-17 84q-16 26 -39 27
q-68 0 -193 -143l-67 -666l-322 -27l135 1350q-25 2 -61 2q-115 0 -158 -71t-59 -240l-6 -66h110l-12 -86h-106l-80 -819q-23 -217 -142 -323t-305 -107q-186 0 -291 61q31 129 95 244h100l25 -217q25 -8 65 -8t59 15q37 28 56 154q6 46 16 142l84 858h-96l12 86h92l2 23
q46 434 543 434z" />
    <glyph glyph-name=".notdef" horiz-adv-x="1003" 
d="M211 84h600l127 1268h-602zM127 2l143 1432h752l-143 -1432h-752z" />
    <glyph glyph-name=".null" horiz-adv-x="0" 
 />
    <glyph glyph-name="nonmarkingreturn" horiz-adv-x="681" 
 />
    <glyph glyph-name="space" unicode=" " horiz-adv-x="391" 
 />
    <glyph glyph-name="exclam" unicode="!" horiz-adv-x="520" 
d="M139 118q0 74 38 110t97 36q58 0 98 -38t39 -110t-40 -109q-39 -38 -97 -38t-97 38q-38 38 -38 111zM227 356l-12 904l348 -3l-190 -901h-146z" />
    <glyph glyph-name="quotedbl" unicode="&#x22;" horiz-adv-x="784" 
d="M201 772l2 490h289q-29 -217 -160 -490h-131zM565 772l2 490h289q-25 -221 -160 -490h-131z" />
    <glyph glyph-name="numbersign" unicode="#" horiz-adv-x="1165" 
d="M582 731l-41 -188h174l41 188h-174zM127 543h192l41 188h-215l25 236h242l65 295h221l-65 -295h174l65 295h222l-66 -295h168l-22 -236h-197l-41 -188h217l-23 -238h-247l-66 -305h-221l66 305h-175l-65 -305h-221l65 305h-164z" />
    <glyph glyph-name="dollar" unicode="$" horiz-adv-x="1017" 
d="M512 57q66 10 94 48t37 114q8 76 -70 164zM524 1079q-10 -111 76 -211l64 340q-64 0 -100 -41t-40 -88zM639 1292q27 0 41 -2l33 174h63l-35 -180q193 -25 312 -106q-33 -145 -111 -273h-108l-31 283q-47 14 -76 16l-72 -389q31 -29 91 -78q118 -97 178 -168
q81 -97 69 -225q-18 -180 -154 -275t-343 -100l-29 -159h-64l29 161q-240 10 -356 97q29 180 92 280h115l39 -274q35 -20 127 -21l71 385q-24 25 -90 82q-203 177 -237 302q-16 60 -11 126q16 158 144 251t313 93z" />
    <glyph glyph-name="percent" unicode="%" horiz-adv-x="1531" 
d="M442 676q92 0 118 269t-63 269t-115 -269t60 -269zM1167 45q92 0 119 270q29 270 -63 271q-86 0 -114 -270t58 -271zM1160 -33q-142 0 -220 96t-62 253t112 253q96 97 240 97t222 -96t62 -255q-16 -158 -114 -253t-240 -95zM435 596q-142 0 -220 96q-79 96 -63 253
t113 253t239 96q78 0 139 -30q10 -4 105 -45t162 -41t124 34q58 34 119 81t78 59l96 -68l-870 -1327l-97 70l758 1155q-121 -84 -205 -84q-61 -2 -145 26q29 -82 20 -178q-14 -158 -112 -254t-241 -96z" />
    <glyph glyph-name="ampersand" unicode="&#x26;" horiz-adv-x="1150" 
d="M1112 510q0 -205 -143 -373t-367 -168t-370 89q-144 89 -144 243q0 153 101 261t280 140q-115 31 -174 103t-59 162q0 137 120 231q121 94 346 94q119 0 227 -28t150 -74q-12 -113 -69 -219h-129l-33 221q-37 16 -96 16q-88 0 -131 -66t-42 -165q1 -100 43 -168t105 -68
h41l-14 -84h-64q-94 0 -170 -104t-76 -226t52 -198t166 -74q150 2 254 152t104 315q0 72 -27 135h-114l20 119q88 10 156 -35h162l-11 -84h-121q27 -75 27 -147z" />
    <glyph glyph-name="quotesingle" unicode="'" horiz-adv-x="417" 
d="M201 772l2 490h289q-29 -217 -160 -490h-131z" />
    <glyph glyph-name="parenleft" unicode="(" horiz-adv-x="591" 
d="M524 -303l-53 -51q-201 188 -302 394t-73 495q51 520 568 921l43 -51q-241 -391 -287 -853t104 -855z" />
    <glyph glyph-name="parenright" unicode=")" horiz-adv-x="593" 
d="M55 -354l-43 51q226 391 274 856t-114 852l53 51q436 -397 385 -921q-32 -305 -195 -526q-81 -109 -164 -191t-196 -172z" />
    <glyph glyph-name="asterisk" unicode="*" horiz-adv-x="849" 
d="M594 1405q94 0 68 -84l-82 -256q123 166 288 156l23 -50q37 -90 -41 -114l-236 -66q166 -14 240 -190l-31 -45q-27 -35 -63 -44t-47 9l-148 186q51 -174 -53 -340h-51q-43 0 -62 24q-18 24 -6 64l78 252q-84 -151 -287 -151l-22 47q-18 39 -7 71t48 44l239 67
q-201 25 -245 178l30 54q23 41 59 49t56 -19l152 -182q-31 97 -15 201t66 139h49z" />
    <glyph glyph-name="plus" unicode="+" horiz-adv-x="821" 
d="M315 117l27 262h-244l23 223h246l26 285l219 -4l-26 -281h239l-22 -223h-240l-26 -260z" />
    <glyph glyph-name="comma" unicode="," horiz-adv-x="460" 
d="M246 311q70 0 114 -46t46 -130q-4 -147 -94 -268t-246 -160l-13 80q94 37 138 75t69 107q-78 -2 -125 41t-46 128t44 129t113 44z" />
    <glyph glyph-name="hyphen" unicode="-" horiz-adv-x="659" 
d="M125 344l27 262h483l-27 -262h-483z" />
    <glyph glyph-name="period" unicode="." horiz-adv-x="452" 
d="M246 311q70 0 114 -42t41 -127q-2 -85 -46 -129q-43 -44 -113 -44t-114 44t-42 129t46 127t114 42z" />
    <glyph glyph-name="slash" unicode="/" horiz-adv-x="1019" 
d="M-4 -387l860 1790h274l-864 -1790h-270z" />
    <glyph glyph-name="zero" unicode="0" horiz-adv-x="1157" 
d="M588 51q178 0 233 580q57 580 -116 579q-177 0 -233 -580t116 -579zM581 -31q-233 1 -359 183t-97 479t191 479t396 182t360 -182t96 -479t-192 -479t-395 -183z" />
    <glyph glyph-name="one" unicode="1" horiz-adv-x="737" 
d="M713 74l-15 -74h-594l17 74l92 18q33 8 39 55l88 854l-217 -43l14 78l512 242h45l-112 -1131q-6 -45 30 -53z" />
    <glyph glyph-name="two" unicode="2" horiz-adv-x="970" 
d="M569 1292q188 0 301 -105t95 -294q-15 -148 -126 -286q-111 -137 -454 -369l346 2q33 0 49 28l64 133h106q-16 -221 -76 -401h-823l25 119q141 121 224 202q204 199 267 371q37 98 51 219q4 61 4 128q-1 67 -36 119t-101 52q-29 0 -67 -14l-103 -285h-114
q-35 129 -19 279q131 102 387 102z" />
    <glyph glyph-name="three" unicode="3" horiz-adv-x="921" 
d="M471 1208q-47 0 -72 -18l-100 -279h-113q-39 123 -22 265q145 117 373 116q183 0 291 -85t94 -230q-8 -98 -89 -180t-221 -97q158 -24 235 -108t65 -213t-135 -221q-228 -172 -697 -189v86q258 23 366 110t121 221q12 134 -41 185t-182 64l8 88q111 10 162 78t61 207
q10 78 -10 139t-94 61z" />
    <glyph glyph-name="four" unicode="4" horiz-adv-x="915" 
d="M205 483l274 -4l49 498zM895 473l-25 -170h-79l-15 -156q-4 -37 31 -53l55 -20l-14 -74h-508l14 74l54 18q35 14 38 55l15 154h-420l16 102l566 859h264l-78 -789h86z" />
    <glyph glyph-name="five" unicode="5" horiz-adv-x="933" 
d="M388 -31q-234 0 -347 129q25 154 78 250h133l22 -276q34 -20 96 -20t112 54q50 55 72 126t32 159q35 330 -127 330q-94 0 -178 -86h-82l127 627h639l-64 -277l-545 33q-29 -145 -55 -277q98 61 231 62q212 0 314 -121q102 -120 83 -308t-163 -296t-378 -109z" />
    <glyph glyph-name="six" unicode="6" horiz-adv-x="1028" 
d="M607 694q-50 0 -144 -71v-9q-53 -561 82 -561q106 0 141 330q12 125 -8 218q-21 93 -71 93zM827 1198q-109 0 -207 -138t-141 -339q102 76 228 76q166 1 257 -97q92 -98 72 -290t-177 -316t-329 -125q-214 0 -328 168t-87 426q33 336 230 533q198 197 450 196
q66 0 126 -15t89 -32l28 -14q-10 -104 -47 -170h-67l-64 135q-10 2 -33 2z" />
    <glyph glyph-name="seven" unicode="7" horiz-adv-x="849" 
d="M954 1262l-4 -43l-436 -1219h-403l647 1040l-406 -36q-41 -4 -51 -25l-57 -117h-113q18 215 86 400h737z" />
    <glyph glyph-name="eight" unicode="8" horiz-adv-x="987" 
d="M693 1210q-87 0 -141 -36t-60 -101q-4 -39 30 -93t69 -91q36 -37 111 -111q14 16 49 49q82 80 108 149q42 125 -29 189q-50 45 -137 45zM432 51q90 0 157 46q67 45 71 97t-32 115t-74 105t-76 79l-72 72q-12 -14 -40 -45q-102 -113 -121 -161q-18 -47 -20 -72
q-20 -236 207 -236zM644 1292q182 0 280 -63t86 -185q-10 -92 -79 -166t-186 -143q111 -111 171 -205t51 -190q-17 -170 -145 -270t-346 -100t-309 82q-91 83 -77 220q6 61 51 128t91 110t124 104q-92 96 -139 174t-39 158q16 162 150 254t316 92z" />
    <glyph glyph-name="nine" unicode="9" horiz-adv-x="1032" 
d="M558 567q50 0 140 72l2 4v4q27 213 10 387t-89 174q-111 0 -142 -329q-11 -125 9 -219t70 -93zM336 66q106 0 207 137q100 137 141 336q-102 -74 -225 -74q-166 0 -257 96q-91 95 -73 289t175 318t331 124q211 0 327 -168t89 -426q-35 -338 -233 -534t-449 -195
q-66 1 -127 19t-90 37l-29 18q10 104 47 170h68l65 -145q10 -2 33 -2z" />
    <glyph glyph-name="colon" unicode=":" horiz-adv-x="493" 
d="M266 311q70 0 114 -42t43 -127t-46 -130t-115 -45t-114 44t-44 130q2 86 48 128q44 42 114 42zM330 950q70 0 114 -43t41 -127q-2 -84 -46 -129q-43 -45 -113 -45t-115 44t-43 130t47 128t115 42z" />
    <glyph glyph-name="semicolon" unicode=";" horiz-adv-x="499" 
d="M270 309q70 0 115 -46t45 -130q-4 -147 -94 -268t-246 -160l-12 80q94 37 138 75t69 107q-78 -2 -125 41t-46 128t44 129q42 44 112 44zM328 950q70 0 114 -43t41 -127q-2 -84 -46 -129q-43 -45 -113 -45t-115 44t-43 130t47 128t115 42z" />
    <glyph glyph-name="less" unicode="&#x3c;" horiz-adv-x="786" 
d="M90 375l16 168l685 411l-33 -315l-309 -178l274 -178l-31 -316z" />
    <glyph glyph-name="equal" unicode="=" horiz-adv-x="950" 
d="M106 117l27 260h764l-25 -260h-766zM147 532l27 259h764l-25 -259h-766z" />
    <glyph glyph-name="greater" unicode="&#x3e;" horiz-adv-x="786" 
d="M795 543l-19 -168l-682 -408l31 316l309 178l-272 178l31 315z" />
    <glyph glyph-name="question" unicode="?" horiz-adv-x="890" 
d="M380 254q58 0 94 -35t36 -105t-38 -108q-38 -37 -95 -37t-94 37t-36 108q1 72 38 106t95 34zM525 1292q202 0 318 -84t101 -237q-14 -157 -180 -263l-136 -88t-120 -115q-51 -71 -62 -167h-102q-4 224 82 360q37 56 76 106q96 122 106 238q6 63 -15 115q-21 51 -93 51
t-109 -26l-96 -273h-100q-25 86 -17 277q145 106 347 106z" />
    <glyph glyph-name="at" unicode="@" horiz-adv-x="1771" 
d="M920 395q35 0 114 162l43 191l-37 67q-43 0 -93 -99t-59 -191t-1 -111t33 -19zM791 96q-135 0 -201 90t-54 213t74 227q103 177 301 265q80 35 140 35l51 -78l55 61h293l-123 -536l-43 -158q117 4 243 129t146 332q20 208 -125 320q-144 112 -422 112t-504 -206
t-260 -531q-17 -198 80 -339q52 -75 154 -119t219 -44t225 35t154 73l16 -49q-188 -164 -426 -164q-326 0 -520 163t-168 444q25 244 184 434q159 189 388 287t483 98q303 0 473 -148t146 -387t-199 -391q-176 -152 -486 -151h-153l53 235q-73 -134 -154 -218
q-33 -34 -40 -34z" />
    <glyph glyph-name="A" unicode="A" horiz-adv-x="1071" 
d="M487 885l-188 -445h287zM647 160l-43 192h-342l-80 -192q-12 -35 -5 -48t36 -18l90 -20l-14 -74h-320l13 74l67 20q23 10 43 58l467 1110h207l244 -1090q14 -63 45 -78l57 -20l-14 -74h-625l12 74l111 20q61 15 51 66z" />
    <glyph glyph-name="B" unicode="B" horiz-adv-x="1153" 
d="M657 1174h-45l-45 -459h58q78 0 122 72t54 178q20 209 -144 209zM608 627h-51l-53 -539h69q90 0 149 72q58 72 70 190t-30 198q-43 79 -154 79zM721 1262q219 0 333 -67t97 -222q-10 -97 -75 -185t-195 -118q143 -33 205 -124t53 -206q-17 -162 -137 -251t-328 -89h-600
l14 74l53 18q35 14 39 55l96 967q6 43 -28 55l-60 19l17 74h516z" />
    <glyph glyph-name="C" unicode="C" horiz-adv-x="1167" 
d="M843 1292q284 0 425 -106q-33 -152 -107 -279h-104l-31 283q-70 18 -106 18q-168 0 -302 -176t-158 -427t71 -403t257 -151q23 0 76 12l144 267h129q-4 -186 -47 -307q-160 -53 -359 -54q-319 0 -483 166q-164 167 -132 485t237 495q206 177 490 177z" />
    <glyph glyph-name="D" unicode="D" horiz-adv-x="1280" 
d="M705 1174h-93l-108 -1086h92q127 0 228 159t124 388q24 229 -46 384t-197 155zM741 1262q285 0 435 -158t118 -468t-209 -473q-178 -163 -448 -163h-563l14 74l53 18q35 14 39 55l96 967q6 43 -28 55l-60 19l17 74h536z" />
    <glyph glyph-name="E" unicode="E" horiz-adv-x="1005" 
d="M733 674q35 0 51 31t17 34l39 84h108l-65 -383h-90l-25 86q-2 6 -4 16l-3 15q-1 4 -3 10t-5 8q-3 3 -9 7t-21 4h-170l-49 -498h137q68 0 94 51l117 195h109q20 -158 -33 -334h-854l14 74l53 18q35 14 39 55l96 967q6 43 -26 55l-60 19l15 74h837q12 -121 -47 -312h-110
l-51 174q-8 29 -26 39t-54 11h-144l-49 -500h172z" />
    <glyph glyph-name="F" unicode="F" horiz-adv-x="976" 
d="M762 554q0 34 -39 34h-170l-43 -441q-4 -37 31 -53l94 -20l-17 -74h-544l14 74l53 18q35 14 39 55l96 967q6 43 -26 55l-60 19l15 74h852q14 -119 -47 -332h-113l-47 194q-12 49 -80 50h-160l-49 -498h172q32 0 38 11q7 11 9 13t5 10t5 9q1 2 5 11t6 13l39 84h108
l-63 -383h-92l-25 86q-6 18 -6 24z" />
    <glyph glyph-name="G" unicode="G" horiz-adv-x="1226" 
d="M948 1206q-199 0 -331 -162q-131 -162 -157 -426t57 -414q83 -151 212 -151q37 0 57 6l33 322q2 47 -31 53l-83 19l16 73h534l-14 -73l-45 -19q-45 -16 -47 -53l-35 -346q-154 -66 -422 -66q-306 1 -456 185t-121 475t223 477q195 186 508 186q250 0 411 -102
q-32 -154 -106 -283h-104l-31 287q-61 12 -68 12z" />
    <glyph glyph-name="H" unicode="H" horiz-adv-x="1323" 
d="M276 1114q6 43 -28 55l-60 19l17 74h508l-15 -74l-51 -21q-37 -14 -41 -53l-41 -414h340l41 414q6 43 -26 55l-60 19l14 74h508l-14 -74l-51 -21q-37 -14 -41 -53l-96 -967q-4 -37 30 -53l58 -20l-17 -74h-508l17 74l53 18q33 14 37 55l45 465h-340l-45 -465
q-4 -37 31 -53l55 -20l-14 -74h-508l14 74l53 18q35 14 39 55z" />
    <glyph glyph-name="I" unicode="I" horiz-adv-x="653" 
d="M276 1114q6 43 -28 55l-60 19l17 74h508l-15 -74l-51 -21q-37 -14 -41 -53l-96 -967q-4 -37 31 -53l55 -20l-14 -74h-508l14 74l53 18q35 14 39 55z" />
    <glyph glyph-name="J" unicode="J" horiz-adv-x="624" 
d="M492 68q-18 -190 -146 -308t-362 -143l-13 82q88 55 115 90q53 70 70 225l110 1100q6 43 -28 55l-60 19l17 74h507l-14 -74l-51 -21q-37 -14 -41 -53z" />
    <glyph glyph-name="K" unicode="K" horiz-adv-x="1200" 
d="M276 1114q6 43 -28 55l-60 19l17 74h508l-15 -74l-51 -21q-37 -14 -41 -53l-43 -424l441 428q47 47 16 53l-94 17l14 74h363l-15 -74l-94 -23q-35 -10 -82 -59l-283 -275l289 -647q47 -104 133 -110l-14 -74h-434l-246 567l-6 -8l-41 -412q-4 -37 31 -53l55 -20l-14 -74
h-508l14 74l53 18q35 14 39 55z" />
    <glyph glyph-name="L" unicode="L" horiz-adv-x="978" 
d="M635 88q61 0 94 51l143 240h109q10 -152 -61 -379h-846l14 74l53 18q35 14 39 55l96 967q6 43 -28 55l-60 19l17 74h508l-15 -74l-51 -21q-37 -14 -41 -53l-102 -1026h131z" />
    <glyph glyph-name="M" unicode="M" horiz-adv-x="1599" 
d="M584 0q-166 684 -244 1006l-84 -854q-4 -33 35 -46l119 -32l-15 -74h-329l12 74l57 26q35 16 39 52l100 1013q-20 12 -61 23l16 74h402l223 -920l422 920h387l-16 -74l-91 -29l-100 -1012q-2 -39 31 -53l57 -20l-16 -74h-508l16 74l54 18q35 14 36 55l76 762l-414 -909
h-204z" />
    <glyph glyph-name="N" unicode="N" horiz-adv-x="1282" 
d="M838 0l-486 1047l-88 -895q-4 -33 35 -46l119 -32l-15 -74h-329l12 74l57 26q35 16 39 52l101 1003q-41 25 -97 33l15 74h432l457 -949l79 795q2 41 -49 51l-104 29l12 74h332l-14 -74l-62 -29q-29 -12 -35 -51l-110 -1108h-301z" />
    <glyph glyph-name="O" unicode="O" horiz-adv-x="1284" 
d="M649 51q111 0 196 161t111 417t-24 418q-49 161 -164 161t-199 -158q-83 -158 -109 -415q-26 -258 22 -421t167 -163zM644 -31q-263 0 -413 179q-151 178 -121 468t222 484t446 192q254 0 405 -179t120 -477t-213 -482t-446 -185z" />
    <glyph glyph-name="P" unicode="P" horiz-adv-x="1114" 
d="M686 1174h-76l-59 -605h67q158 1 188 303t-120 302zM752 1262q214 0 328 -94t95 -290q-19 -198 -157 -297t-363 -100h-112l-33 -334q-6 -47 31 -53l112 -20l-14 -74h-565l14 74l53 18q35 14 39 55l96 967q6 43 -28 55l-60 19l17 74h547z" />
    <glyph glyph-name="Q" unicode="Q" horiz-adv-x="1290" 
d="M659 51q115 0 195 159t104 416t-28 420q-53 162 -168 162t-194 -156q-78 -156 -104 -415q-26 -258 28 -422t167 -164zM1054 -383q-165 0 -254 87q-48 46 -75 79t-67 99t-54 87q-246 9 -382 187t-107 463t227 479t450 194q254 0 398 -178t117 -471q-27 -250 -158 -422
t-334 -227q160 -102 369 -170l194 104l39 -47q-16 -40 -51 -92q-68 -97 -172 -143q-64 -28 -140 -29z" />
    <glyph glyph-name="R" unicode="R" horiz-adv-x="1210" 
d="M684 1174h-74l-55 -564h66q199 0 229 282t-166 282zM711 1262q254 0 390 -92t118 -277q-25 -229 -271 -322l123 -331q49 -125 148 -166l-17 -74h-233q-113 0 -160 31t-78 145l-98 346h-86l-37 -375q-6 -47 31 -53l116 -20l-14 -74h-569l14 74l53 18q35 14 39 55l96 967
q6 43 -28 55l-60 19l17 74h506z" />
    <glyph glyph-name="S" unicode="S" horiz-adv-x="991" 
d="M625 1292q113 0 229 -34t184 -80q-33 -145 -110 -273h-109l-31 283q-54 20 -128 20t-110 -41t-41 -101t28 -124q33 -66 89 -113t120 -102t120 -105q55 -50 88 -123t25 -155q-17 -182 -157 -278t-349 -97q-274 0 -412 99q30 180 93 280h114l39 -274q39 -20 135 -20t138 39
q41 40 48 112q7 71 -41 141t-120 132q-73 62 -145 129t-118 156t-36 185q16 158 144 251t313 93z" />
    <glyph glyph-name="T" unicode="T" horiz-adv-x="1056" 
d="M412 1174q-45 0 -73 -44q-10 -14 -17 -27q-8 -13 -11 -18l-102 -165l-74 12q-6 176 60 330h931q29 -147 -6 -330l-86 -12l-61 167q-2 5 -6 17t-6 15q-3 3 -7 13t-6 13q-12 24 -55 29h-76l-102 -1027q-6 -45 30 -53l111 -20l-14 -74h-604l16 74l94 18q31 8 37 55l102 1027
h-75z" />
    <glyph glyph-name="U" unicode="U" horiz-adv-x="1177" 
d="M653 -31q-274 1 -385 105t-84 377l68 663q2 43 -29 55l-59 19l16 74h549l-14 -74l-94 -21q-37 -6 -39 -53l-82 -817q-25 -233 215 -234q210 0 276 262q18 71 27 162l63 627q2 43 -28 55l-88 19l14 74h289l-15 -74l-51 -21q-37 -14 -41 -53l-59 -606q-27 -268 -131 -404
t-318 -135z" />
    <glyph glyph-name="V" unicode="V" horiz-adv-x="1060" 
d="M662 0h-250l-219 1110q-8 47 -37 59l-43 19l14 74h612l-12 -74l-129 -31q-31 -8 -39 -24t0 -50l146 -749l303 766q12 31 7 42t-32 19l-106 27l14 74h313l-14 -74l-55 -25q-23 -10 -37 -53z" />
    <glyph glyph-name="W" unicode="W" horiz-adv-x="1773" 
d="M666 0h-248l-228 1110q-8 47 -36 59l-41 19l12 74h612l-12 -74l-127 -31q-33 -8 -40 -23t-1 -51l154 -751l227 567l-43 211q-8 47 -37 59l-43 19l14 74h613l-15 -74l-127 -31q-30 -8 -38 -23t-2 -51l153 -753l309 770q12 31 8 42q-5 11 -32 19l-107 27l15 74h313l-14 -74
l-56 -25q-18 -8 -37 -53l-444 -1110h-248l-153 758z" />
    <glyph glyph-name="X" unicode="X" horiz-adv-x="1175" 
d="M604 1116l187 -352l282 356q31 41 -12 51l-88 17l14 74h307l-14 -74l-49 -19q-20 -8 -57 -53l-343 -432l279 -522q29 -53 49 -68l29 -20l-17 -74h-583l16 74l86 20q47 10 23 64l-191 352l-262 -346q-45 -59 14 -70l103 -20l-17 -74h-366l14 74l80 24q25 8 76 74l317 418
l-272 510q-6 10 -16 35t-29 36l-39 17l12 74h592l-14 -74l-86 -21q-45 -10 -25 -51z" />
    <glyph glyph-name="Y" unicode="Y" 
d="M616 1169q-32 -8 -38 -18t4 -43l192 -471l291 477q31 49 -18 55l-132 19l15 74h346l-14 -74l-27 -12q-51 -18 -78 -64l-371 -606l-34 -359q-4 -39 28 -53l56 -20l-15 -74h-506l17 74l51 18q35 14 37 55l35 340l-258 611q-21 63 -52 76l-32 14l12 74h592l-12 -74z" />
    <glyph glyph-name="Z" unicode="Z" horiz-adv-x="1103" 
d="M975 381h115q-8 -182 -66 -381h-989l18 94l703 1077l-248 -4q-34 0 -40 -8q-5 -8 -14 -19t-16 -20l-162 -209h-112q6 190 61 351h959l-13 -74l-720 -1100l258 6q53 2 70 10t44 48z" />
    <glyph glyph-name="bracketleft" unicode="[" horiz-adv-x="557" 
d="M106 -289l164 1641l387 2l-14 -74l-135 -43l-139 -1409l135 -43l-17 -74h-381z" />
    <glyph glyph-name="backslash" unicode="\" horiz-adv-x="995" 
d="M688 -387l-506 1790h236l504 -1790h-234z" />
    <glyph glyph-name="bracketright" unicode="]" horiz-adv-x="561" 
d="M10 -289l15 74l141 43l141 1409l-143 43l16 74l387 -2l-164 -1641h-393z" />
    <glyph glyph-name="asciicircum" unicode="^" horiz-adv-x="1062" 
d="M106 463l433 831h249l271 -831l-185 -21l-229 707l-362 -705z" />
    <glyph glyph-name="underscore" unicode="_" horiz-adv-x="1087" 
d="M43 -348l20 209h934l-22 -209h-932z" />
    <glyph glyph-name="grave" unicode="`" horiz-adv-x="444" 
d="M117 1341l202 175q63 -60 105 -182t37 -228l-74 -47z" />
    <glyph glyph-name="a" unicode="a" horiz-adv-x="1075" 
d="M428 403q0 -241 100 -241q49 0 129 100l66 635l-43 2q-74 0 -127 -58q-53 -59 -79 -151q-46 -164 -46 -287zM373 -31q-117 1 -200 107t-83 301q0 256 166 429t416 173q156 0 366 -88l-71 -721q-6 -53 32 -47l60 10l20 -72q-172 -68 -307 -92q-50 13 -70 61t-26 132
q-150 -193 -303 -193z" />
    <glyph glyph-name="b" unicode="b" horiz-adv-x="1017" 
d="M600 854q-51 0 -102 -63l-74 -744h29q92 0 150 117t79 328q35 362 -82 362zM719 979q153 0 239 -127t62 -366t-184 -378q-162 -139 -369 -139t-367 47l119 1176q6 53 -29 65l-57 23l14 72q186 49 342 55h50q16 -55 6 -141l-37 -371q102 84 211 84z" />
    <glyph glyph-name="c" unicode="c" horiz-adv-x="888" 
d="M494 -31q-199 1 -310 141t-87 372t155 364q131 133 344 133t360 -98q-31 -139 -102 -267h-90l-27 260q-39 25 -90 25q-82 0 -139 -111q-58 -111 -76 -297t26 -300t140 -113q45 0 90 26t64 42q18 18 69 71l47 -43q-86 -104 -166 -154t-208 -51z" />
    <glyph glyph-name="d" unicode="d" horiz-adv-x="1083" 
d="M428 403q0 -243 100 -243q47 0 131 104q14 135 66 633l-45 2q-74 0 -127 -58q-53 -59 -79 -151q-46 -164 -46 -287zM373 -33q-117 0 -200 108t-83 302q0 256 166 429t416 173q20 0 61 -4l23 227q4 55 -45 62l-109 14l12 72q178 45 416 57h43q8 -88 -2 -203l-104 -1034
q-6 -53 32 -47l60 10l20 -72q-172 -68 -307 -92q-50 13 -70 61t-26 132q-152 -195 -303 -195z" />
    <glyph glyph-name="e" unicode="e" horiz-adv-x="978" 
d="M598 893q-59 0 -101 -122t-46 -304q83 31 147 105t64 192q0 55 -18 92t-46 37zM997 737q1 -141 -153 -231t-393 -127q8 -133 61 -208t131 -75t141 38t142 118l57 -59q-160 -223 -440 -224q-211 0 -331 116t-120 316q0 244 148 411t389 167q162 0 265 -70t103 -172z" />
    <glyph glyph-name="f" unicode="f" horiz-adv-x="579" 
d="M696 1325q-74 0 -100 -67t-45 -244l-6 -66h110l-12 -86h-106l-80 -819q-23 -217 -142 -323t-305 -107q-186 0 -291 61q31 129 95 244h100l25 -217q25 -8 65 -8t59 15q37 28 56 154q6 46 16 142l82 858h-94l12 86h90l4 27q23 217 142 323t305 106t291 -61
q-31 -129 -95 -243h-100l-24 217q-25 8 -52 8z" />
    <glyph glyph-name="g" unicode="g" horiz-adv-x="1042" 
d="M477 -289q198 0 281 45q33 20 35 40q4 45 -68 48l-399 41q-100 10 -158 56q-23 -27 -25 -70q-8 -74 64 -117t270 -43zM548 406q68 0 96 60t37 156t8 150q-1 123 -103 123q-56 0 -86 -65q-30 -66 -41 -184q-12 -118 5 -179t84 -61zM590 979q202 0 319 -76q68 57 201 121
q-14 -139 -41 -217l-65 -16q25 -61 18 -144q-14 -145 -138 -235t-345 -90q-104 0 -187 20q-37 -33 -41 -66q-5 -33 15 -44t69 -17l373 -41q250 -29 227 -256q-12 -133 -155 -219q-144 -86 -364 -86t-329 68q-109 69 -99 159t83 144q-33 55 -25 141q14 160 187 235
q-192 80 -172 287q14 143 140 237q127 94 329 95z" />
    <glyph glyph-name="h" unicode="h" horiz-adv-x="1079" 
d="M848 979q114 0 146 -92t12 -307l-41 -410q-6 -53 32 -47l62 10l18 -72l-317 -92q-66 0 -96 39t-19 162l37 352q25 244 -31 244q-33 0 -69 -35t-97 -110l-63 -621l-322 -27l125 1227q4 45 -45 62l-43 14l17 74q195 49 350 57h43q8 -88 -2 -203l-47 -450q195 225 350 225z
" />
    <glyph glyph-name="i" unicode="i" horiz-adv-x="587" 
d="M580 61q-170 -68 -310 -92q-59 15 -94 73t-26 138l63 594q4 45 -45 62l-43 14l12 72q195 49 350 57h43q8 -88 -2 -203l-61 -606q-6 -53 33 -47l59 10zM389 1051q-78 0 -129 51t-49 146q2 96 52 146t129 50t131 -51t50 -145t-54 -145q-52 -52 -130 -52z" />
    <glyph glyph-name="j" unicode="j" horiz-adv-x="544" 
d="M455 72q-17 -193 -139 -312t-347 -143l-16 74q4 3 35 27q79 60 94 100q6 16 23 57t26 139l80 760q4 45 -45 62l-43 14l12 72q195 49 350 57h43q8 -88 -2 -203zM387 1051q-78 0 -129 51t-49 146q2 96 52 146t129 50t131 -51t50 -145t-54 -145q-52 -52 -130 -52z" />
    <glyph glyph-name="k" unicode="k" horiz-adv-x="1079" 
d="M848 979q100 0 170 -55t69 -148q-1 -141 -71 -224t-217 -138l141 -236q51 -74 117 -61l22 8l21 -66q-147 -68 -332 -90q-117 29 -160 135l-92 224l14 69l70 60q88 76 113 130q25 53 25 111t-17 84q-16 26 -39 27q-70 0 -197 -145l-65 -664l-320 -27l125 1229q4 45 -45 62
l-43 14l13 72q195 49 350 57h43q8 -88 -2 -203l-43 -424q160 199 350 199z" />
    <glyph glyph-name="l" unicode="l" horiz-adv-x="561" 
d="M557 61q-170 -68 -309 -92q-59 15 -94 73t-27 138l106 1022q4 45 -45 62l-43 14l13 72q195 49 350 57h43q8 -88 -2 -203l-105 -1034q-6 -53 33 -47l60 10z" />
    <glyph glyph-name="m" unicode="m" horiz-adv-x="1632" 
d="M877 979q88 0 127 -55t40 -176q201 231 357 231q113 0 145 -92t13 -307l-41 -410q-6 -53 32 -47l60 10l20 -72l-317 -92q-67 0 -97 39t-18 162l37 352q25 244 -31 244q-32 0 -68 -35t-98 -110l-67 -621h-320l60 522q27 244 -31 244q-22 0 -52 -23t-49 -47t-67 -78
l-61 -618l-322 -27l80 799q4 45 -45 62l-43 14l16 74q195 49 350 57h43q8 -88 -2 -203l-2 -24q197 227 351 227z" />
    <glyph glyph-name="n" unicode="n" horiz-adv-x="1107" 
d="M877 979q113 0 145 -92t12 -307l-41 -410q-6 -53 33 -47l61 10l19 -72l-318 -92q-66 0 -96 39t-18 162l37 352q25 244 -31 244q-22 0 -52 -23t-49 -47t-67 -78l-61 -618l-322 -27l80 799q4 45 -45 62l-43 14l16 74q195 49 350 57h43q8 -88 -2 -203l-2 -24
q197 227 351 227z" />
    <glyph glyph-name="o" unicode="o" horiz-adv-x="1007" 
d="M504 35q131 0 174 442q20 174 0 305t-86 131q-117 0 -160 -439t72 -439zM501 -31q-202 -1 -315 145q-114 146 -92 367t164 359t344 139q203 0 319 -137q116 -138 93 -362t-167 -368t-346 -143z" />
    <glyph glyph-name="p" unicode="p" horiz-adv-x="1071" 
d="M676 831q-70 0 -160 -100l-65 -647q45 -16 75 -16q166 0 205 411q39 352 -55 352zM797 979q139 0 219 -121q80 -120 54 -372t-160 -384t-339 -133q-63 0 -129 23l-24 -250q-4 -31 20 -33l144 -22l-13 -74h-569l12 74l43 18q41 16 47 57l101 1002q6 49 -29 65l-47 23
l12 72q180 47 332 55h51q14 -57 4 -141l-2 -7q61 63 135 105t138 43z" />
    <glyph glyph-name="q" unicode="q" horiz-adv-x="1040" 
d="M428 404q0 -242 99 -242q50 0 132 102l64 633q-14 2 -43 2q-147 0 -216 -244q-36 -128 -36 -251zM383 -31q-127 0 -210 108t-83 300q0 256 166 429t416 173q156 0 366 -88l-112 -1149q-2 -27 20 -33l82 -22l-12 -74h-570l13 74l104 18q41 6 47 57l35 363
q-135 -156 -262 -156z" />
    <glyph glyph-name="r" unicode="r" horiz-adv-x="866" 
d="M779 979q99 0 173 -84q-45 -184 -92 -281h-104l-29 217q-16 4 -31 5q-80 0 -176 -95l-71 -741l-322 -27l78 791q4 49 -27 65l-47 23l12 72q180 47 332 55h51q12 -61 4 -135q150 135 249 135z" />
    <glyph glyph-name="s" unicode="s" horiz-adv-x="886" 
d="M401 51q133 0 144 80q7 69 -143 176q-62 45 -122 97t-101 126q-40 74 -32 158q14 135 122 213t282 78t348 -102q-23 -133 -88 -240h-104l-19 229q-40 27 -98 27q-116 0 -121 -68q-7 -83 142 -203q63 -50 125 -104t104 -121q42 -68 34 -137q-14 -141 -142 -216t-310 -75
q-242 0 -379 97q35 149 86 239h107l26 -231q49 -23 139 -23z" />
    <glyph glyph-name="t" unicode="t" horiz-adv-x="608" 
d="M207 858h-78l12 80q248 53 363 303h57l-29 -293h130l-15 -86h-123l-61 -616q-14 -147 61 -148q18 0 94 23l-16 -90q-78 -61 -218 -61t-196 73q-55 74 -43 219z" />
    <glyph glyph-name="u" unicode="u" horiz-adv-x="1103" 
d="M322 -31q-113 0 -146 92t-12 308l39 395q4 49 -27 65l-47 23l12 72q180 47 332 55h51q14 -57 4 -143l-41 -410q-25 -244 31 -244q33 0 69 35t99 113q18 206 62 618h317l-78 -778q-6 -53 33 -47l59 10l21 -72q-170 -68 -309 -92q-59 15 -95 73t-26 138q0 6 2 15
q-194 -226 -350 -226z" />
    <glyph glyph-name="v" unicode="v" horiz-adv-x="970" 
d="M911 720q0 102 -26 124l-146 20l-6 54q51 41 129 61q137 0 144 -195q0 -174 -106 -387t-249 -397l-301 -14l-184 837q-4 20 -39 39l-47 15l14 71q33 8 326 31h39q35 -55 49 -131l141 -721q100 147 181 319t81 274z" />
    <glyph glyph-name="w" unicode="w" horiz-adv-x="1447" 
d="M612 0l-301 -14l-143 837q-4 20 -39 39l-47 15l14 71q33 8 326 31h39q35 -55 49 -131l102 -713q102 158 164 320l-63 368q-4 20 -39 39l-47 15l14 71q33 8 326 31h39q35 -55 49 -131l102 -715q82 129 151 306q68 177 68 281t-26 124l-146 20l-6 54q51 41 129 61
q137 0 143 -195q0 -180 -94 -401t-219 -383l-301 -14l-55 327q-70 -139 -189 -313z" />
    <glyph glyph-name="x" unicode="x" horiz-adv-x="911" 
d="M813 768q0 51 -18 72l-158 14l-4 47q82 59 170 78q137 0 143 -133q0 -152 -272 -354l149 -347q10 -23 33 -34l57 -29l-14 -76q-145 -29 -293 -37h-41q-49 59 -76 123l-122 291q-145 -123 -146 -203q0 -49 21 -71l155 -15l4 -47q-82 -59 -170 -78q-137 0 -143 133
q0 143 246 357l-141 338q-10 27 -37 34l-80 33l14 74q145 31 307 41h43q51 -61 80 -131l121 -281q172 119 172 201z" />
    <glyph glyph-name="y" unicode="y" horiz-adv-x="966" 
d="M418 979h39q35 -57 49 -131l133 -680q125 154 199 318t74 250q0 87 -27 108l-146 20l-6 54q51 41 129 61q137 0 144 -195q0 -133 -100 -343q-100 -211 -303 -447q-202 -236 -443 -385l-76 145q209 111 324 195l-58 39l-182 839q-4 31 -39 39l-49 11l16 71q139 31 322 31z
" />
    <glyph glyph-name="z" unicode="z" horiz-adv-x="864" 
d="M786 389h72q16 -81 -16 -231t-82 -199q-338 102 -522 119l-74 -117l-119 94l487 568l-264 20q-37 4 -59 -41l-19 -39l-71 19l76 391l583 -68l66 78l74 -63l-488 -584q145 -12 289 -57q39 -14 59 45q8 25 8 65z" />
    <glyph glyph-name="braceleft" unicode="{" horiz-adv-x="606" 
d="M145 90l19 178q16 174 -37 197l-47 27l8 79l53 29q57 23 76 199l19 178q14 137 87 233t218 115l153 21l-4 -76l-41 -31q-59 -39 -74 -170l-24 -250q-13 -111 -75 -179t-206 -108q133 -39 184 -108q50 -70 40 -176l-23 -230q-16 -154 37 -194l37 -29l-10 -74l-154 21
q-139 18 -195 114t-41 234z" />
    <glyph glyph-name="bar" unicode="|" horiz-adv-x="493" 
d="M94 -387l178 1792h236l-180 -1792h-234z" />
    <glyph glyph-name="braceright" unicode="}" horiz-adv-x="606" 
d="M485 90q-14 -137 -88 -233t-217 -115l-155 -21l2 74l45 29q59 37 71 170l27 254q10 110 75 178t206 106q-135 39 -186 108q-50 69 -38 179l25 250q14 131 -39 170l-39 31l12 76l152 -21q139 -19 194 -115t41 -233l-16 -178q-16 -168 35 -199l47 -29l-6 -73l-53 -27
q-59 -33 -76 -201z" />
    <glyph glyph-name="asciitilde" unicode="~" horiz-adv-x="974" 
d="M712 610q48 0 82 31t76 102l109 -47q-104 -340 -311 -340q-62 0 -152 69t-133 69q-88 0 -164 -119l-102 47q55 172 137 248t172 75q57 1 147 -67q91 -68 139 -68z" />
    <glyph glyph-name="uni00A0" unicode="&#xa0;" horiz-adv-x="393" 
 />
    <glyph glyph-name="exclamdown" unicode="&#xa1;" horiz-adv-x="489" 
d="M328 979q58 0 93 -35q36 -34 34 -104t-39 -107t-92 -37t-93 37q-36 37 -36 107q3 70 39 104t94 35zM43 -305l190 897h146l10 -895z" />
    <glyph glyph-name="cent" unicode="&#xa2;" horiz-adv-x="929" 
d="M653 899q-82 0 -139 -111q-58 -111 -76 -297t26 -300t140 -113q45 0 90 26t64 42q18 18 69 71l47 -43q-78 -94 -148 -143t-177 -60l-25 -262h-75l24 260q-185 9 -289 149t-80 359q20 223 140 355t331 145l25 258h76l-25 -258q180 -8 312 -96q-31 -139 -103 -267h-90
l-27 260q-39 25 -90 25z" />
    <glyph glyph-name="sterling" unicode="&#xa3;" horiz-adv-x="1099" 
d="M838 1208q-141 0 -172 -311q-6 -59 -11 -197h181l-19 -86h-166q-12 -246 -84 -348q192 -51 331 -9q62 19 89 54l31 39l41 -18l-12 -66q-27 -145 -116 -221t-188 -76q-150 0 -268 140q-53 -86 -105 -113t-126 -27q-74 -1 -125 55t-43 139t51 132t100 49t113 -12q4 25 4 30
q8 90 -8 252h-156l19 86h129q-4 115 4 187q41 406 452 405q250 0 369 -102q-22 -143 -92 -258h-133l-23 262q-31 14 -67 14z" />
    <glyph glyph-name="currency" unicode="&#xa4;" horiz-adv-x="1122" 
d="M637 727q-41 0 -75 -34t-38 -81q-4 -46 23 -78t67 -32t75 32q34 32 38 78q4 47 -22 81q-27 34 -68 34zM585 182q-99 0 -161 35l-143 -139l-179 221l142 135q-25 94 -18 172t50 182l-112 140l221 217l115 -139q68 34 167 34t160 -34l142 139l182 -217l-145 -144
q50 -169 -33 -348q109 -127 117 -137l-226 -219l-112 139q-68 -37 -167 -37z" />
    <glyph glyph-name="yen" unicode="&#xa5;" horiz-adv-x="1259" 
d="M225 268l27 119h864l-26 -119h-267l-10 -121q-4 -39 29 -53l78 -20l-15 -74h-551l17 74l73 18q35 12 37 55l13 121h-269zM254 543l25 119h163l-184 436q-20 61 -51 76l-33 14l12 74h592l-12 -74l-88 -19q-31 -8 -38 -18t3 -43l184 -446h23l276 452q33 49 -18 55l-131 19
l14 74h346l-14 -74l-27 -12q-47 -16 -77 -64l-277 -450h201l-27 -119h-862z" />
    <glyph glyph-name="brokenbar" unicode="&#xa6;" horiz-adv-x="483" 
d="M190 625l78 780h234l-78 -780h-234zM88 -387l80 786h233l-77 -786h-236z" />
    <glyph glyph-name="section" unicode="&#xa7;" horiz-adv-x="1245" 
d="M918 76q0 -18 -9 -43q45 93 57 203t-38 206q-51 96 -131 164t-160 134q-192 157 -174 321q6 70 45 127q-90 -90 -106 -238t37 -254q52 -104 134 -171t164 -127q199 -145 181 -322zM859 1391q273 0 415 -107q-27 -170 -76 -280h-160l-39 282q-53 23 -157 23
q-104 -1 -157 -53q-54 -52 -62 -129t54 -124q63 -48 151 -98q88 -49 118 -67q141 -82 218 -188t60 -278q-18 -172 -138 -318t-284 -224t-325 -78q-301 0 -424 94q18 141 88 295h146l51 -293q52 -14 162 -13t175 51t71 110t-50 108q-55 47 -170 113t-178 117
q-227 180 -196 469q23 242 228 415q206 173 479 173z" />
    <glyph glyph-name="dieresis" unicode="&#xa8;" horiz-adv-x="790" 
d="M732 1397q71 0 116 -44t43 -130t-47 -131t-116 -45t-116 45t-43 132t47 130t116 43zM296 1397q71 0 115 -43t43 -130t-46 -132t-116 -45t-117 45t-44 132t48 130t117 43z" />
    <glyph glyph-name="copyright" unicode="&#xa9;" horiz-adv-x="1257" 
d="M694 326q-154 0 -247 85t-91 246t108 245t267 83q162 0 238 -92l-37 -129h-72l-20 139q-49 16 -84 17q-82 0 -138 -77t-58 -191q-1 -114 54 -184t136 -69q47 0 79 17l37 119h86l-22 -154q-82 -55 -236 -55zM690 182q195 0 333 135t141 327t-133 328t-330 136t-333 -135
t-141 -328t133 -328t330 -135zM702 1204q232 0 398 -164t162 -395t-172 -395t-402 -164t-397 165q-164 165 -160 395t171 394t400 164z" />
    <glyph glyph-name="ordfeminine" unicode="&#xaa;" horiz-adv-x="595" 
d="M387 897q14 0 25 8l12 107q-59 -12 -64 -66q-6 -49 27 -49zM290 819q-136 0 -124 113q10 90 156 119l108 20q18 145 -6 164q-10 8 -33 8t-47 -8l-33 -117h-75q-20 68 -17 146q91 30 193 30t158 -44t46 -140l-18 -184q-4 -25 16 -25h11l-4 -47l-142 -37q-59 0 -67 43
q-62 -41 -122 -41z" />
    <glyph glyph-name="guillemotleft" unicode="&#xab;" horiz-adv-x="927" 
d="M489 461l3 20l262 408l172 -135l-168 -281l114 -287l-202 -133zM111 461l2 20l276 432l172 -135l-184 -305l125 -311l-203 -133z" />
    <glyph glyph-name="logicalnot" unicode="&#xac;" horiz-adv-x="950" 
d="M127 385l27 266h766l-54 -534h-266l27 268h-500z" />
    <glyph glyph-name="registered" unicode="&#xae;" horiz-adv-x="1257" 
d="M680 940h-35l-2 -276h31q76 0 78 138t-72 138zM1026 346h-127q-63 0 -92 15t-51 73l-72 187h-41l-2 -203q-2 -25 18 -27l72 -10v-35h-338v35l41 12q16 4 19 25l6 493q0 18 -17 25l-41 12l2 35h308q109 0 174 -50t64 -139t-93 -139l90 -188q25 -59 80 -86v-35zM690 182
q195 0 334 135t141 327t-134 328t-330 136t-333 -135t-141 -328t133 -328t330 -135zM704 1204q234 0 398 -164t160 -395t-172 -395t-402 -164t-397 165q-164 165 -160 395t172 394q167 164 401 164z" />
    <glyph glyph-name="macron" unicode="&#xaf;" horiz-adv-x="514" 
d="M66 1075l20 219h596l-20 -219h-596z" />
    <glyph glyph-name="degree" unicode="&#xb0;" horiz-adv-x="700" 
d="M434 805q66 0 94 51t37 154q20 201 -90 200q-63 0 -92 -51t-39 -149q-21 -205 90 -205zM485 1292q137 0 209 -74t59 -203q-13 -128 -103 -210t-226 -82q-137 0 -208 76q-70 76 -58 204q12 129 101 209t226 80z" />
    <glyph glyph-name="plusminus" unicode="&#xb1;" horiz-adv-x="870" 
d="M795 90h-693l27 266h692zM356 453l25 241h-219l26 264h220l24 250h260l-26 -250h215l-27 -264h-215l-23 -241h-260z" />
    <glyph glyph-name="two.sups" unicode="&#xb2;" horiz-adv-x="598" 
d="M378 1294q138 0 210 -55t62 -148t-99 -183q-90 -90 -207 -146l160 2q18 0 24 10l41 74h70q-8 -145 -43 -242h-490l19 78q94 88 135 131t77 109t44 139q18 180 -51 180l-2 -2h-6l-66 -156h-80q-16 80 -8 166q72 43 210 43z" />
    <glyph glyph-name="three.sups" unicode="&#xb3;" horiz-adv-x="565" 
d="M328 1241q-8 0 -15 -6l-65 -154h-76q-25 80 -12 158q82 53 206 53t192 -47t58 -129q-6 -53 -55 -94t-133 -53q199 -33 184 -185q-10 -94 -150 -142t-345 -54v53q217 25 233 174q4 51 -24 78q-29 27 -93 33l11 57q48 -6 72 28t30 109q14 121 -18 121z" />
    <glyph glyph-name="acute" unicode="&#xb4;" horiz-adv-x="444" 
d="M680 1350l-326 -283l-65 47q16 106 82 227t141 183z" />
    <glyph glyph-name="mu" unicode="&#xb5;" horiz-adv-x="1169" 
d="M543 182q36 0 77 43q42 43 91 105l61 618h318l-78 -778q-6 -53 32 -47l60 10l20 -72q-170 -68 -309 -92q-59 15 -94 73t-27 138q0 4 2 15q-115 -133 -225 -191l-33 -328l-325 -63l114 1151q4 49 -26 65l-47 23l12 72q180 47 332 55h51q14 -57 4 -143l-41 -410
q-25 -244 31 -244z" />
    <glyph glyph-name="paragraph" unicode="&#xb6;" horiz-adv-x="1574" 
d="M909 -301h129l148 1475h-129zM526 360q-194 0 -304 123t-89 324t152 328t323 127h1008l-14 -74l-52 -21q-37 -14 -41 -53l-135 -1358q-2 -37 31 -51l57 -20l-16 -74h-967l15 74l53 18q35 14 39 53l59 604h-119z" />
    <glyph glyph-name="periodcentered" unicode="&#xb7;" horiz-adv-x="468" 
d="M294 713q71 0 114 -42t41 -127q-3 -85 -47 -129t-114 -44t-113 44q-44 44 -42 129t46 127t115 42z" />
    <glyph glyph-name="cedilla" unicode="&#xb8;" horiz-adv-x="460" 
d="M133 -291q57 0 66 80q6 63 -90 64l73 163h80l-51 -114q195 8 181 -126q-7 -66 -69 -115q-61 -48 -153 -48t-147 49l40 76q49 -29 70 -29z" />
    <glyph glyph-name="one.sups" unicode="&#xb9;" horiz-adv-x="491" 
d="M537 678l-15 -72h-389l14 72l62 10l47 424l-123 -14l10 55l349 147h26l-59 -585q-4 -25 2 -25z" />
    <glyph glyph-name="ordmasculine" unicode="&#xba;" horiz-adv-x="606" 
d="M430 1237q-26 0 -50 -48t-32 -133q-8 -86 5 -134t41 -48t52 48t31 134q8 85 -6 133t-41 48zM388 819q-110 0 -172 67t-53 167t90 170q81 69 187 69t168 -66q61 -66 51 -171q-10 -104 -85 -170q-76 -66 -186 -66z" />
    <glyph glyph-name="guillemotright" unicode="&#xbb;" horiz-adv-x="931" 
d="M918 481l-3 -20l-276 -432l-176 133l186 311l-123 305l199 135zM537 481l-2 -20l-263 -408l-176 133l174 287l-112 281l198 135z" />
    <glyph glyph-name="onequarter" unicode="&#xbc;" horiz-adv-x="1282" 
d="M831 256h117l21 203zM571 678l-14 -72h-389l14 72l62 10l47 424l-123 -14l10 55l348 147h27l-59 -585q-2 -25 2 -25zM141 -25l1051 1325l104 -69l-1046 -1327zM1235 256l-14 -111h-37l-4 -36q-2 -20 4 -25l33 -12l-17 -70h-313l14 70l29 10l4 27l4 36h-207l8 64l310 461
h186l-41 -414h41z" />
    <glyph glyph-name="onehalf" unicode="&#xbd;" horiz-adv-x="1474" 
d="M571 678l-14 -72h-389l14 72l62 10l47 424l-123 -14l10 55l348 147h27l-59 -585q-2 -25 2 -25zM141 -25l1051 1325l104 -69l-1046 -1327zM1179 690q138 0 210 -55q73 -55 63 -149t-100 -183q-90 -90 -207 -145l160 2q18 0 24 10l41 74h70q-8 -145 -43 -242h-490l19 78
q94 88 135 131t77 109t44 139q18 178 -52 180q-4 0 -8 -2l-65 -156h-80q-16 80 -8 166q72 43 210 43z" />
    <glyph glyph-name="threequarters" unicode="&#xbe;" horiz-adv-x="1290" 
d="M842 256h116l21 203zM354 1241q-8 0 -14 -6l-66 -154h-75q-25 80 -13 158q82 53 206 53t192 -47t59 -129q-6 -53 -55 -94t-133 -53q199 -33 184 -185q-11 -94 -151 -142t-345 -54v53q217 25 234 174q4 51 -25 78t-92 33l10 57q91 -12 103 137q14 121 -19 121zM152 -25
l1050 1325l105 -69l-1047 -1327zM1245 256l-14 -111h-37l-4 -36q-2 -20 4 -25l33 -12l-17 -70h-313l14 70l29 10l4 27l4 36h-207l9 64l309 461h186l-41 -414h41z" />
    <glyph glyph-name="questiondown" unicode="&#xbf;" horiz-adv-x="880" 
d="M461 -342q-201 0 -317 84t-101 241t179 259q68 43 136 88q161 107 181 280h104q4 -231 -83 -359q-38 -57 -76 -105q-154 -197 -92 -351q22 -51 94 -51t108 25l98 274h99q29 -90 16 -276q-145 -109 -346 -109zM622 979q58 -1 92 -37t25 -108q-12 -139 -147 -140
q-55 0 -89 35t-26 106t48 107q39 36 97 37z" />
    <glyph glyph-name="Agrave" unicode="&#xc0;" horiz-adv-x="1071" 
d="M487 885l-188 -445h287zM418 1446l86 248q96 -23 212 -118t136 -171l-35 -72zM647 160l-43 192h-342l-80 -192q-12 -35 -5 -48t36 -18l90 -20l-14 -74h-320l13 74l67 20q23 10 43 58l467 1110h207l244 -1090q14 -63 45 -78l57 -20l-14 -74h-625l12 74l111 20q61 15 51 66
z" />
    <glyph glyph-name="Aacute" unicode="&#xc1;" horiz-adv-x="1071" 
d="M487 885l-188 -445h287zM907 1446l-420 -113l-22 72q37 76 172 170t233 119zM647 160l-43 192h-342l-80 -192q-12 -35 -5 -48t36 -18l90 -20l-14 -74h-320l13 74l67 20q23 10 43 58l467 1110h207l244 -1090q14 -63 45 -78l57 -20l-14 -74h-625l12 74l111 20q61 15 51 66z
" />
    <glyph glyph-name="Acircumflex" unicode="&#xc2;" horiz-adv-x="1071" 
d="M487 885l-188 -445h287zM420 1343l-45 82q131 152 256 232h94q129 -111 209 -232l-62 -82l-223 99zM647 160l-43 192h-342l-80 -192q-12 -35 -5 -48t36 -18l90 -20l-14 -74h-320l13 74l67 20q23 10 43 58l467 1110h207l244 -1090q14 -63 45 -78l57 -20l-14 -74h-625
l12 74l111 20q61 15 51 66z" />
    <glyph glyph-name="Atilde" unicode="&#xc3;" horiz-adv-x="1071" 
d="M487 885l-188 -445h287zM840 1593q47 1 67 17t35 61h88q-10 -137 -67 -226t-162 -89q-74 0 -149 52t-139 52t-93 -65h-84q12 123 74 206t137 83q76 0 161 -46q85 -45 132 -45zM647 160l-43 192h-342l-80 -192q-12 -35 -5 -48t36 -18l90 -20l-14 -74h-320l13 74l67 20
q23 10 43 58l467 1110h207l244 -1090q14 -63 45 -78l57 -20l-14 -74h-625l12 74l111 20q61 15 51 66z" />
    <glyph glyph-name="Adieresis" unicode="&#xc4;" horiz-adv-x="1071" 
d="M487 885l-188 -445h287zM452 1675q68 0 112 -43t43 -127t-45 -128t-114 -44t-113 44q-44 44 -42 128q0 84 45 127t114 43zM887 1675q69 0 113 -43t42 -127t-47 -128t-113 -44t-113 44q-44 44 -42 129t46 127t114 42zM647 160l-43 192h-342l-80 -192q-12 -35 -5 -48
t36 -18l90 -20l-14 -74h-320l13 74l67 20q23 10 43 58l467 1110h207l244 -1090q14 -63 45 -78l57 -20l-14 -74h-625l12 74l111 20q61 15 51 66z" />
    <glyph glyph-name="Aring" unicode="&#xc5;" horiz-adv-x="1071" 
d="M674 1352q42 0 72 30t30 84q0 55 -27 84q-28 29 -72 29t-75 -32t-31 -83q-1 -112 103 -112zM487 885l-188 -445h287zM647 160l-43 192h-342l-80 -192q-12 -35 -5 -48t36 -18l90 -20l-14 -74h-320l13 74l67 20q23 10 43 58l459 1093q-123 59 -119 223q2 106 70 178t173 70
q105 0 172 -70t64 -178q-4 -168 -141 -227l240 -1069q14 -63 45 -78l57 -20l-14 -74h-625l12 74l111 20q61 15 51 66z" />
    <glyph glyph-name="AE" unicode="&#xc6;" horiz-adv-x="1492" 
d="M420 543h282l52 522zM1217 674q37 0 56 43q7 16 11 22l39 84h109l-66 -383h-90l-25 86q-2 6 -4 16l-3 15q-1 4 -3 10t-5 8q-3 3 -8 7t-22 4h-170l-49 -498h158q68 0 94 51l96 195h111q23 -209 -14 -334h-875l14 74l54 18q35 14 39 55l30 308h-332l-188 -295
q-31 -49 31 -66l104 -20l-14 -74h-336l12 74l31 10q31 8 68 68l643 1005l-123 31l16 74h920q12 -121 -47 -312h-111l-51 174q-7 29 -25 39t-55 11h-143l-50 -500h173z" />
    <glyph glyph-name="Ccedilla" unicode="&#xc7;" horiz-adv-x="1165" 
d="M588 -291q57 0 65 80q6 63 -90 64l55 122q-266 29 -399 193t-102 467t236 480q206 177 490 177t425 -106q-33 -152 -107 -279h-104l-31 283q-70 18 -106 18q-168 0 -302 -176t-158 -427t71 -403t257 -151q23 0 76 12l144 267h129q-4 -186 -47 -307q-160 -53 -359 -54h-35
l-30 -67q195 8 181 -126q-7 -66 -69 -115q-62 -48 -154 -48t-147 49l41 76q49 -29 70 -29z" />
    <glyph glyph-name="Egrave" unicode="&#xc8;" horiz-adv-x="1005" 
d="M424 1450l86 248q96 -23 212 -118t136 -171l-35 -72zM733 674q35 0 51 31t17 34l39 84h108l-65 -383h-90l-25 86q-2 6 -4 16l-3 15q-1 4 -3 10t-5 8q-3 3 -9 7t-21 4h-170l-49 -498h137q68 0 94 51l117 195h109q20 -158 -33 -334h-854l14 74l53 18q35 14 39 55l96 967
q6 43 -26 55l-60 19l15 74h837q12 -121 -47 -312h-110l-51 174q-8 29 -26 39t-54 11h-144l-49 -500h172z" />
    <glyph glyph-name="Eacute" unicode="&#xc9;" horiz-adv-x="1005" 
d="M913 1450l-419 -113l-23 72q37 76 172 170t234 119zM733 674q35 0 51 31t17 34l39 84h108l-65 -383h-90l-25 86q-2 6 -4 16l-3 15q-1 4 -3 10t-5 8q-3 3 -9 7t-21 4h-170l-49 -498h137q68 0 94 51l117 195h109q20 -158 -33 -334h-854l14 74l53 18q35 14 39 55l96 967
q6 43 -26 55l-60 19l15 74h837q12 -121 -47 -312h-110l-51 174q-8 29 -26 39t-54 11h-144l-49 -500h172z" />
    <glyph glyph-name="Ecircumflex" unicode="&#xca;" horiz-adv-x="1005" 
d="M426 1348l-45 82q131 152 256 231h94q129 -111 209 -231l-61 -82l-224 98zM733 674q35 0 51 31t17 34l39 84h108l-65 -383h-90l-25 86q-2 6 -4 16l-3 15q-1 4 -3 10t-5 8q-3 3 -9 7t-21 4h-170l-49 -498h137q68 0 94 51l117 195h109q20 -158 -33 -334h-854l14 74l53 18
q35 14 39 55l96 967q6 43 -26 55l-60 19l15 74h837q12 -121 -47 -312h-110l-51 174q-8 29 -26 39t-54 11h-144l-49 -500h172z" />
    <glyph glyph-name="Edieresis" unicode="&#xcb;" horiz-adv-x="1005" 
d="M438 1679q68 0 112 -43t43 -127t-45 -128t-114 -44t-114 44t-41 128q0 84 45 127q46 43 114 43zM872 1679q70 0 114 -43t42 -127t-47 -128t-114 -44t-113 44t-41 129q2 85 46 127q43 42 113 42zM733 674q35 0 51 31t17 34l39 84h108l-65 -383h-90l-25 86q-2 6 -4 16
l-3 15q-1 4 -3 10t-5 8q-3 3 -9 7t-21 4h-170l-49 -498h137q68 0 94 51l117 195h109q20 -158 -33 -334h-854l14 74l53 18q35 14 39 55l96 967q6 43 -26 55l-60 19l15 74h837q12 -121 -47 -312h-110l-51 174q-8 29 -26 39t-54 11h-144l-49 -500h172z" />
    <glyph glyph-name="Igrave" unicode="&#xcc;" horiz-adv-x="653" 
d="M248 1446l86 248q96 -23 212 -118t136 -171l-35 -72zM276 1114q6 43 -28 55l-60 19l17 74h508l-15 -74l-51 -21q-37 -14 -41 -53l-96 -967q-4 -37 31 -53l55 -20l-14 -74h-508l14 74l53 18q35 14 39 55z" />
    <glyph glyph-name="Iacute" unicode="&#xcd;" horiz-adv-x="653" 
d="M717 1446l-420 -113l-23 72q37 76 172 170t234 119zM276 1114q6 43 -28 55l-60 19l17 74h508l-15 -74l-51 -21q-37 -14 -41 -53l-96 -967q-4 -37 31 -53l55 -20l-14 -74h-508l14 74l53 18q35 14 39 55z" />
    <glyph glyph-name="Icircumflex" unicode="&#xce;" horiz-adv-x="653" 
d="M238 1343l-45 82q131 152 256 232h94q129 -111 209 -232l-62 -82l-223 99zM276 1114q6 43 -28 55l-60 19l17 74h508l-15 -74l-51 -21q-37 -14 -41 -53l-96 -967q-4 -37 31 -53l55 -20l-14 -74h-508l14 74l53 18q35 14 39 55z" />
    <glyph glyph-name="Idieresis" unicode="&#xcf;" horiz-adv-x="653" 
d="M698 1675q70 0 114 -43t42 -127t-47 -128t-114 -44t-113 44t-41 129q2 85 46 127q43 42 113 42zM264 1675q68 0 112 -43t43 -127t-45 -128t-114 -44t-114 44t-42 128q0 84 46 127t114 43zM276 1114q6 43 -28 55l-60 19l17 74h508l-15 -74l-51 -21q-37 -14 -41 -53
l-96 -967q-4 -37 31 -53l55 -20l-14 -74h-508l14 74l53 18q35 14 39 55z" />
    <glyph glyph-name="Eth" unicode="&#xd0;" horiz-adv-x="1282" 
d="M598 88q127 0 228 159t124 388t-47 384t-196 155h-95l-47 -492h232l-11 -88h-229l-51 -506h92zM743 1262q285 0 435 -158t118 -468t-209 -473q-178 -163 -448 -163h-563l14 74l53 18q35 14 39 55l43 447h-80l9 88h82l43 432q6 43 -29 55l-60 19l17 74h536z" />
    <glyph glyph-name="Ntilde" unicode="&#xd1;" horiz-adv-x="1282" 
d="M956 1593q48 1 68 17t35 61h88q-9 -137 -67 -226t-162 -89q-74 0 -149 52t-139 52t-93 -65h-84q12 123 73 206q62 83 138 83t160 -46q84 -45 132 -45zM838 0l-486 1047l-88 -895q-4 -33 35 -46l119 -32l-15 -74h-329l12 74l57 26q35 16 39 52l101 1003q-41 25 -97 33
l15 74h432l457 -949l79 795q2 41 -49 51l-104 29l12 74h332l-14 -74l-62 -29q-29 -12 -35 -51l-110 -1108h-301z" />
    <glyph glyph-name="Ograve" unicode="&#xd2;" horiz-adv-x="1286" 
d="M649 51q111 0 196 161t111 417t-24 418q-49 161 -164 161t-199 -158q-83 -158 -109 -415q-26 -258 22 -421t167 -163zM644 -31q-263 0 -413 179q-151 178 -121 468t222 484t446 192q254 0 405 -179t120 -477t-213 -482t-446 -185zM496 1446l86 248q96 -23 212 -118
t136 -171l-35 -72z" />
    <glyph glyph-name="Oacute" unicode="&#xd3;" horiz-adv-x="1286" 
d="M649 51q111 0 196 161t111 417t-24 418q-49 161 -164 161t-199 -158q-83 -158 -109 -415q-26 -258 22 -421t167 -163zM644 -31q-263 0 -413 179q-151 178 -121 468t222 484t446 192q254 0 405 -179t120 -477t-213 -482t-446 -185zM1047 1446l-420 -113l-23 72
q37 76 172 170t234 119z" />
    <glyph glyph-name="Ocircumflex" unicode="&#xd4;" horiz-adv-x="1286" 
d="M649 51q111 0 196 161t111 417t-24 418q-49 161 -164 161t-199 -158q-83 -158 -109 -415q-26 -258 22 -421t167 -163zM644 -31q-263 0 -413 179q-151 178 -121 468t222 484t446 192q254 0 405 -179t120 -477t-213 -482t-446 -185zM539 1343l-45 82q131 152 256 232h94
q129 -111 209 -232l-62 -82l-223 99z" />
    <glyph glyph-name="Otilde" unicode="&#xd5;" horiz-adv-x="1286" 
d="M979 1593q47 1 67 17t35 61h88q-10 -137 -67 -226t-162 -89q-74 0 -148 52t-140 52q-64 0 -93 -65h-84q11 123 73 206t138 83t161 -46q85 -45 132 -45zM649 51q111 0 196 161t111 417t-24 418q-49 161 -164 161t-199 -158q-83 -158 -109 -415q-26 -258 22 -421t167 -163z
M644 -31q-263 0 -413 179q-151 178 -121 468t222 484t446 192q254 0 405 -179t120 -477t-213 -482t-446 -185z" />
    <glyph glyph-name="Odieresis" unicode="&#xd6;" horiz-adv-x="1286" 
d="M1006 1675q70 0 114 -43t41 -127q-2 -84 -47 -128t-114 -44q-68 0 -112 44t-42 129t46 127t114 42zM570 1675q68 0 113 -43q44 -43 43 -127t-45 -128t-114 -44q-69 0 -113 44t-42 128q0 84 45 127t113 43zM649 51q111 0 196 161t111 417t-24 418q-49 161 -164 161
t-199 -158q-83 -158 -109 -415q-26 -258 22 -421t167 -163zM644 -31q-263 0 -413 179q-151 178 -121 468t222 484t446 192q254 0 405 -179t120 -477t-213 -482t-446 -185z" />
    <glyph glyph-name="multiply" unicode="&#xd7;" horiz-adv-x="780" 
d="M240 127l-131 164l182 178l-156 188l176 172l156 -188l180 176l131 -162l-178 -174l148 -180l-177 -176l-149 182z" />
    <glyph glyph-name="Oslash" unicode="&#xd8;" horiz-adv-x="1290" 
d="M651 51q111 0 196 161t109 413q16 156 5 272l-484 -657q49 -189 174 -189zM766 1208q-111 0 -195 -157q-83 -158 -105 -369t-5 -348l485 661q-47 213 -180 213zM643 -31q-170 0 -303 84l-150 -205h-88l183 246q-207 182 -170 527q27 285 219 479t440 192q184 0 322 -96
l153 209h86l-186 -254q189 -181 157 -497t-214 -500t-449 -185z" />
    <glyph glyph-name="Ugrave" unicode="&#xd9;" horiz-adv-x="1177" 
d="M653 -31q-274 1 -385 105t-84 377l68 663q2 43 -29 55l-59 19l16 74h549l-14 -74l-94 -21q-37 -6 -39 -53l-82 -817q-25 -233 215 -234q210 0 276 262q18 71 27 162l63 627q2 43 -28 55l-88 19l14 74h289l-15 -74l-51 -21q-37 -14 -41 -53l-59 -606q-27 -268 -131 -404
t-318 -135zM547 1446l86 248q96 -23 212 -118t136 -171l-35 -72z" />
    <glyph glyph-name="Uacute" unicode="&#xda;" horiz-adv-x="1177" 
d="M1139 1446l-420 -113l-23 72q37 76 172 170t234 119zM653 -31q-274 1 -385 105t-84 377l68 663q2 43 -29 55l-59 19l16 74h549l-14 -74l-94 -21q-37 -6 -39 -53l-82 -817q-25 -233 215 -234q210 0 276 262q18 71 27 162l63 627q2 43 -28 55l-88 19l14 74h289l-15 -74
l-51 -21q-37 -14 -41 -53l-59 -606q-27 -268 -131 -404t-318 -135z" />
    <glyph glyph-name="Ucircumflex" unicode="&#xdb;" horiz-adv-x="1177" 
d="M653 -31q-274 1 -385 105t-84 377l68 663q2 43 -29 55l-59 19l16 74h549l-14 -74l-94 -21q-37 -6 -39 -53l-82 -817q-25 -233 215 -234q210 0 276 262q18 71 27 162l63 627q2 43 -28 55l-88 19l14 74h289l-15 -74l-51 -21q-37 -14 -41 -53l-59 -606q-27 -268 -131 -404
t-318 -135zM590 1343l-45 82q131 152 256 232h94q129 -111 209 -232l-62 -82l-223 99z" />
    <glyph glyph-name="Udieresis" unicode="&#xdc;" horiz-adv-x="1177" 
d="M1036 1675q70 0 114 -43t42 -127t-47 -128t-114 -44t-113 44t-41 129q2 85 46 127q43 42 113 42zM601 1675q69 0 113 -43t43 -127t-45 -128t-114 -44t-114 44t-42 128q0 84 45 127t114 43zM653 -31q-274 1 -385 105t-84 377l68 663q2 43 -29 55l-59 19l16 74h549l-14 -74
l-94 -21q-37 -6 -39 -53l-82 -817q-25 -233 215 -234q210 0 276 262q18 71 27 162l63 627q2 43 -28 55l-88 19l14 74h289l-15 -74l-51 -21q-37 -14 -41 -53l-59 -606q-27 -268 -131 -404t-318 -135z" />
    <glyph glyph-name="Yacute" unicode="&#xdd;" 
d="M1130 1446l-419 -113l-23 72q37 76 172 170t234 119zM616 1169q-32 -8 -38 -18t4 -43l192 -471l291 477q31 49 -18 55l-132 19l15 74h346l-14 -74l-27 -12q-51 -18 -78 -64l-371 -606l-34 -359q-4 -39 28 -53l56 -20l-15 -74h-506l17 74l51 18q35 14 37 55l35 340
l-258 611q-21 63 -52 76l-32 14l12 74h592l-12 -74z" />
    <glyph glyph-name="Thorn" unicode="&#xde;" horiz-adv-x="1099" 
d="M655 952h-65l-62 -610h60q160 0 190 320q31 290 -123 290zM719 1040q211 0 330 -99t99 -285t-162 -295q-142 -108 -363 -107h-103l-10 -107q-4 -37 31 -53l49 -20l-17 -74h-499l14 74l53 18q35 14 39 55l96 967q6 43 -28 55l-60 19l17 74h508l-15 -74l-51 -21
q-37 -14 -41 -53l-8 -74h121z" />
    <glyph glyph-name="germandbls" unicode="&#xdf;" horiz-adv-x="1146" 
d="M799 -31q-186 0 -279 117q16 117 70 199h106l2 -176q29 -14 84 -15q23 0 39 26q17 26 21 66q8 67 -92 171q-41 41 -81 91q-98 121 -81 279q8 74 45 135t77 97q40 37 76 91q71 109 23 220q-23 51 -89 51t-114 -74q-49 -74 -63 -219l-107 -1028l-317 -27l86 861h-70l15 88
h65l6 59q19 201 155 311t334 111q198 0 307 -65q110 -65 95 -201q-6 -68 -36 -117t-62 -73q-86 -65 -95 -179q-10 -113 82 -210q39 -40 78 -81q93 -97 80 -230q-11 -132 -113 -205t-247 -73z" />
    <glyph glyph-name="agrave" unicode="&#xe0;" horiz-adv-x="1075" 
d="M434 1341l203 175q63 -60 104 -182t37 -228l-73 -47zM428 403q0 -241 100 -241q49 0 129 100l66 635l-43 2q-74 0 -127 -58q-53 -59 -79 -151q-46 -164 -46 -287zM373 -31q-117 1 -200 107t-83 301q0 256 166 429t416 173q156 0 366 -88l-71 -721q-6 -53 32 -47l60 10
l20 -72q-172 -68 -307 -92q-50 13 -70 61t-26 132q-150 -193 -303 -193z" />
    <glyph glyph-name="aacute" unicode="&#xe1;" horiz-adv-x="1075" 
d="M991 1350l-325 -283l-66 47q16 106 82 227t141 183zM428 403q0 -241 100 -241q49 0 129 100l66 635l-43 2q-74 0 -127 -58q-53 -59 -79 -151q-46 -164 -46 -287zM373 -31q-117 1 -200 107t-83 301q0 256 166 429t416 173q156 0 366 -88l-71 -721q-6 -53 32 -47l60 10
l20 -72q-172 -68 -307 -92q-50 13 -70 61t-26 132q-150 -193 -303 -193z" />
    <glyph glyph-name="acircumflex" unicode="&#xe2;" horiz-adv-x="1075" 
d="M346 1120q141 227 301 357h76q137 -125 229 -355l-65 -61l-225 194l-261 -194zM428 403q0 -241 100 -241q49 0 129 100l66 635l-43 2q-74 0 -127 -58q-53 -59 -79 -151q-46 -164 -46 -287zM373 -31q-117 1 -200 107t-83 301q0 256 166 429t416 173q156 0 366 -88
l-71 -721q-6 -53 32 -47l60 10l20 -72q-172 -68 -307 -92q-50 13 -70 61t-26 132q-150 -193 -303 -193z" />
    <glyph glyph-name="atilde" unicode="&#xe3;" horiz-adv-x="1075" 
d="M571 1395q59 0 135 -46t116 -46t58 16q17 16 31 63h90q-2 -121 -62 -217t-167 -96q-61 0 -126 52q-65 53 -122 53t-90 -74h-80q6 121 70 208t147 87zM428 403q0 -241 100 -241q49 0 129 100l66 635l-43 2q-74 0 -127 -58q-53 -59 -79 -151q-46 -164 -46 -287zM373 -31
q-117 1 -200 107t-83 301q0 256 166 429t416 173q156 0 366 -88l-71 -721q-6 -53 32 -47l60 10l20 -72q-172 -68 -307 -92q-50 13 -70 61t-26 132q-150 -193 -303 -193z" />
    <glyph glyph-name="adieresis" unicode="&#xe4;" horiz-adv-x="1075" 
d="M876 1397q72 0 116 -44t42 -130t-47 -131t-116 -45t-115 45t-43 132q2 87 47 130t116 43zM440 1397q70 0 114 -43t43 -130t-46 -132t-116 -45t-117 45t-44 132t48 130q48 43 118 43zM428 403q0 -241 100 -241q49 0 129 100l66 635l-43 2q-74 0 -127 -58q-53 -59 -79 -151
q-46 -164 -46 -287zM373 -31q-117 1 -200 107t-83 301q0 256 166 429t416 173q156 0 366 -88l-71 -721q-6 -53 32 -47l60 10l20 -72q-172 -68 -307 -92q-50 13 -70 61t-26 132q-150 -193 -303 -193z" />
    <glyph glyph-name="aring" unicode="&#xe5;" horiz-adv-x="1075" 
d="M670 1192q42 0 72 30t30 85t-28 84t-72 29t-74 -32q-31 -32 -31 -83q-1 -113 103 -113zM428 403q0 -241 100 -241q49 0 129 100l66 635l-43 2q-74 0 -127 -58q-53 -59 -79 -151q-46 -164 -46 -287zM660 1061q-110 0 -172 68q-62 69 -60 177t70 180q68 70 173 70t172 -70
t65 -177q-2 -106 -70 -177t-178 -71zM373 -31q-117 1 -200 107t-83 301q0 256 166 429t416 173q156 0 366 -88l-71 -721q-6 -53 32 -47l60 10l20 -72q-172 -68 -307 -92q-50 13 -70 61t-26 132q-150 -193 -303 -193z" />
    <glyph glyph-name="ae" unicode="&#xe6;" horiz-adv-x="1468" 
d="M582 401v39q-168 -74 -185 -231q-5 -47 15 -75t76 -28t155 52q-61 98 -61 243zM1087 893q-59 0 -101 -122t-46 -304q82 31 146 105t65 192q0 55 -17 92q-18 37 -47 37zM1487 737q0 -141 -154 -231t-393 -127q8 -133 61 -208t131 -75t142 38q63 38 141 118l58 -59
q-160 -223 -441 -224q-227 0 -346 129q-184 -129 -373 -129q-119 -1 -191 53t-61 180q13 126 107 194t183 83q89 16 237 37l10 98q16 158 -2 223t-88 64q-51 0 -123 -16l-80 -246h-102q-43 98 -39 254q193 86 383 86q143 0 246 -109q137 109 312 109t279 -70t103 -172z" />
    <glyph glyph-name="ccedilla" unicode="&#xe7;" horiz-adv-x="888" 
d="M385 -291q57 0 66 80q6 63 -91 64l56 122q-166 29 -253 164t-65 355t154 352q131 133 344 133t360 -98q-31 -139 -102 -267h-90l-27 260q-39 25 -90 25q-82 0 -139 -111q-58 -111 -76 -297t26 -300t140 -113q45 0 90 26t64 42q18 17 69 71l47 -43q-86 -104 -166 -154
t-210 -51l-29 -67q195 8 181 -126q-8 -66 -70 -115q-62 -48 -154 -48t-146 49l41 76q49 -29 70 -29z" />
    <glyph glyph-name="egrave" unicode="&#xe8;" horiz-adv-x="978" 
d="M598 893q-59 0 -101 -122t-46 -304q83 31 147 105t64 192q0 55 -18 92t-46 37zM377 1341l203 175q63 -60 104 -182t37 -228l-74 -47zM997 737q1 -141 -153 -231t-393 -127q8 -133 61 -208t131 -75t141 38t142 118l57 -59q-160 -223 -440 -224q-211 0 -331 116t-120 316
q0 244 148 411t389 167q162 0 265 -70t103 -172z" />
    <glyph glyph-name="eacute" unicode="&#xe9;" horiz-adv-x="978" 
d="M598 893q-59 0 -101 -122t-46 -304q83 31 147 105t64 192q0 55 -18 92t-46 37zM909 1350l-325 -283l-66 47q16 106 82 227t141 183zM997 737q1 -141 -153 -231t-393 -127q8 -133 61 -208t131 -75t141 38t142 118l57 -59q-160 -223 -440 -224q-211 0 -331 116t-120 316
q0 244 148 411t389 167q162 0 265 -70t103 -172z" />
    <glyph glyph-name="ecircumflex" unicode="&#xea;" horiz-adv-x="978" 
d="M598 893q-59 0 -101 -122t-46 -304q83 31 147 105t64 192q0 55 -18 92t-46 37zM328 1120q141 227 301 357h76q137 -125 229 -355l-66 -61l-225 194l-260 -194zM997 737q1 -141 -153 -231t-393 -127q8 -133 61 -208t131 -75t141 38t142 118l57 -59q-160 -223 -440 -224
q-211 0 -331 116t-120 316q0 244 148 411t389 167q162 0 265 -70t103 -172z" />
    <glyph glyph-name="edieresis" unicode="&#xeb;" horiz-adv-x="978" 
d="M598 893q-59 0 -101 -122t-46 -304q83 31 147 105t64 192q0 55 -18 92t-46 37zM837 1397q71 0 115 -44t43 -130q-2 -86 -47 -131q-46 -45 -116 -45t-115 45t-43 132t47 130t116 43zM400 1397q70 0 115 -43q44 -43 43 -130t-46 -132t-116 -45q-70 0 -116 45t-44 132
t48 130t116 43zM997 737q1 -141 -153 -231t-393 -127q8 -133 61 -208t131 -75t141 38t142 118l57 -59q-160 -223 -440 -224q-211 0 -331 116t-120 316q0 244 148 411t389 167q162 0 265 -70t103 -172z" />
    <glyph glyph-name="igrave" unicode="&#xec;" horiz-adv-x="587" 
d="M168 1343l203 175q63 -60 104 -182t37 -228l-74 -47zM580 61q-170 -68 -310 -92q-59 15 -94 73t-26 138l63 594q4 45 -45 62l-43 14l12 72q195 49 350 57h43q8 -88 -2 -203l-61 -606q-6 -53 33 -47l59 10z" />
    <glyph glyph-name="iacute" unicode="&#xed;" horiz-adv-x="585" 
d="M580 61q-170 -68 -310 -92q-59 15 -94 73t-26 138l63 594q4 45 -45 62l-43 14l12 72q195 49 350 57h43q8 -88 -2 -203l-61 -606q-6 -53 33 -47l59 10zM725 1352l-326 -283l-65 47q16 106 82 227t141 183z" />
    <glyph glyph-name="icircumflex" unicode="&#xee;" horiz-adv-x="587" 
d="M580 61q-170 -68 -310 -92q-59 15 -94 73t-26 138l63 594q4 45 -45 62l-43 14l12 72q195 49 350 57h43q8 -88 -2 -203l-61 -606q-6 -53 33 -47l59 10zM80 1122q141 227 301 357h76q137 -125 229 -355l-65 -61l-226 194l-260 -194z" />
    <glyph glyph-name="idieresis" unicode="&#xef;" horiz-adv-x="585" 
d="M580 61q-170 -68 -310 -92q-59 15 -94 73t-26 138l63 594q4 45 -45 62l-43 14l12 72q195 49 350 57h43q8 -88 -2 -203l-61 -606q-6 -53 33 -47l59 10zM612 1399q70 0 115 -44t43 -130t-47 -131t-116 -45t-115 45t-43 132q2 87 47 130q46 43 116 43zM175 1399
q71 0 115 -43t43 -130t-46 -132t-116 -45t-117 45t-44 132t48 130t117 43z" />
    <glyph glyph-name="eth" unicode="&#xf0;" horiz-adv-x="1079" 
d="M674 887q-201 0 -244 -426q-18 -180 6 -295t99 -115q147 1 192 484q25 223 27 344q-41 8 -80 8zM569 1296q-113 0 -207 -47l-22 90q137 63 281 64q82 0 159 -39l156 145l51 -73l-131 -123q122 -102 180 -297q58 -194 34 -442t-175 -427q-151 -178 -365 -178
q-214 1 -335 143t-99 367t170 363q147 138 363 137q16 0 125 -16q-6 139 -39 217l-119 -113l-55 72l125 118q-39 39 -97 39z" />
    <glyph glyph-name="ntilde" unicode="&#xf1;" horiz-adv-x="1107" 
d="M588 1395q59 0 135 -46t116 -46t57 16t32 63h90q-2 -121 -62 -217t-168 -96q-62 0 -126 52q-64 53 -121 53t-90 -74h-80q6 121 69 208t148 87zM877 979q113 0 145 -92t12 -307l-41 -410q-6 -53 33 -47l61 10l19 -72l-318 -92q-66 0 -96 39t-18 162l37 352q25 244 -31 244
q-22 0 -52 -23t-49 -47t-67 -78l-61 -618l-322 -27l80 799q4 45 -45 62l-43 14l16 74q195 49 350 57h43q8 -88 -2 -203l-2 -24q197 227 351 227z" />
    <glyph glyph-name="ograve" unicode="&#xf2;" horiz-adv-x="1007" 
d="M375 1341l203 175q63 -60 104 -182t37 -228l-74 -47zM504 35q131 0 174 442q20 174 0 305t-86 131q-117 0 -160 -439t72 -439zM501 -31q-202 -1 -315 145q-114 146 -92 367t164 359t344 139q203 0 319 -137q116 -138 93 -362t-167 -368t-346 -143z" />
    <glyph glyph-name="oacute" unicode="&#xf3;" horiz-adv-x="1007" 
d="M504 35q131 0 174 442q20 174 0 305t-86 131q-117 0 -160 -439t72 -439zM501 -31q-202 -1 -315 145q-114 146 -92 367t164 359t344 139q203 0 319 -137q116 -138 93 -362t-167 -368t-346 -143zM911 1350l-325 -283l-66 47q16 106 82 227t141 183z" />
    <glyph glyph-name="ocircumflex" unicode="&#xf4;" horiz-adv-x="1007" 
d="M504 35q131 0 174 442q20 174 0 305t-86 131q-117 0 -160 -439t72 -439zM501 -31q-202 -1 -315 145q-114 146 -92 367t164 359t344 139q203 0 319 -137q116 -138 93 -362t-167 -368t-346 -143zM307 1120q141 227 301 357h76q137 -125 229 -355l-65 -61l-225 194
l-261 -194z" />
    <glyph glyph-name="otilde" unicode="&#xf5;" horiz-adv-x="1007" 
d="M512 1395q59 0 135 -46t116 -46t57 16t32 63h90q-2 -121 -62 -217t-167 -96q-61 0 -126 52q-65 53 -122 53t-90 -74h-80q5 121 69 208t148 87zM504 35q131 0 174 442q20 174 0 305t-86 131q-117 0 -160 -439t72 -439zM501 -31q-202 -1 -315 145q-114 146 -92 367t164 359
t344 139q203 0 319 -137q116 -138 93 -362t-167 -368t-346 -143z" />
    <glyph glyph-name="odieresis" unicode="&#xf6;" horiz-adv-x="1007" 
d="M504 35q131 0 174 442q20 174 0 305t-86 131q-117 0 -160 -439t72 -439zM501 -31q-202 -1 -315 145q-114 146 -92 367t164 359t344 139q203 0 319 -137q116 -138 93 -362t-167 -368t-346 -143zM837 1397q71 0 115 -44t43 -130q-2 -86 -47 -131q-46 -45 -116 -45t-115 45
t-43 132t47 130t116 43zM400 1397q70 0 115 -43q44 -43 43 -130t-46 -132t-116 -45q-70 0 -116 45t-44 132t48 130t116 43z" />
    <glyph glyph-name="divide" unicode="&#xf7;" horiz-adv-x="790" 
d="M90 348l23 217h682l-23 -217h-682zM490 950q66 0 109 -49q42 -49 34 -121q-7 -72 -59 -122t-118 -50t-106 50q-41 50 -33 123q7 73 57 121t116 48zM426 311q66 0 110 -49q42 -49 34 -121t-60 -122q-51 -50 -117 -50q-67 0 -107 50t-32 123t57 121t115 48z" />
    <glyph glyph-name="oslash" unicode="&#xf8;" horiz-adv-x="1013" 
d="M434 479q-8 -92 -10 -127l262 367q-10 195 -92 194q-117 0 -160 -434zM506 35q131 0 174 442q8 98 8 141l-266 -372q6 -211 84 -211zM498 -31q-127 0 -226 66l-133 -187h-73l159 224q-156 147 -127 407q20 223 162 361t340 139q133 0 229 -59l132 184h73l-155 -219
q164 -139 137 -406q-23 -223 -167 -367t-351 -143z" />
    <glyph glyph-name="ugrave" unicode="&#xf9;" horiz-adv-x="1103" 
d="M442 1341l203 175q63 -60 105 -182t36 -228l-73 -47zM322 -31q-113 0 -146 92t-12 308l39 395q4 49 -27 65l-47 23l12 72q180 47 332 55h51q14 -57 4 -143l-41 -410q-25 -244 31 -244q33 0 69 35t99 113q18 206 62 618h317l-78 -778q-6 -53 33 -47l59 10l21 -72
q-170 -68 -309 -92q-59 15 -95 73t-26 138q0 6 2 15q-194 -226 -350 -226z" />
    <glyph glyph-name="uacute" unicode="&#xfa;" horiz-adv-x="1103" 
d="M938 1350l-326 -283l-65 47q16 106 82 227t141 183zM322 -31q-113 0 -146 92t-12 308l39 395q4 49 -27 65l-47 23l12 72q180 47 332 55h51q14 -57 4 -143l-41 -410q-25 -244 31 -244q33 0 69 35t99 113q18 206 62 618h317l-78 -778q-6 -53 33 -47l59 10l21 -72
q-170 -68 -309 -92q-59 15 -95 73t-26 138q0 6 2 15q-194 -226 -350 -226z" />
    <glyph glyph-name="ucircumflex" unicode="&#xfb;" horiz-adv-x="1103" 
d="M354 1120q141 227 301 357h76q137 -125 230 -355l-66 -61l-225 194l-260 -194zM322 -31q-113 0 -146 92t-12 308l39 395q4 49 -27 65l-47 23l12 72q180 47 332 55h51q14 -57 4 -143l-41 -410q-25 -244 31 -244q33 0 69 35t99 113q18 206 62 618h317l-78 -778
q-6 -53 33 -47l59 10l21 -72q-170 -68 -309 -92q-59 15 -95 73t-26 138q0 6 2 15q-194 -226 -350 -226z" />
    <glyph glyph-name="udieresis" unicode="&#xfc;" horiz-adv-x="1103" 
d="M884 1397q72 0 116 -44t42 -130t-47 -131t-115 -45t-116 45q-45 45 -43 132t47 130t116 43zM448 1397q70 0 114 -43t43 -130t-46 -132t-116 -45t-117 45t-43 132q2 87 48 130t117 43zM322 -31q-113 0 -146 92t-12 308l39 395q4 49 -27 65l-47 23l12 72q180 47 332 55h51
q14 -57 4 -143l-41 -410q-25 -244 31 -244q33 0 69 35t99 113q18 206 62 618h317l-78 -778q-6 -53 33 -47l59 10l21 -72q-170 -68 -309 -92q-59 15 -95 73t-26 138q0 6 2 15q-194 -226 -350 -226z" />
    <glyph glyph-name="yacute" unicode="&#xfd;" horiz-adv-x="966" 
d="M954 1350l-325 -283l-66 47q16 106 82 227t141 183zM418 979h39q35 -57 49 -131l133 -680q125 154 199 318t74 250q0 87 -27 108l-146 20l-6 54q51 41 129 61q137 0 144 -195q0 -133 -100 -343q-100 -211 -303 -447q-202 -236 -443 -385l-76 145q209 111 324 195l-58 39
l-182 839q-4 31 -39 39l-49 11l16 71q139 31 322 31z" />
    <glyph glyph-name="thorn" unicode="&#xfe;" horiz-adv-x="1015" 
d="M592 866q-37 0 -88 -47l-74 -735q41 -16 76 -16q129 0 170 399t-84 399zM711 979q157 0 243 -121t64 -350q-29 -274 -153 -406t-312 -133q-68 0 -133 25l-25 -252q0 -27 21 -33l71 -22l-12 -74h-498l13 74l43 18q41 16 47 57l143 1430q6 51 -28 65l-48 23l15 72
q178 49 332 55h49q16 -55 6 -141l-37 -359q86 72 199 72z" />
    <glyph glyph-name="ydieresis" unicode="&#xff;" horiz-adv-x="966" 
d="M855 1397q71 0 116 -44t43 -130t-47 -131t-116 -45t-116 45t-43 132t47 130t116 43zM419 1397q71 0 115 -43t42 -130t-46 -132q-46 -45 -116 -45t-116 45t-44 132t48 130t117 43zM418 979h39q35 -57 49 -131l133 -680q125 154 199 318t74 250q0 87 -27 108l-146 20l-6 54
q51 41 129 61q137 0 144 -195q0 -133 -100 -343q-100 -211 -303 -447q-202 -236 -443 -385l-76 145q209 111 324 195l-58 39l-182 839q-4 31 -39 39l-49 11l16 71q139 31 322 31z" />
    <glyph glyph-name="Amacron" unicode="&#x100;" horiz-adv-x="1071" 
d="M487 885l-188 -445h287zM356 1405l23 219h610l-22 -219h-611zM647 160l-43 192h-342l-80 -192q-12 -35 -5 -48t36 -18l90 -20l-14 -74h-320l13 74l67 20q23 10 43 58l467 1110h207l244 -1090q14 -63 45 -78l57 -20l-14 -74h-625l12 74l111 20q61 15 51 66z" />
    <glyph glyph-name="amacron" unicode="&#x101;" horiz-adv-x="1075" 
d="M340 1075l20 219h596l-20 -219h-596zM428 403q0 -241 100 -241q49 0 129 100l66 635l-43 2q-74 0 -127 -58q-53 -59 -79 -151q-46 -164 -46 -287zM373 -31q-117 1 -200 107t-83 301q0 256 166 429t416 173q156 0 366 -88l-71 -721q-6 -53 32 -47l60 10l20 -72
q-172 -68 -307 -92q-50 13 -70 61t-26 132q-150 -193 -303 -193z" />
    <glyph glyph-name="Abreve" unicode="&#x102;" horiz-adv-x="1071" 
d="M487 885l-188 -445h287zM679 1567q77 0 137 35t77 77h94q-10 -131 -102 -229q-93 -98 -233 -98t-207 97q-66 97 -52 230h94q7 -43 61 -77t131 -35zM647 160l-43 192h-342l-80 -192q-12 -35 -5 -48t36 -18l90 -20l-14 -74h-320l13 74l67 20q23 10 43 58l467 1110h207
l244 -1090q14 -63 45 -78l57 -20l-14 -74h-625l12 74l111 20q61 15 51 66z" />
    <glyph glyph-name="abreve" unicode="&#x103;" horiz-adv-x="1075" 
d="M663 1251q67 0 119 39t74 82h72q0 -143 -84 -232t-198 -89t-184 89t-42 232h72q6 -41 55 -81t116 -40zM428 403q0 -241 100 -241q49 0 129 100l66 635l-43 2q-74 0 -127 -58q-53 -59 -79 -151q-46 -164 -46 -287zM373 -31q-117 1 -200 107t-83 301q0 256 166 429t416 173
q156 0 366 -88l-71 -721q-6 -53 32 -47l60 10l20 -72q-172 -68 -307 -92q-50 13 -70 61t-26 132q-150 -193 -303 -193z" />
    <glyph glyph-name="Aogonek" unicode="&#x104;" horiz-adv-x="1071" 
d="M487 885l-188 -445h287zM985 -301q35 0 70 27l28 -60q-78 -68 -198 -67q-78 0 -131 50t-45 132q14 143 211 219h-447l12 74l111 20q61 15 51 66l-43 192h-342l-80 -192q-12 -35 -5 -48t36 -18l90 -20l-14 -74h-320l13 74l67 20q23 10 43 58l467 1110h207l244 -1090
q14 -63 45 -78l57 -20l-14 -74q-90 -47 -131 -87t-47 -112q-10 -102 65 -102z" />
    <glyph glyph-name="aogonek" unicode="&#x105;" horiz-adv-x="1075" 
d="M428 403q0 -241 100 -241q49 0 129 100l66 635l-43 2q-74 0 -127 -58q-53 -59 -79 -151q-46 -164 -46 -287zM799 -365q-78 1 -131 51t-43 143t110 159q-49 39 -59 174q-150 -193 -303 -193q-117 1 -200 107t-83 301q0 256 166 429t416 173q156 0 366 -88l-71 -721
q-6 -53 32 -47l60 10l20 -72l-88 -32q-79 -41 -115 -82t-42 -109q-10 -102 65 -102q35 -1 70 26l28 -59q-78 -68 -198 -68z" />
    <glyph glyph-name="Cacute" unicode="&#x106;" horiz-adv-x="1165" 
d="M1102 1446l-420 -113l-23 72q37 76 172 170t234 119zM843 1292q284 0 425 -106q-33 -152 -107 -279h-104l-31 283q-70 18 -106 18q-168 0 -302 -176t-158 -427t71 -403t257 -151q23 0 76 12l144 267h129q-4 -186 -47 -307q-160 -53 -359 -54q-319 0 -483 166
q-164 167 -132 485t237 495q206 177 490 177z" />
    <glyph glyph-name="cacute" unicode="&#x107;" horiz-adv-x="888" 
d="M494 -31q-199 1 -310 141t-87 372t155 364q131 133 344 133t360 -98q-31 -139 -102 -267h-90l-27 260q-39 25 -90 25q-82 0 -139 -111q-58 -111 -76 -297t26 -300t140 -113q45 0 90 26t64 42q18 18 69 71l47 -43q-86 -104 -166 -154t-208 -51zM932 1350l-326 -283l-65 47
q16 106 82 227t141 183z" />
    <glyph glyph-name="Ccircumflex" unicode="&#x108;" horiz-adv-x="1165" 
d="M645 1343l-45 82q131 152 256 232h94q129 -111 209 -232l-61 -82l-224 99zM843 1292q284 0 425 -106q-33 -152 -107 -279h-104l-31 283q-70 18 -106 18q-168 0 -302 -176t-158 -427t71 -403t257 -151q23 0 76 12l144 267h129q-4 -186 -47 -307q-160 -53 -359 -54
q-319 0 -483 166q-164 167 -132 485t237 495q206 177 490 177z" />
    <glyph glyph-name="ccircumflex" unicode="&#x109;" horiz-adv-x="888" 
d="M494 -31q-199 1 -310 141t-87 372t155 364q131 133 344 133t360 -98q-31 -139 -102 -267h-90l-27 260q-39 25 -90 25q-82 0 -139 -111q-58 -111 -76 -297t26 -300t140 -113q45 0 90 26t64 42q18 18 69 71l47 -43q-86 -104 -166 -154t-208 -51zM328 1120q141 227 301 357
h76q137 -125 229 -355l-66 -61l-225 194l-260 -194z" />
    <glyph glyph-name="Cdotaccent" unicode="&#x10a;" horiz-adv-x="1165" 
d="M843 1292q284 0 425 -106q-33 -152 -107 -279h-104l-31 283q-70 18 -106 18q-168 0 -302 -176t-158 -427t71 -403t257 -151q23 0 76 12l144 267h129q-4 -186 -47 -307q-160 -53 -359 -54q-319 0 -483 166q-164 167 -132 485t237 495q206 177 490 177zM828 1700
q70 0 113 -43q44 -43 43 -128t-46 -129t-114 -44q-68 0 -112 44t-43 129t45 128t114 43z" />
    <glyph glyph-name="cdotaccent" unicode="&#x10b;" horiz-adv-x="888" 
d="M647 1393q70 0 115 -43t43 -128t-47 -130t-115 -45t-114 45t-43 130t46 128t115 43zM494 -31q-199 1 -310 141t-87 372t155 364q131 133 344 133t360 -98q-31 -139 -102 -267h-90l-27 260q-39 25 -90 25q-82 0 -139 -111q-58 -111 -76 -297t26 -300t140 -113q45 0 90 26
t64 42q18 18 69 71l47 -43q-86 -104 -166 -154t-208 -51z" />
    <glyph glyph-name="Ccaron" unicode="&#x10c;" horiz-adv-x="1165" 
d="M621 1675l210 -98l242 98l45 -82q-96 -113 -256 -231h-94q-66 47 -109 96t-100 135zM843 1292q284 0 425 -106q-33 -152 -107 -279h-104l-31 283q-70 18 -106 18q-168 0 -302 -176t-158 -427t71 -403t257 -151q23 0 76 12l144 267h129q-4 -186 -47 -307
q-160 -53 -359 -54q-319 0 -483 166q-164 167 -132 485t237 495q206 177 490 177z" />
    <glyph glyph-name="ccaron" unicode="&#x10d;" horiz-adv-x="890" 
d="M494 -31q-199 1 -310 141t-87 372t155 364q131 133 344 133t360 -98q-31 -139 -102 -267h-90l-27 260q-39 25 -90 25q-82 0 -139 -111q-58 -111 -76 -297t26 -300t140 -113q45 0 90 26t64 42q18 18 69 71l47 -43q-86 -104 -166 -154t-208 -51zM358 1415l68 60l221 -195
l264 195l54 -64q-133 -223 -299 -352h-78q-136 131 -230 356z" />
    <glyph glyph-name="Dcaron" unicode="&#x10e;" horiz-adv-x="1280" 
d="M543 1675l211 -98l241 98l45 -82q-96 -113 -256 -231h-94q-66 47 -108 96t-101 135zM705 1174h-93l-108 -1086h92q127 0 228 159t124 388q24 229 -46 384t-197 155zM741 1262q285 0 435 -158t118 -468t-209 -473q-178 -163 -448 -163h-563l14 74l53 18q35 14 39 55
l96 967q6 43 -28 55l-60 19l17 74h536z" />
    <glyph glyph-name="dcaron" unicode="&#x10f;" horiz-adv-x="1204" 
d="M1340 1405q68 0 109 -47q40 -47 32 -131q-15 -147 -115 -267t-260 -159l-6 78q96 37 144 75t79 107q-78 -2 -122 41t-36 128q7 85 57 130t118 45zM428 403q0 -243 100 -243q47 0 131 104q14 135 66 633l-45 2q-74 0 -127 -58q-53 -59 -79 -151q-46 -164 -46 -287z
M373 -33q-117 0 -200 108t-83 302q0 256 166 429t416 173q20 0 61 -4l23 227q4 55 -45 62l-109 14l12 72q178 45 416 57h43q8 -88 -2 -203l-104 -1034q-6 -53 32 -47l60 10l20 -72q-172 -68 -307 -92q-50 13 -70 61t-26 132q-152 -195 -303 -195z" />
    <glyph glyph-name="Dcroat" unicode="&#x110;" horiz-adv-x="1282" 
d="M598 88q127 0 228 159t124 388t-47 384t-196 155h-95l-47 -492h232l-11 -88h-229l-51 -506h92zM743 1262q285 0 435 -158t118 -468t-209 -473q-178 -163 -448 -163h-563l14 74l53 18q35 14 39 55l43 447h-80l9 88h82l43 432q6 43 -29 55l-60 19l17 74h536z" />
    <glyph glyph-name="dcroat" unicode="&#x111;" horiz-adv-x="1081" 
d="M428 403q0 -243 100 -243q47 0 131 104q14 135 66 633l-45 2q-74 0 -127 -58q-53 -59 -79 -151q-46 -164 -46 -287zM373 -33q-117 0 -200 108t-83 302q0 256 166 429t416 173q20 0 61 -4l12 112h-264l8 91h265l2 24q4 55 -45 62l-109 14l12 72q178 45 416 57h43
q8 -88 -2 -203l-4 -26h113l-9 -91h-112l-92 -917q-6 -53 32 -47l60 10l20 -72q-172 -68 -307 -92q-50 13 -70 61t-26 132q-152 -195 -303 -195z" />
    <glyph glyph-name="Emacron" unicode="&#x112;" horiz-adv-x="1005" 
d="M342 1409l23 219h610l-23 -219h-610zM733 674q35 0 51 31t17 34l39 84h108l-65 -383h-90l-25 86q-2 6 -4 16l-3 15q-1 4 -3 10t-5 8q-3 3 -9 7t-21 4h-170l-49 -498h137q68 0 94 51l117 195h109q20 -158 -33 -334h-854l14 74l53 18q35 14 39 55l96 967q6 43 -26 55
l-60 19l15 74h837q12 -121 -47 -312h-110l-51 174q-8 29 -26 39t-54 11h-144l-49 -500h172z" />
    <glyph glyph-name="emacron" unicode="&#x113;" horiz-adv-x="978" 
d="M598 893q-59 0 -101 -122t-46 -304q83 31 147 105t64 192q0 55 -18 92t-46 37zM322 1075l20 219h596l-20 -219h-596zM997 737q1 -141 -153 -231t-393 -127q8 -133 61 -208t131 -75t141 38t142 118l57 -59q-160 -223 -440 -224q-211 0 -331 116t-120 316q0 244 148 411
t389 167q162 0 265 -70t103 -172z" />
    <glyph glyph-name="Ebreve" unicode="&#x114;" horiz-adv-x="1005" 
d="M665 1571q77 0 137 35t77 77h94q-11 -131 -103 -229t-232 -98t-207 97q-66 97 -52 230h94q7 -43 61 -77t131 -35zM733 674q35 0 51 31t17 34l39 84h108l-65 -383h-90l-25 86q-2 6 -4 16l-3 15q-1 4 -3 10t-5 8q-3 3 -9 7t-21 4h-170l-49 -498h137q68 0 94 51l117 195h109
q20 -158 -33 -334h-854l14 74l53 18q35 14 39 55l96 967q6 43 -26 55l-60 19l15 74h837q12 -121 -47 -312h-110l-51 174q-8 29 -26 39t-54 11h-144l-49 -500h172z" />
    <glyph glyph-name="ebreve" unicode="&#x115;" horiz-adv-x="978" 
d="M598 893q-59 0 -101 -122t-46 -304q83 31 147 105t64 192q0 55 -18 92t-46 37zM644 1251q67 0 120 39t74 82h71q0 -143 -84 -232q-83 -89 -197 -89t-184 89t-43 232h72q6 -41 55 -81t116 -40zM997 737q1 -141 -153 -231t-393 -127q8 -133 61 -208t131 -75t141 38t142 118
l57 -59q-160 -223 -440 -224q-211 0 -331 116t-120 316q0 244 148 411t389 167q162 0 265 -70t103 -172z" />
    <glyph glyph-name="Edotaccent" unicode="&#x116;" horiz-adv-x="1005" 
d="M660 1704q70 0 114 -43t42 -128q-1 -85 -46 -129t-114 -44q-68 0 -112 44t-43 129t45 128t114 43zM733 674q35 0 51 31t17 34l39 84h108l-65 -383h-90l-25 86q-2 6 -4 16l-3 15q-1 4 -3 10t-5 8q-3 3 -9 7t-21 4h-170l-49 -498h137q68 0 94 51l117 195h109
q20 -158 -33 -334h-854l14 74l53 18q35 14 39 55l96 967q6 43 -26 55l-60 19l15 74h837q12 -121 -47 -312h-110l-51 174q-8 29 -26 39t-54 11h-144l-49 -500h172z" />
    <glyph glyph-name="edotaccent" unicode="&#x117;" horiz-adv-x="978" 
d="M598 893q-59 0 -101 -122t-46 -304q83 31 147 105t64 192q0 55 -18 92t-46 37zM647 1393q70 0 115 -43t43 -128t-47 -130t-115 -45t-114 45t-43 130t46 128t115 43zM997 737q1 -141 -153 -231t-393 -127q8 -133 61 -208t131 -75t141 38t142 118l57 -59
q-160 -223 -440 -224q-211 0 -331 116t-120 316q0 244 148 411t389 167q162 0 265 -70t103 -172z" />
    <glyph glyph-name="Eogonek" unicode="&#x118;" horiz-adv-x="1005" 
d="M815 -303q35 0 70 27l28 -60q-78 -68 -198 -67q-78 0 -131 50t-45 132q14 145 215 221h-680l14 74l53 18q35 14 39 55l96 967q6 43 -26 55l-60 19l15 74h837q12 -121 -47 -312h-110l-51 174q-8 29 -26 39t-54 11h-144l-49 -500h172q35 0 51 31t17 34l39 84h108l-65 -383
h-90l-25 86q-2 6 -4 16l-3 15q-1 4 -3 10t-5 8q-3 3 -9 7t-21 4h-170l-49 -498h137q68 0 94 51l117 195h109q20 -158 -33 -334q-90 -47 -131 -88t-47 -113q-10 -102 65 -102z" />
    <glyph glyph-name="eogonek" unicode="&#x119;" horiz-adv-x="978" 
d="M596 893q-59 0 -101 -122t-46 -304q83 31 147 105t63 192q0 55 -17 92t-46 37zM90 401q0 244 148 411t389 167q162 0 265 -70t103 -172q1 -141 -153 -231t-393 -127q8 -133 61 -208t131 -75t141 38t142 118l57 -59q-92 -131 -229 -185q-96 -60 -106 -162t65 -102
q34 0 69 27l29 -60q-78 -68 -199 -67q-78 0 -131 50t-45 133t78 142q-202 8 -312 124t-110 308z" />
    <glyph glyph-name="Ecaron" unicode="&#x11a;" horiz-adv-x="1005" 
d="M453 1679l211 -98l241 98l45 -82q-96 -113 -256 -231h-94q-66 47 -108 96t-101 135zM733 674q35 0 51 31t17 34l39 84h108l-65 -383h-90l-25 86q-2 6 -4 16l-3 15q-1 4 -3 10t-5 8q-3 3 -9 7t-21 4h-170l-49 -498h137q68 0 94 51l117 195h109q20 -158 -33 -334h-854
l14 74l53 18q35 14 39 55l96 967q6 43 -26 55l-60 19l15 74h837q12 -121 -47 -312h-110l-51 174q-8 29 -26 39t-54 11h-144l-49 -500h172z" />
    <glyph glyph-name="ecaron" unicode="&#x11b;" horiz-adv-x="978" 
d="M598 893q-59 0 -101 -122t-46 -304q83 31 147 105t64 192q0 55 -18 92t-46 37zM358 1415l68 60l221 -195l264 195l54 -64q-133 -223 -299 -352h-78q-136 131 -230 356zM997 737q1 -141 -153 -231t-393 -127q8 -133 61 -208t131 -75t141 38t142 118l57 -59
q-160 -223 -440 -224q-211 0 -331 116t-120 316q0 244 148 411t389 167q162 0 265 -70t103 -172z" />
    <glyph glyph-name="Gcircumflex" unicode="&#x11c;" horiz-adv-x="1226" 
d="M948 1206q-199 0 -331 -162q-131 -162 -157 -426t57 -414q83 -151 212 -151q37 0 57 6l33 322q2 47 -31 53l-83 19l16 73h534l-14 -73l-45 -19q-45 -16 -47 -53l-35 -346q-154 -66 -422 -66q-306 1 -456 185t-121 475t223 477q195 186 508 186q250 0 411 -102
q-32 -154 -106 -283h-104l-31 287q-61 12 -68 12zM608 1343l-45 82q131 152 256 232h94q129 -111 209 -232l-61 -82l-223 99z" />
    <glyph glyph-name="gcircumflex" unicode="&#x11d;" horiz-adv-x="1044" 
d="M477 -289q198 0 281 45q33 20 35 40q4 45 -68 48l-399 41q-100 10 -158 56q-23 -27 -25 -70q-8 -74 64 -117t270 -43zM548 406q68 0 96 60t37 156t8 150q-1 123 -103 123q-56 0 -86 -65q-30 -66 -41 -184q-12 -118 5 -179t84 -61zM305 1120q141 227 301 357h76
q137 -125 229 -355l-65 -61l-225 194l-261 -194zM590 979q202 0 319 -76q68 57 201 121q-14 -139 -41 -217l-65 -16q25 -61 18 -144q-14 -145 -138 -235t-345 -90q-104 0 -187 20q-37 -33 -41 -66q-5 -33 15 -44t69 -17l373 -41q250 -29 227 -256q-12 -133 -155 -219
q-144 -86 -364 -86t-329 68q-109 69 -99 159t83 144q-33 55 -25 141q14 160 187 235q-192 80 -172 287q14 143 140 237q127 94 329 95z" />
    <glyph glyph-name="Gbreve" unicode="&#x11e;" horiz-adv-x="1226" 
d="M826 1567q77 0 138 35q60 35 76 77h95q-11 -131 -103 -229t-232 -98t-207 97q-66 97 -52 230h94q6 -43 60 -77t131 -35zM948 1206q-199 0 -331 -162q-131 -162 -157 -426t57 -414q83 -151 212 -151q37 0 57 6l33 322q2 47 -31 53l-83 19l16 73h534l-14 -73l-45 -19
q-45 -16 -47 -53l-35 -346q-154 -66 -422 -66q-306 1 -456 185t-121 475t223 477q195 186 508 186q250 0 411 -102q-32 -154 -106 -283h-104l-31 287q-61 12 -68 12z" />
    <glyph glyph-name="gbreve" unicode="&#x11f;" horiz-adv-x="1044" 
d="M477 -289q198 0 281 45q33 20 35 40q4 45 -68 48l-399 41q-100 10 -158 56q-23 -27 -25 -70q-8 -74 64 -117t270 -43zM548 406q68 0 96 60t37 156t8 150q-1 123 -103 123q-56 0 -86 -65q-30 -66 -41 -184q-12 -118 5 -179t84 -61zM636 1251q67 0 120 39t73 82h72
q0 -143 -84 -232q-83 -89 -197 -89t-184 89t-43 232h72q6 -41 55 -81t116 -40zM590 979q202 0 319 -76q68 57 201 121q-14 -139 -41 -217l-65 -16q25 -61 18 -144q-14 -145 -138 -235t-345 -90q-104 0 -187 20q-37 -33 -41 -66q-5 -33 15 -44t69 -17l373 -41
q250 -29 227 -256q-12 -133 -155 -219q-144 -86 -364 -86t-329 68q-109 69 -99 159t83 144q-33 55 -25 141q14 160 187 235q-192 80 -172 287q14 143 140 237q127 94 329 95z" />
    <glyph glyph-name="Gdotaccent" unicode="&#x120;" horiz-adv-x="1226" 
d="M948 1206q-199 0 -331 -162q-131 -162 -157 -426t57 -414q83 -151 212 -151q37 0 57 6l33 322q2 47 -31 53l-83 19l16 73h534l-14 -73l-45 -19q-45 -16 -47 -53l-35 -346q-154 -66 -422 -66q-306 1 -456 185t-121 475t223 477q195 186 508 186q250 0 411 -102
q-32 -154 -106 -283h-104l-31 287q-61 12 -68 12zM822 1700q70 0 113 -43q44 -43 43 -128t-46 -129t-114 -44q-68 0 -112 44t-43 129t45 128t114 43z" />
    <glyph glyph-name="gdotaccent" unicode="&#x121;" horiz-adv-x="1044" 
d="M625 1393q71 0 115 -43t42 -128t-47 -130t-115 -45t-113 45q-44 45 -43 130t46 128t115 43zM477 -289q198 0 281 45q33 20 35 40q4 45 -68 48l-399 41q-100 10 -158 56q-23 -27 -25 -70q-8 -74 64 -117t270 -43zM548 406q68 0 96 60t37 156t8 150q-1 123 -103 123
q-56 0 -86 -65q-30 -66 -41 -184q-12 -118 5 -179t84 -61zM590 979q202 0 319 -76q68 57 201 121q-14 -139 -41 -217l-65 -16q25 -61 18 -144q-14 -145 -138 -235t-345 -90q-104 0 -187 20q-37 -33 -41 -66q-5 -33 15 -44t69 -17l373 -41q250 -29 227 -256
q-12 -133 -155 -219q-144 -86 -364 -86t-329 68q-109 69 -99 159t83 144q-33 55 -25 141q14 160 187 235q-192 80 -172 287q14 143 140 237q127 94 329 95z" />
    <glyph glyph-name="uni0122" unicode="&#x122;" horiz-adv-x="1226" 
d="M948 1206q-199 0 -331 -162q-131 -162 -157 -426t57 -414q83 -151 212 -151q37 0 57 6l33 322q2 47 -31 53l-83 19l16 73h534l-14 -73l-45 -19q-45 -16 -47 -53l-35 -346q-154 -66 -422 -66q-306 1 -456 185t-121 475t223 477q195 186 508 186q250 0 411 -102
q-32 -154 -106 -283h-104l-31 287q-61 12 -68 12zM652 -96q68 0 113 -46q44 -46 44 -132q-2 -145 -92 -266t-248 -160l-12 77q94 37 138 75t69 108q-78 -2 -125 41t-45 128t46 130t112 45z" />
    <glyph glyph-name="uni0123" unicode="&#x123;" horiz-adv-x="1044" 
d="M477 -289q198 0 281 45q33 20 35 40q4 45 -68 48l-399 41q-100 10 -158 56q-23 -27 -25 -70q-8 -74 64 -117t270 -43zM548 406q68 0 96 60t37 156t8 150q-1 123 -103 123q-56 0 -86 -65q-30 -66 -41 -184q-12 -118 5 -179t84 -61zM615 1073q-69 0 -109 47t-33 131
q13 145 115 266t262 160l6 -78q-96 -37 -144 -75t-79 -107q78 2 121 -41q42 -43 34 -128t-56 -130t-117 -45zM590 979q202 0 319 -76q68 57 201 121q-14 -139 -41 -217l-65 -16q25 -61 18 -144q-14 -145 -138 -235t-345 -90q-104 0 -187 20q-37 -33 -41 -66q-5 -33 15 -44
t69 -17l373 -41q250 -29 227 -256q-12 -133 -155 -219q-144 -86 -364 -86t-329 68q-109 69 -99 159t83 144q-33 55 -25 141q14 160 187 235q-192 80 -172 287q14 143 140 237q127 94 329 95z" />
    <glyph glyph-name="Hcircumflex" unicode="&#x124;" horiz-adv-x="1323" 
d="M557 1343l-45 82q131 152 256 232h94q129 -111 209 -232l-61 -82l-224 99zM276 1114q6 43 -28 55l-60 19l17 74h508l-15 -74l-51 -21q-37 -14 -41 -53l-41 -414h340l41 414q6 43 -26 55l-60 19l14 74h508l-14 -74l-51 -21q-37 -14 -41 -53l-96 -967q-4 -37 30 -53l58 -20
l-17 -74h-508l17 74l53 18q33 14 37 55l45 465h-340l-45 -465q-4 -37 31 -53l55 -20l-14 -74h-508l14 74l53 18q35 14 39 55z" />
    <glyph glyph-name="hcircumflex" unicode="&#x125;" horiz-adv-x="1079" 
d="M465 1501l-45 82q131 152 256 232h94q129 -111 209 -232l-61 -82l-224 98zM848 979q114 0 146 -92t12 -307l-41 -410q-6 -53 32 -47l62 10l18 -72l-317 -92q-66 0 -96 39t-19 162l37 352q25 244 -31 244q-33 0 -69 -35t-97 -110l-63 -621l-322 -27l125 1227q4 45 -45 62
l-43 14l17 74q195 49 350 57h43q8 -88 -2 -203l-47 -450q195 225 350 225z" />
    <glyph glyph-name="Hbar" unicode="&#x126;" horiz-adv-x="1327" 
d="M590 903l-21 -203h340l21 203h-340zM950 1114q6 43 -26 55l-60 19l15 74h507l-14 -74l-51 -21q-37 -14 -41 -53l-12 -123h80l-11 -88h-80l-73 -756q-4 -37 30 -53l58 -20l-17 -74h-507l16 74l53 18q33 14 37 55l45 465h-340l-45 -465q-4 -37 31 -53l55 -20l-14 -74h-508
l14 74l53 18q35 14 39 55l74 756h-74l9 88h75l13 123q6 43 -29 55l-59 19l16 74h508l-15 -74l-51 -21q-37 -14 -41 -53l-12 -123h340z" />
    <glyph glyph-name="hbar" unicode="&#x127;" horiz-adv-x="1079" 
d="M848 979q114 0 146 -92t12 -307l-41 -410q-6 -53 32 -47l62 10l18 -72l-317 -92q-66 0 -96 39t-19 162l37 352q25 244 -31 244q-33 0 -69 -35t-97 -110l-63 -621l-322 -27l111 1090h-92l12 90h88l6 47q4 45 -45 62l-43 14l17 74q195 49 350 57h43q8 -88 -2 -203l-6 -51
h315l-10 -90h-314l-32 -309q195 225 350 225z" />
    <glyph glyph-name="Itilde" unicode="&#x128;" horiz-adv-x="653" 
d="M649 1593q47 1 67 17t36 61h88q-10 -137 -68 -226t-162 -89q-74 0 -148 52t-140 52q-64 0 -93 -65h-84q11 123 73 206t138 83t162 -46q84 -45 131 -45zM276 1114q6 43 -28 55l-60 19l17 74h508l-15 -74l-51 -21q-37 -14 -41 -53l-96 -967q-4 -37 31 -53l55 -20l-14 -74
h-508l14 74l53 18q35 14 39 55z" />
    <glyph glyph-name="itilde" unicode="&#x129;" horiz-adv-x="585" 
d="M305 1397q59 0 135 -46t116 -46t57 16t32 63h90q-2 -121 -62 -217t-167 -96q-61 0 -126 52q-65 53 -122 53t-90 -74h-80q6 121 70 208t147 87zM580 61q-170 -68 -310 -92q-59 15 -94 73t-26 138l63 594q4 45 -45 62l-43 14l12 72q195 49 350 57h43q8 -88 -2 -203
l-61 -606q-6 -53 33 -47l59 10z" />
    <glyph glyph-name="Imacron" unicode="&#x12a;" horiz-adv-x="653" 
d="M160 1415l20 219h596l-20 -219h-596zM276 1114q6 43 -28 55l-60 19l17 74h508l-15 -74l-51 -21q-37 -14 -41 -53l-96 -967q-4 -37 31 -53l55 -20l-14 -74h-508l14 74l53 18q35 14 39 55z" />
    <glyph glyph-name="imacron" unicode="&#x12b;" horiz-adv-x="585" 
d="M82 1075l20 219h596l-20 -219h-596zM580 61q-170 -68 -310 -92q-59 15 -94 73t-26 138l63 594q4 45 -45 62l-43 14l12 72q195 49 350 57h43q8 -88 -2 -203l-61 -606q-6 -53 33 -47l59 10z" />
    <glyph glyph-name="uni012C" unicode="&#x12c;" horiz-adv-x="653" 
d="M490 1567q78 0 138 35t77 77h94q-11 -131 -103 -229t-232 -98t-207 97q-66 97 -52 230h94q6 -43 60 -77t131 -35zM276 1114q6 43 -28 55l-60 19l17 74h508l-15 -74l-51 -21q-37 -14 -41 -53l-96 -967q-4 -37 31 -53l55 -20l-14 -74h-508l14 74l53 18q35 14 39 55z" />
    <glyph glyph-name="uni012D" unicode="&#x12d;" horiz-adv-x="585" 
d="M407 1251q67 0 119 39t74 82h72q0 -143 -84 -232t-198 -89t-184 89t-42 232h72q6 -41 55 -81t116 -40zM580 61q-170 -68 -310 -92q-59 15 -94 73t-26 138l63 594q4 45 -45 62l-43 14l12 72q195 49 350 57h43q8 -88 -2 -203l-61 -606q-6 -53 33 -47l59 10z" />
    <glyph glyph-name="Iogonek" unicode="&#x12e;" horiz-adv-x="651" 
d="M467 -303q35 0 70 27l28 -60q-78 -68 -198 -67q-78 0 -131 50t-46 132q14 145 216 221h-334l14 74l53 18q35 14 39 55l96 967q6 43 -28 55l-60 19l17 74h508l-15 -74l-51 -21q-37 -14 -41 -53l-96 -967q-4 -37 31 -53l55 -20l-14 -74q-90 -47 -131 -88t-48 -113
q-10 -102 66 -102z" />
    <glyph glyph-name="iogonek" unicode="&#x12f;" horiz-adv-x="587" 
d="M389 1051q-78 0 -129 51t-49 146q2 96 52 146t129 50t131 -51t50 -145t-54 -145q-52 -52 -130 -52zM418 -252q34 0 69 27l29 -60q-78 -68 -199 -67q-78 0 -131 50t-45 138t92 150q-96 55 -83 194l63 594q4 45 -45 62l-43 14l12 72q195 49 350 57h43q8 -88 -2 -203
l-61 -606q-6 -53 33 -47l59 10l21 -72l-97 -36q-63 -35 -94 -73t-37 -102q-10 -102 66 -102z" />
    <glyph glyph-name="Idotaccent" unicode="&#x130;" horiz-adv-x="653" 
d="M476 1356q-69 0 -113 44t-43 129q2 85 46 128t114 43t113 -43q44 -43 43 -128t-46 -129t-114 -44zM276 1114q6 43 -28 55l-60 19l17 74h508l-15 -74l-51 -21q-37 -14 -41 -53l-96 -967q-4 -37 31 -53l55 -20l-14 -74h-508l14 74l53 18q35 14 39 55z" />
    <glyph glyph-name="dotlessi" unicode="&#x131;" horiz-adv-x="587" 
d="M580 61q-170 -68 -310 -92q-59 15 -94 73t-26 138l63 594q4 45 -45 62l-43 14l12 72q195 49 350 57h43q8 -88 -2 -203l-61 -606q-6 -53 33 -47l59 10z" />
    <glyph glyph-name="IJ" unicode="&#x132;" horiz-adv-x="1198" 
d="M1065 68q-18 -190 -146 -308t-362 -143l-12 82q88 55 114 90q53 70 70 225l111 1100q6 43 -29 55l-59 19l16 74h508l-14 -74l-52 -21q-37 -14 -41 -53zM274 1114q6 43 -28 55l-60 19l17 74h508l-15 -74l-51 -21q-37 -14 -41 -53l-96 -967q-4 -37 31 -53l55 -20l-14 -74
h-508l14 74l53 18q35 14 39 55z" />
    <glyph glyph-name="ij" unicode="&#x133;" horiz-adv-x="1091" 
d="M1001 72q-18 -193 -139 -312t-346 -143l-16 74q4 3 35 27t37 30t28 30q23 24 29 40t23 57t26 139l80 760q4 45 -45 62l-43 14l12 72q195 49 350 57h43q8 -88 -2 -203zM934 1051q-78 0 -129 51t-49 146q2 96 52 146t129 50t131 -51t50 -145t-54 -145q-52 -52 -130 -52z
M580 61q-170 -68 -310 -92q-59 15 -94 73t-26 138l63 594q4 45 -45 62l-43 14l12 72q195 49 350 57h43q8 -88 -2 -203l-61 -606q-6 -53 33 -47l59 10zM389 1051q-78 0 -129 51t-49 146q2 96 52 146t129 50t131 -51t50 -145t-54 -145q-52 -52 -130 -52z" />
    <glyph glyph-name="Jcircumflex" unicode="&#x134;" horiz-adv-x="624" 
d="M221 1343l-45 82q131 152 256 232h94q129 -111 209 -232l-61 -82l-223 99zM492 68q-18 -190 -146 -308t-362 -143l-13 82q88 55 115 90q53 70 70 225l110 1100q6 43 -28 55l-60 19l17 74h507l-14 -74l-51 -21q-37 -14 -41 -53z" />
    <glyph glyph-name="jcircumflex" unicode="&#x135;" horiz-adv-x="544" 
d="M84 1120q141 227 301 357h76q137 -125 229 -355l-65 -61l-226 194l-260 -194zM455 72q-17 -193 -139 -312t-347 -143l-16 74q4 3 35 27q79 60 94 100q6 16 23 57t26 139l80 760q4 45 -45 62l-43 14l12 72q195 49 350 57h43q8 -88 -2 -203z" />
    <glyph glyph-name="uni0136" unicode="&#x136;" horiz-adv-x="1200" 
d="M665 -96q69 0 113 -46t43 -132q-2 -145 -92 -266t-248 -160l-12 77q94 37 138 75t69 108q-78 -2 -125 41t-45 128t46 130t113 45zM276 1114q6 43 -28 55l-60 19l17 74h508l-15 -74l-51 -21q-37 -14 -41 -53l-43 -424l441 428q47 47 16 53l-94 17l14 74h363l-15 -74
l-94 -23q-35 -10 -82 -59l-283 -275l289 -647q47 -104 133 -110l-14 -74h-434l-246 567l-6 -8l-41 -412q-4 -37 31 -53l55 -20l-14 -74h-508l14 74l53 18q35 14 39 55z" />
    <glyph glyph-name="uni0137" unicode="&#x137;" horiz-adv-x="1079" 
d="M554 -96q69 0 113 -46t44 -132q-2 -145 -92 -266t-248 -160l-13 77q94 37 139 75q44 38 68 108q-78 -2 -125 41t-45 128t46 130t113 45zM848 979q100 0 170 -55t69 -148q-1 -141 -71 -224t-217 -138l141 -236q51 -74 117 -61l22 8l21 -66q-147 -68 -332 -90
q-117 29 -160 135l-92 224l14 69l70 60q88 76 113 130q25 53 25 111t-17 84q-16 26 -39 27q-70 0 -197 -145l-65 -664l-320 -27l125 1229q4 45 -45 62l-43 14l13 72q195 49 350 57h43q8 -88 -2 -203l-43 -424q160 199 350 199z" />
    <glyph glyph-name="kgreenlandic" unicode="&#x138;" horiz-adv-x="1107" 
d="M207 764q6 51 -27 65l-47 23l12 72q180 47 332 55h51q14 -57 4 -141l-30 -301l362 266q53 45 -26 61l-78 13l14 71h371l-15 -71l-28 -9q-43 -8 -205 -135q-59 -45 -137 -102l192 -432q39 -90 103 -105l75 33l19 -51q-121 -72 -346 -107q-55 9 -99 59t-69 107l-127 307
l-19 -12l-43 -430l-321 -27z" />
    <glyph glyph-name="Lacute" unicode="&#x139;" horiz-adv-x="978" 
d="M727 1446l-420 -113l-22 72q37 76 172 170t233 119zM635 88q61 0 94 51l143 240h109q10 -152 -61 -379h-846l14 74l53 18q35 14 39 55l96 967q6 43 -28 55l-60 19l17 74h508l-15 -74l-51 -21q-37 -14 -41 -53l-102 -1026h131z" />
    <glyph glyph-name="lacute" unicode="&#x13a;" horiz-adv-x="557" 
d="M557 61q-170 -68 -309 -92q-59 15 -94 73t-27 138l106 1022q4 45 -45 62l-43 14l13 72q195 49 350 57h43q8 -88 -2 -203l-105 -1034q-6 -53 33 -47l60 10zM586 1567l-420 -113l-23 72q37 76 172 170t234 119z" />
    <glyph glyph-name="uni013B" unicode="&#x13b;" horiz-adv-x="978" 
d="M499 -96q69 0 113 -46t43 -132q-2 -145 -92 -266t-248 -160l-12 77q94 37 138 75t69 108q-78 -2 -125 41t-45 128t46 130t113 45zM635 88q61 0 94 51l143 240h109q10 -152 -61 -379h-846l14 74l53 18q35 14 39 55l96 967q6 43 -28 55l-60 19l17 74h508l-15 -74l-51 -21
q-37 -14 -41 -53l-102 -1026h131z" />
    <glyph glyph-name="uni013C" unicode="&#x13c;" horiz-adv-x="561" 
d="M557 61q-170 -68 -309 -92q-59 15 -94 73t-27 138l106 1022q4 45 -45 62l-43 14l13 72q195 49 350 57h43q8 -88 -2 -203l-105 -1034q-6 -53 33 -47l60 10zM261 -96q69 0 113 -46t44 -132q-2 -145 -92 -266t-248 -160l-12 77q94 37 138 75t68 108q-78 -2 -125 41t-45 128
t46 130t113 45z" />
    <glyph glyph-name="Lcaron" unicode="&#x13d;" horiz-adv-x="999" 
d="M941 1305q69 1 109 -47t31 -132q-14 -147 -114 -267t-260 -159l-7 78q96 37 145 75q48 38 79 108q-78 -1 -122 41t-36 127t57 131t118 45zM633 88q61 0 94 51l143 240h109q10 -152 -61 -379h-846l14 74l53 18q35 14 39 55l96 967q6 43 -28 55l-60 19l17 74h508l-15 -74
l-51 -21q-37 -14 -41 -53l-102 -1026h131z" />
    <glyph glyph-name="lcaron" unicode="&#x13e;" horiz-adv-x="684" 
d="M557 61q-170 -68 -309 -92q-59 15 -94 73t-27 138l106 1022q4 45 -45 62l-43 14l13 72q195 49 350 57h43q8 -88 -2 -203l-105 -1034q-6 -53 33 -47l60 10zM818 1405q69 0 109 -47t31 -131q-14 -147 -114 -267t-260 -159l-6 78q96 37 144 75t79 107q-78 -2 -122 41
t-36 128t57 130t118 45z" />
    <glyph glyph-name="Ldot" unicode="&#x13f;" horiz-adv-x="1013" 
d="M859 854q71 0 114 -42t41 -127t-46 -129t-114 -44t-114 44t-42 129t46 127t115 42zM635 88q61 0 94 51l143 240h109q10 -152 -61 -379h-846l14 74l53 18q35 14 39 55l96 967q6 43 -28 55l-60 19l17 74h508l-15 -74l-51 -21q-37 -14 -41 -53l-102 -1026h131z" />
    <glyph glyph-name="ldot" unicode="&#x140;" horiz-adv-x="774" 
d="M728 901q71 0 114 -42t41 -127t-46 -129t-114 -44t-114 44t-42 129t46 127t115 42zM557 61q-170 -68 -309 -92q-59 15 -94 73t-27 138l106 1022q4 45 -45 62l-43 14l13 72q195 49 350 57h43q8 -88 -2 -203l-105 -1034q-6 -53 33 -47l60 10z" />
    <glyph glyph-name="Lslash" unicode="&#x141;" horiz-adv-x="983" 
d="M639 88q61 0 94 51l144 240h108q10 -152 -61 -379h-846l14 74l53 18q35 14 39 55l33 328l-94 -63l12 114l92 64l54 524q6 43 -29 55l-59 19l16 74h508l-15 -74l-51 -21q-37 -14 -41 -53l-32 -326l253 175l-12 -115l-252 -174l-59 -586h131z" />
    <glyph glyph-name="lslash" unicode="&#x142;" horiz-adv-x="587" 
d="M68 477l6 92l131 90l57 543q4 45 -45 62l-43 14l12 72q195 49 351 57h43q8 -88 -2 -203l-37 -366l143 98l-8 -92l-146 -99l-57 -575q-6 -53 33 -47l59 10l21 -72q-170 -68 -310 -92q-59 15 -94 73t-26 138l39 385z" />
    <glyph glyph-name="Nacute" unicode="&#x143;" horiz-adv-x="1282" 
d="M1085 1446l-419 -113l-23 72q37 76 172 170t234 119zM838 0l-486 1047l-88 -895q-4 -33 35 -46l119 -32l-15 -74h-329l12 74l57 26q35 16 39 52l101 1003q-41 25 -97 33l15 74h432l457 -949l79 795q2 41 -49 51l-104 29l12 74h332l-14 -74l-62 -29q-29 -12 -35 -51
l-110 -1108h-301z" />
    <glyph glyph-name="nacute" unicode="&#x144;" horiz-adv-x="1107" 
d="M987 1350l-325 -283l-66 47q16 106 82 227t141 183zM877 979q113 0 145 -92t12 -307l-41 -410q-6 -53 33 -47l61 10l19 -72l-318 -92q-66 0 -96 39t-18 162l37 352q25 244 -31 244q-22 0 -52 -23t-49 -47t-67 -78l-61 -618l-322 -27l80 799q4 45 -45 62l-43 14l16 74
q195 49 350 57h43q8 -88 -2 -203l-2 -24q197 227 351 227z" />
    <glyph glyph-name="uni0145" unicode="&#x145;" horiz-adv-x="1282" 
d="M669 -96q69 0 113 -46t43 -132q-2 -145 -92 -266t-248 -160l-12 77q94 37 138 75t69 108q-78 -2 -125 41t-45 128t46 130t113 45zM838 0l-486 1047l-88 -895q-4 -33 35 -46l119 -32l-15 -74h-329l12 74l57 26q35 16 39 52l101 1003q-41 25 -97 33l15 74h432l457 -949
l79 795q2 41 -49 51l-104 29l12 74h332l-14 -74l-62 -29q-29 -12 -35 -51l-110 -1108h-301z" />
    <glyph glyph-name="uni0146" unicode="&#x146;" horiz-adv-x="1107" 
d="M587 -96q69 0 113 -46t43 -132q-2 -145 -92 -266t-248 -160l-12 77q94 37 138 75t69 108q-78 -2 -125 41t-45 128t46 130t113 45zM877 979q113 0 145 -92t12 -307l-41 -410q-6 -53 33 -47l61 10l19 -72l-318 -92q-66 0 -96 39t-18 162l37 352q25 244 -31 244
q-22 0 -52 -23t-49 -47t-67 -78l-61 -618l-322 -27l80 799q4 45 -45 62l-43 14l16 74q195 49 350 57h43q8 -88 -2 -203l-2 -24q197 227 351 227z" />
    <glyph glyph-name="Ncaron" unicode="&#x147;" horiz-adv-x="1282" 
d="M625 1675l211 -98l241 98l45 -82q-96 -113 -256 -231h-94q-66 47 -108 96t-101 135zM838 0l-486 1047l-88 -895q-4 -33 35 -46l119 -32l-15 -74h-329l12 74l57 26q35 16 39 52l101 1003q-41 25 -97 33l15 74h432l457 -949l79 795q2 41 -49 51l-104 29l12 74h332l-14 -74
l-62 -29q-29 -12 -35 -51l-110 -1108h-301z" />
    <glyph glyph-name="ncaron" unicode="&#x148;" horiz-adv-x="1107" 
d="M393 1415l68 60l221 -195l264 195l53 -64q-133 -223 -299 -352h-77q-136 131 -230 356zM877 979q113 0 145 -92t12 -307l-41 -410q-6 -53 33 -47l61 10l19 -72l-318 -92q-66 0 -96 39t-18 162l37 352q25 244 -31 244q-22 0 -52 -23t-49 -47t-67 -78l-61 -618l-322 -27
l80 799q4 45 -45 62l-43 14l16 74q195 49 350 57h43q8 -88 -2 -203l-2 -24q197 227 351 227z" />
    <glyph glyph-name="napostrophe" unicode="&#x149;" horiz-adv-x="1388" 
d="M319 1405q69 0 109 -47t31 -131q-15 -147 -115 -267t-260 -159l-6 78q96 37 144 75t79 107q-78 -2 -122 41t-36 128q7 85 57 130t119 45zM1157 979q113 0 146 -92t12 -307l-41 -410q-6 -53 33 -47l61 10l18 -72l-317 -92q-67 0 -97 39t-18 162l37 352q25 244 -30 244
q-23 0 -53 -23t-49 -47t-66 -78l-62 -618l-321 -27l79 799q4 45 -45 62l-43 14l17 74q195 49 350 57h43q8 -88 -2 -203l-2 -24q197 227 350 227z" />
    <glyph glyph-name="Eng" unicode="&#x14a;" horiz-adv-x="1280" 
d="M836 0l-486 1047l-88 -895q-4 -33 35 -46l119 -32l-15 -74h-329l12 74l57 26q35 16 39 52l101 1003q-41 25 -97 33l15 74h432l456 -949l80 795q2 41 -49 51l-104 29l12 74h332l-15 -74l-61 -29q-29 -12 -35 -51l-110 -1108q-15 -160 -117 -259t-289 -124l-4 72
q80 17 127 35t95 52q90 64 106 224h-219z" />
    <glyph glyph-name="eng" unicode="&#x14b;" horiz-adv-x="1056" 
d="M678 766q-22 0 -52 -23t-49 -47t-67 -78l-61 -618l-322 -27l80 799q4 45 -45 62l-43 14l16 74q195 49 350 57h43q8 -88 -2 -203l-2 -24q197 227 350 227q113 0 146 -92t12 -307l-51 -508q-18 -194 -140 -312t-347 -143l-17 74q45 30 84 69t45 57q6 17 24 60t27 137
l52 508q25 244 -31 244z" />
    <glyph glyph-name="Omacron" unicode="&#x14c;" horiz-adv-x="1286" 
d="M487 1405l23 219h610l-22 -219h-611zM649 51q111 0 196 161t111 417t-24 418q-49 161 -164 161t-199 -158q-83 -158 -109 -415q-26 -258 22 -421t167 -163zM644 -31q-263 0 -413 179q-151 178 -121 468t222 484t446 192q254 0 405 -179t120 -477t-213 -482t-446 -185z
" />
    <glyph glyph-name="omacron" unicode="&#x14d;" horiz-adv-x="1007" 
d="M504 35q131 0 174 442q20 174 0 305t-86 131q-117 0 -160 -439t72 -439zM501 -31q-202 -1 -315 145q-114 146 -92 367t164 359t344 139q203 0 319 -137q116 -138 93 -362t-167 -368t-346 -143zM301 1075l21 219h596l-21 -219h-596z" />
    <glyph glyph-name="Obreve" unicode="&#x14e;" horiz-adv-x="1286" 
d="M826 1567q77 0 138 35q60 35 76 77h95q-11 -131 -103 -229t-232 -98t-207 97q-66 97 -52 230h94q6 -43 60 -77t131 -35zM649 51q111 0 196 161t111 417t-24 418q-49 161 -164 161t-199 -158q-83 -158 -109 -415q-26 -258 22 -421t167 -163zM644 -31q-263 0 -413 179
q-151 178 -121 468t222 484t446 192q254 0 405 -179t120 -477t-213 -482t-446 -185z" />
    <glyph glyph-name="obreve" unicode="&#x14f;" horiz-adv-x="1007" 
d="M624 1251q68 0 120 39t73 82h72q0 -143 -84 -232t-198 -89q-113 0 -183 89t-43 232h72q6 -41 55 -81t116 -40zM504 35q131 0 174 442q20 174 0 305t-86 131q-117 0 -160 -439t72 -439zM501 -31q-202 -1 -315 145q-114 146 -92 367t164 359t344 139q203 0 319 -137
q116 -138 93 -362t-167 -368t-346 -143z" />
    <glyph glyph-name="Ohungarumlaut" unicode="&#x150;" horiz-adv-x="1286" 
d="M649 51q111 0 196 161t111 417t-24 418q-49 161 -164 161t-199 -158q-83 -158 -109 -415q-26 -258 22 -421t167 -163zM644 -31q-263 0 -413 179q-151 178 -121 468t222 484t446 192q254 0 405 -179t120 -477t-213 -482t-446 -185zM797 1415q45 229 129 367l211 -103
l-217 -297zM471 1415q45 231 131 367l209 -103l-217 -297z" />
    <glyph glyph-name="ohungarumlaut" unicode="&#x151;" horiz-adv-x="1007" 
d="M504 35q131 0 174 442q20 174 0 305t-86 131q-117 0 -160 -439t72 -439zM501 -31q-202 -1 -315 145q-114 146 -92 367t164 359t344 139q203 0 319 -137q116 -138 93 -362t-167 -368t-346 -143zM666 1098q51 254 131 391l211 -103l-220 -321zM340 1098q49 252 133 391
l209 -103l-219 -321z" />
    <glyph glyph-name="OE" unicode="&#x152;" horiz-adv-x="1769" 
d="M688 51q78 0 124 22t128 85l96 948q-84 102 -223 102t-233 -156t-120 -414q-26 -257 36 -422t192 -165zM629 -31q-258 0 -403 178q-144 177 -115 467t225 484t448 194q96 0 209 -30h809q12 -117 -45 -312h-112l-50 174q-16 49 -82 50h-141l-49 -500h172q19 0 26 5t13 9
t13 20t14 31l41 84h108l-65 -383h-93l-22 86q-12 48 -22 54t-23 6h-170l-51 -498h157q72 0 95 51l96 195h110q23 -209 -14 -334h-879q-94 -31 -200 -31z" />
    <glyph glyph-name="oe" unicode="&#x153;" horiz-adv-x="1562" 
d="M1182 893q-60 0 -102 -122t-46 -304q82 31 147 105t64 192q0 55 -17 92t-46 37zM504 35q131 0 174 442q20 174 0 305t-86 131q-117 0 -160 -439t72 -439zM486 -31q-186 -1 -300 145t-92 367t164 359t330 139q188 0 301 -107q135 106 310 106t279 -69q104 -70 103 -172
q0 -141 -154 -231t-393 -127q8 -133 62 -208t131 -75q78 0 141 38t141 118l58 -59q-160 -223 -441 -224q-203 0 -321 107q-133 -107 -319 -107z" />
    <glyph glyph-name="Racute" unicode="&#x154;" horiz-adv-x="1210" 
d="M961 1446l-420 -113l-23 72q37 76 172 170t234 119zM684 1174h-74l-55 -564h66q199 0 229 282t-166 282zM711 1262q254 0 390 -92t118 -277q-25 -229 -271 -322l123 -331q49 -125 148 -166l-17 -74h-233q-113 0 -160 31t-78 145l-98 346h-86l-37 -375q-6 -47 31 -53
l116 -20l-14 -74h-569l14 74l53 18q35 14 39 55l96 967q6 43 -28 55l-60 19l17 74h506z" />
    <glyph glyph-name="racute" unicode="&#x155;" horiz-adv-x="866" 
d="M786 1350l-325 -283l-66 47q16 106 82 227t141 183zM779 979q99 0 173 -84q-45 -184 -92 -281h-104l-29 217q-16 4 -31 5q-80 0 -176 -95l-71 -741l-322 -27l78 791q4 49 -27 65l-47 23l12 72q180 47 332 55h51q12 -61 4 -135q150 135 249 135z" />
    <glyph glyph-name="uni0156" unicode="&#x156;" horiz-adv-x="1210" 
d="M659 -96q69 0 113 -46t43 -132q-2 -145 -92 -266t-248 -160l-12 77q94 37 138 75t69 108q-78 -2 -125 41t-45 128t46 130t113 45zM684 1174h-74l-55 -564h66q199 0 229 282t-166 282zM711 1262q254 0 390 -92t118 -277q-25 -229 -271 -322l123 -331q49 -125 148 -166
l-17 -74h-233q-113 0 -160 31t-78 145l-98 346h-86l-37 -375q-6 -47 31 -53l116 -20l-14 -74h-569l14 74l53 18q35 14 39 55l96 967q6 43 -28 55l-60 19l17 74h506z" />
    <glyph glyph-name="uni0157" unicode="&#x157;" horiz-adv-x="866" 
d="M272 -96q68 0 112 -46t44 -132q-2 -145 -92 -266t-248 -160l-12 77q94 37 138 75t69 108q-78 -2 -125 41t-45 128t46 130q45 45 113 45zM779 979q99 0 173 -84q-45 -184 -92 -281h-104l-29 217q-16 4 -31 5q-80 0 -176 -95l-71 -741l-322 -27l78 791q4 49 -27 65l-47 23
l12 72q180 47 332 55h51q12 -61 4 -135q150 135 249 135z" />
    <glyph glyph-name="Rcaron" unicode="&#x158;" horiz-adv-x="1210" 
d="M539 1675l211 -98l241 98l45 -82q-96 -113 -256 -231h-94q-66 47 -108 96t-101 135zM684 1174h-74l-55 -564h66q199 0 229 282t-166 282zM711 1262q254 0 390 -92t118 -277q-25 -229 -271 -322l123 -331q49 -125 148 -166l-17 -74h-233q-113 0 -160 31t-78 145l-98 346
h-86l-37 -375q-6 -47 31 -53l116 -20l-14 -74h-569l14 74l53 18q35 14 39 55l96 967q6 43 -28 55l-60 19l17 74h506z" />
    <glyph glyph-name="rcaron" unicode="&#x159;" horiz-adv-x="866" 
d="M276 1415l68 60l221 -195l264 195l54 -64q-133 -223 -299 -352h-78q-136 131 -230 356zM779 979q99 0 173 -84q-45 -184 -92 -281h-104l-29 217q-16 4 -31 5q-80 0 -176 -95l-71 -741l-322 -27l78 791q4 49 -27 65l-47 23l12 72q180 47 332 55h51q12 -61 4 -135
q150 135 249 135z" />
    <glyph glyph-name="Sacute" unicode="&#x15a;" horiz-adv-x="991" 
d="M874 1446l-419 -113l-23 72q37 76 172 170t234 119zM625 1292q113 0 229 -34t184 -80q-33 -145 -110 -273h-109l-31 283q-54 20 -128 20t-110 -41t-41 -101t28 -124q33 -66 89 -113t120 -102t120 -105q55 -50 88 -123t25 -155q-17 -182 -157 -278t-349 -97
q-274 0 -412 99q30 180 93 280h114l39 -274q39 -20 135 -20t138 39q41 40 48 112q7 71 -41 141t-120 132q-73 62 -145 129t-118 156t-36 185q16 158 144 251t313 93z" />
    <glyph glyph-name="sacute" unicode="&#x15b;" horiz-adv-x="886" 
d="M401 51q133 0 144 80q7 69 -143 176q-62 45 -122 97t-101 126q-40 74 -32 158q14 135 122 213t282 78t348 -102q-23 -133 -88 -240h-104l-19 229q-40 27 -98 27q-116 0 -121 -68q-7 -83 142 -203q63 -50 125 -104t104 -121q42 -68 34 -137q-14 -141 -142 -216t-310 -75
q-242 0 -379 97q35 149 86 239h107l26 -231q49 -23 139 -23zM838 1350l-326 -283l-66 47q16 106 82 227t142 183z" />
    <glyph glyph-name="Scircumflex" unicode="&#x15c;" horiz-adv-x="991" 
d="M408 1343l-46 82q131 152 256 232h95q129 -111 209 -232l-62 -82l-223 99zM625 1292q113 0 229 -34t184 -80q-33 -145 -110 -273h-109l-31 283q-54 20 -128 20t-110 -41t-41 -101t28 -124q33 -66 89 -113t120 -102t120 -105q55 -50 88 -123t25 -155q-17 -182 -157 -278
t-349 -97q-274 0 -412 99q30 180 93 280h114l39 -274q39 -20 135 -20t138 39q41 40 48 112q7 71 -41 141t-120 132q-73 62 -145 129t-118 156t-36 185q16 158 144 251t313 93z" />
    <glyph glyph-name="scircumflex" unicode="&#x15d;" horiz-adv-x="886" 
d="M401 51q133 0 144 80q7 69 -143 176q-62 45 -122 97t-101 126q-40 74 -32 158q14 135 122 213t282 78t348 -102q-23 -133 -88 -240h-104l-19 229q-40 27 -98 27q-116 0 -121 -68q-7 -83 142 -203q63 -50 125 -104t104 -121q42 -68 34 -137q-14 -141 -142 -216t-310 -75
q-242 0 -379 97q35 149 86 239h107l26 -231q49 -23 139 -23zM272 1120q141 227 301 357h76q137 -125 230 -355l-66 -61l-225 194l-260 -194z" />
    <glyph glyph-name="Scedilla" unicode="&#x15e;" horiz-adv-x="991" 
d="M513 -96q69 0 113 -46t44 -132q-2 -145 -92 -266t-248 -160l-13 77q94 37 139 75q44 38 68 108q-78 -2 -125 41t-45 128t46 130t113 45zM625 1292q113 0 229 -34t184 -80q-33 -145 -110 -273h-109l-31 283q-54 20 -128 20t-110 -41t-41 -101t28 -124q33 -66 89 -113
t120 -102t120 -105q55 -50 88 -123t25 -155q-17 -182 -157 -278t-349 -97q-274 0 -412 99q30 180 93 280h114l39 -274q39 -20 135 -20t138 39q41 40 48 112q7 71 -41 141t-120 132q-73 62 -145 129t-118 156t-36 185q16 158 144 251t313 93z" />
    <glyph glyph-name="scedilla" unicode="&#x15f;" horiz-adv-x="886" 
d="M436 -96q68 0 112 -46t44 -132q-2 -145 -92 -266t-248 -160l-12 77q94 37 138 75t68 108q-78 -2 -124 41t-46 128q2 85 46 130q46 45 114 45zM401 51q133 0 144 80q7 69 -143 176q-62 45 -122 97t-101 126q-40 74 -32 158q14 135 122 213t282 78t348 -102
q-23 -133 -88 -240h-104l-19 229q-40 27 -98 27q-116 0 -121 -68q-7 -83 142 -203q63 -50 125 -104t104 -121q42 -68 34 -137q-14 -141 -142 -216t-310 -75q-242 0 -379 97q35 149 86 239h107l26 -231q49 -23 139 -23z" />
    <glyph glyph-name="Scaron" unicode="&#x160;" horiz-adv-x="991" 
d="M455 1675l211 -98l241 98l45 -82q-96 -113 -256 -231h-94q-66 47 -108 96t-101 135zM625 1292q113 0 229 -34t184 -80q-33 -145 -110 -273h-109l-31 283q-54 20 -128 20t-110 -41t-41 -101t28 -124q33 -66 89 -113t120 -102t120 -105q55 -50 88 -123t25 -155
q-17 -182 -157 -278t-349 -97q-274 0 -412 99q30 180 93 280h114l39 -274q39 -20 135 -20t138 39q41 40 48 112q7 71 -41 141t-120 132q-73 62 -145 129t-118 156t-36 185q16 158 144 251t313 93z" />
    <glyph glyph-name="scaron" unicode="&#x161;" horiz-adv-x="886" 
d="M401 51q133 0 144 80q7 69 -143 176q-62 45 -122 97t-101 126q-40 74 -32 158q14 135 122 213t282 78t348 -102q-23 -133 -88 -240h-104l-19 229q-40 27 -98 27q-116 0 -121 -68q-7 -83 142 -203q63 -50 125 -104t104 -121q42 -68 34 -137q-14 -141 -142 -216t-310 -75
q-242 0 -379 97q35 149 86 239h107l26 -231q49 -23 139 -23zM285 1415l67 60l221 -195l265 195l53 -64q-133 -223 -299 -352h-78q-135 131 -229 356z" />
    <glyph glyph-name="uni0162" unicode="&#x162;" horiz-adv-x="1058" 
d="M507 -96q69 0 113 -46t44 -132q-2 -145 -92 -266t-248 -160l-13 77q94 37 139 75q44 38 68 108q-78 -2 -125 41t-45 128t46 130t113 45zM412 1174q-45 0 -73 -44q-10 -14 -17 -27q-8 -13 -11 -18l-102 -165l-74 12q-6 176 60 330h931q29 -147 -6 -330l-86 -12l-61 167
q-2 5 -6 17t-6 15q-3 3 -7 13t-6 13q-12 24 -55 29h-76l-102 -1027q-6 -45 30 -53l111 -20l-14 -74h-604l16 74l94 18q31 8 37 55l102 1027h-75z" />
    <glyph glyph-name="uni0163" unicode="&#x163;" horiz-adv-x="608" 
d="M207 858h-78l12 80q248 53 363 303h57l-29 -293h130l-15 -86h-123l-61 -616q-14 -147 61 -148q18 0 94 23l-16 -90q-78 -61 -218 -61t-196 73q-55 74 -43 219zM335 -96q69 0 113 -46t44 -132q-2 -145 -92 -266t-248 -160l-13 77q94 37 139 75q44 38 68 108
q-78 -2 -125 41t-45 128t46 130t113 45z" />
    <glyph glyph-name="Tcaron" unicode="&#x164;" horiz-adv-x="1058" 
d="M485 1675l211 -98l242 98l45 -82q-96 -113 -256 -231h-94q-66 47 -109 96t-100 135zM412 1174q-45 0 -73 -44q-10 -14 -17 -27q-8 -13 -11 -18l-102 -165l-74 12q-6 176 60 330h931q29 -147 -6 -330l-86 -12l-61 167q-2 5 -6 17t-6 15q-3 3 -7 13t-6 13q-12 24 -55 29
h-76l-102 -1027q-6 -45 30 -53l111 -20l-14 -74h-604l16 74l94 18q31 8 37 55l102 1027h-75z" />
    <glyph glyph-name="tcaron" unicode="&#x165;" horiz-adv-x="770" 
d="M207 858h-78l12 80q248 53 363 303h57l-29 -293h130l-15 -86h-123l-61 -616q-14 -147 61 -148q18 0 94 23l-16 -90q-78 -61 -218 -61t-196 73q-55 74 -43 219zM929 1405q69 0 109 -47t31 -131q-15 -147 -115 -267t-260 -159l-6 78q96 37 145 74q48 38 78 108
q-77 -2 -121 41t-36 128t57 130t118 45z" />
    <glyph glyph-name="Tbar" unicode="&#x166;" horiz-adv-x="1089" 
d="M426 1174q-32 0 -46 -14l-16 -16q-24 -24 -38 -59l-103 -165l-73 12q-6 176 59 330h932q29 -147 -6 -330l-86 -12l-62 167q-2 5 -6 17t-6 15t-9 20t-16 22q-21 11 -43 13h-76l-36 -367h303l-8 -88h-304l-57 -572q-6 -45 31 -53l110 -20l-14 -74h-604l16 74l94 18
q31 8 37 55l58 572h-303l8 88h303l37 367h-76z" />
    <glyph glyph-name="tbar" unicode="&#x167;" horiz-adv-x="610" 
d="M209 858h-78l12 80q248 53 363 303h57l-28 -293h129l-15 -86h-123l-16 -153h158l-9 -91h-157l-37 -372q-14 -147 61 -148q18 0 95 23l-17 -90q-78 -61 -218 -61t-196 73q-55 74 -43 219l37 356h-73l10 91h72z" />
    <glyph glyph-name="Utilde" unicode="&#x168;" horiz-adv-x="1177" 
d="M979 1593q47 1 67 17t35 61h88q-10 -137 -67 -226t-162 -89q-74 0 -148 52t-140 52q-64 0 -93 -65h-84q11 123 73 206t138 83t161 -46q85 -45 132 -45zM653 -31q-274 1 -385 105t-84 377l68 663q2 43 -29 55l-59 19l16 74h549l-14 -74l-94 -21q-37 -6 -39 -53l-82 -817
q-25 -233 215 -234q210 0 276 262q18 71 27 162l63 627q2 43 -28 55l-88 19l14 74h289l-15 -74l-51 -21q-37 -14 -41 -53l-59 -606q-27 -268 -131 -404t-318 -135z" />
    <glyph glyph-name="utilde" unicode="&#x169;" horiz-adv-x="1103" 
d="M580 1395q59 0 135 -46t116 -46t57 16t32 63h90q-2 -121 -62 -217t-168 -96q-61 0 -126 52q-65 53 -122 53t-90 -74h-80q6 121 70 208t148 87zM322 -31q-113 0 -146 92t-12 308l39 395q4 49 -27 65l-47 23l12 72q180 47 332 55h51q14 -57 4 -143l-41 -410
q-25 -244 31 -244q33 0 69 35t99 113q18 206 62 618h317l-78 -778q-6 -53 33 -47l59 10l21 -72q-170 -68 -309 -92q-59 15 -95 73t-26 138q0 6 2 15q-194 -226 -350 -226z" />
    <glyph glyph-name="Umacron" unicode="&#x16a;" horiz-adv-x="1177" 
d="M526 1405l23 219h610l-22 -219h-611zM653 -31q-274 1 -385 105t-84 377l68 663q2 43 -29 55l-59 19l16 74h549l-14 -74l-94 -21q-37 -6 -39 -53l-82 -817q-25 -233 215 -234q210 0 276 262q18 71 27 162l63 627q2 43 -28 55l-88 19l14 74h289l-15 -74l-51 -21
q-37 -14 -41 -53l-59 -606q-27 -268 -131 -404t-318 -135z" />
    <glyph glyph-name="umacron" unicode="&#x16b;" horiz-adv-x="1103" 
d="M348 1075l21 219h596l-21 -219h-596zM322 -31q-113 0 -146 92t-12 308l39 395q4 49 -27 65l-47 23l12 72q180 47 332 55h51q14 -57 4 -143l-41 -410q-25 -244 31 -244q33 0 69 35t99 113q18 206 62 618h317l-78 -778q-6 -53 33 -47l59 10l21 -72q-170 -68 -309 -92
q-59 15 -95 73t-26 138q0 6 2 15q-194 -226 -350 -226z" />
    <glyph glyph-name="Ubreve" unicode="&#x16c;" horiz-adv-x="1177" 
d="M849 1567q77 0 137 35t77 77h94q-10 -131 -102 -229q-93 -98 -233 -98t-207 97q-66 97 -52 230h94q7 -43 61 -77t131 -35zM653 -31q-274 1 -385 105t-84 377l68 663q2 43 -29 55l-59 19l16 74h549l-14 -74l-94 -21q-37 -6 -39 -53l-82 -817q-25 -233 215 -234
q210 0 276 262q18 71 27 162l63 627q2 43 -28 55l-88 19l14 74h289l-15 -74l-51 -21q-37 -14 -41 -53l-59 -606q-27 -268 -131 -404t-318 -135z" />
    <glyph glyph-name="ubreve" unicode="&#x16d;" horiz-adv-x="1103" 
d="M671 1251q67 0 120 39t73 82h72q0 -143 -84 -232t-198 -89t-184 89t-42 232h72q6 -41 55 -81t116 -40zM322 -31q-113 0 -146 92t-12 308l39 395q4 49 -27 65l-47 23l12 72q180 47 332 55h51q14 -57 4 -143l-41 -410q-25 -244 31 -244q33 0 69 35t99 113q18 206 62 618
h317l-78 -778q-6 -53 33 -47l59 10l21 -72q-170 -68 -309 -92q-59 15 -95 73t-26 138q0 6 2 15q-194 -226 -350 -226z" />
    <glyph glyph-name="Uring" unicode="&#x16e;" horiz-adv-x="1177" 
d="M653 -31q-274 1 -385 105t-84 377l68 663q2 43 -29 55l-59 19l16 74h549l-14 -74l-94 -21q-37 -6 -39 -53l-82 -817q-25 -233 215 -234q210 0 276 262q18 71 27 162l63 627q2 43 -28 55l-88 19l14 74h289l-15 -74l-51 -21q-37 -14 -41 -53l-59 -606q-27 -268 -131 -404
t-318 -135zM870 1462q43 0 72 30t31 85t-28 84t-73 29q-44 0 -74 -32t-32 -83q-2 -113 104 -113zM869 1827q105 0 173 -71t66 -177t-71 -177t-179 -71q-110 1 -170 69q-61 68 -60 176t68 180q68 71 173 71z" />
    <glyph glyph-name="uring" unicode="&#x16f;" horiz-adv-x="1103" 
d="M678 1192q43 0 73 30q29 30 29 85t-27 84q-28 29 -72 29t-75 -32t-31 -83q-1 -113 103 -113zM668 1061q-110 1 -172 69t-60 176t70 180q68 70 173 70t172 -70t65 -177q-2 -106 -70 -177t-178 -71zM322 -31q-113 0 -146 92t-12 308l39 395q4 49 -27 65l-47 23l12 72
q180 47 332 55h51q14 -57 4 -143l-41 -410q-25 -244 31 -244q33 0 69 35t99 113q18 206 62 618h317l-78 -778q-6 -53 33 -47l59 10l21 -72q-170 -68 -309 -92q-59 15 -95 73t-26 138q0 6 2 15q-194 -226 -350 -226z" />
    <glyph glyph-name="Uhungarumlaut" unicode="&#x170;" horiz-adv-x="1177" 
d="M653 -31q-274 1 -385 105t-84 377l68 663q2 43 -29 55l-59 19l16 74h549l-14 -74l-94 -21q-37 -6 -39 -53l-82 -817q-25 -233 215 -234q210 0 276 262q18 71 27 162l63 627q2 43 -28 55l-88 19l14 74h289l-15 -74l-51 -21q-37 -14 -41 -53l-59 -606q-27 -268 -131 -404
t-318 -135zM850 1395q45 229 129 366l211 -102l-217 -297zM524 1395q45 231 131 366l209 -102l-217 -297z" />
    <glyph glyph-name="uhungarumlaut" unicode="&#x171;" horiz-adv-x="1103" 
d="M412 1098q49 252 133 391l209 -103l-219 -321zM737 1098q51 254 131 391l211 -103l-219 -321zM322 -31q-113 0 -146 92t-12 308l39 395q4 49 -27 65l-47 23l12 72q180 47 332 55h51q14 -57 4 -143l-41 -410q-25 -244 31 -244q33 0 69 35t99 113q18 206 62 618h317
l-78 -778q-6 -53 33 -47l59 10l21 -72q-170 -68 -309 -92q-59 15 -95 73t-26 138q0 6 2 15q-194 -226 -350 -226z" />
    <glyph glyph-name="Uogonek" unicode="&#x172;" horiz-adv-x="1177" 
d="M651 -383q-78 0 -131 50t-44 142t114 162q-238 11 -334 117t-72 363l68 663q2 43 -29 55l-59 19l16 74h549l-14 -74l-94 -21q-37 -6 -39 -53l-82 -817q-25 -233 215 -234q210 0 276 262q18 71 27 162l63 627q2 43 -28 55l-88 19l14 74h289l-15 -74l-51 -21
q-37 -14 -41 -53l-59 -606q-45 -428 -285 -512q-63 -37 -94 -76t-37 -100q-10 -102 66 -103q35 0 69 27l29 -59q-78 -68 -199 -68z" />
    <glyph glyph-name="uogonek" unicode="&#x173;" horiz-adv-x="1105" 
d="M909 -264q35 0 70 26l29 -59q-78 -68 -199 -68q-78 1 -131 51t-43 143t113 161q-88 59 -76 190q0 6 2 15q-195 -225 -350 -226q-113 0 -146 92t-12 308l39 395q4 49 -27 65l-47 23l12 72q180 47 332 55h51q14 -57 4 -143l-41 -410q-25 -244 31 -244q33 0 69 35t99 113
q18 206 62 618h317l-78 -778q-6 -53 33 -47l59 10l21 -72l-119 -45q-69 -38 -101 -76t-38 -102q-10 -102 65 -102z" />
    <glyph glyph-name="Wcircumflex" unicode="&#x174;" horiz-adv-x="1773" 
d="M842 1343l-45 82q131 152 256 232h94q129 -111 209 -232l-62 -82l-223 99zM666 0h-248l-228 1110q-8 47 -36 59l-41 19l12 74h612l-12 -74l-127 -31q-33 -8 -40 -23t-1 -51l154 -751l227 567l-43 211q-8 47 -37 59l-43 19l14 74h613l-15 -74l-127 -31q-30 -8 -38 -23
t-2 -51l153 -753l309 770q12 31 8 42q-5 11 -32 19l-107 27l15 74h313l-14 -74l-56 -25q-18 -8 -37 -53l-444 -1110h-248l-153 758z" />
    <glyph glyph-name="wcircumflex" unicode="&#x175;" horiz-adv-x="1447" 
d="M557 1120q141 227 301 357h76q137 -125 229 -355l-65 -61l-226 194l-260 -194zM612 0l-301 -14l-143 837q-4 20 -39 39l-47 15l14 71q33 8 326 31h39q35 -55 49 -131l102 -713q102 158 164 320l-63 368q-4 20 -39 39l-47 15l14 71q33 8 326 31h39q35 -55 49 -131
l102 -715q82 129 151 306q68 177 68 281t-26 124l-146 20l-6 54q51 41 129 61q137 0 143 -195q0 -180 -94 -401t-219 -383l-301 -14l-55 327q-70 -139 -189 -313z" />
    <glyph glyph-name="Ycircumflex" unicode="&#x176;" 
d="M582 1343l-45 82q131 152 256 232h94q129 -111 209 -232l-62 -82l-223 99zM616 1169q-32 -8 -38 -18t4 -43l192 -471l291 477q31 49 -18 55l-132 19l15 74h346l-14 -74l-27 -12q-51 -18 -78 -64l-371 -606l-34 -359q-4 -39 28 -53l56 -20l-15 -74h-506l17 74l51 18
q35 14 37 55l35 340l-258 611q-21 63 -52 76l-32 14l12 74h592l-12 -74z" />
    <glyph glyph-name="ycircumflex" unicode="&#x177;" horiz-adv-x="966" 
d="M332 1120q141 227 301 357h76q137 -125 229 -355l-66 -61l-225 194l-260 -194zM418 979h39q35 -57 49 -131l133 -680q125 154 199 318t74 250q0 87 -27 108l-146 20l-6 54q51 41 129 61q137 0 144 -195q0 -133 -100 -343q-100 -211 -303 -447q-202 -236 -443 -385
l-76 145q209 111 324 195l-58 39l-182 839q-4 31 -39 39l-49 11l16 71q139 31 322 31z" />
    <glyph glyph-name="Ydieresis" unicode="&#x178;" 
d="M614 1675q68 0 112 -43t43 -127t-45 -128t-114 -44t-114 44t-41 128q0 84 45 127q46 43 114 43zM1049 1675q69 0 113 -43t42 -127t-47 -128t-114 -44t-113 44t-41 129q2 85 46 127t114 42zM616 1169q-32 -8 -38 -18t4 -43l192 -471l291 477q31 49 -18 55l-132 19l15 74
h346l-14 -74l-27 -12q-51 -18 -78 -64l-371 -606l-34 -359q-4 -39 28 -53l56 -20l-15 -74h-506l17 74l51 18q35 14 37 55l35 340l-258 611q-21 63 -52 76l-32 14l12 74h592l-12 -74z" />
    <glyph glyph-name="Zacute" unicode="&#x179;" horiz-adv-x="1103" 
d="M971 1446l-420 -113l-23 72q37 76 172 170t234 119zM975 381h115q-8 -182 -66 -381h-989l18 94l703 1077l-248 -4q-34 0 -40 -8q-5 -8 -14 -19t-16 -20l-162 -209h-112q6 190 61 351h959l-13 -74l-720 -1100l258 6q53 2 70 10t44 48z" />
    <glyph glyph-name="zacute" unicode="&#x17a;" horiz-adv-x="864" 
d="M856 1352l-326 -283l-65 47q16 106 82 227t141 183zM786 389h72q16 -81 -16 -231t-82 -199q-338 102 -522 119l-74 -117l-119 94l487 568l-264 20q-37 4 -59 -41l-19 -39l-71 19l76 391l583 -68l66 78l74 -63l-488 -584q145 -12 289 -57q39 -14 59 45q8 25 8 65z" />
    <glyph glyph-name="Zdotaccent" unicode="&#x17b;" horiz-adv-x="1103" 
d="M709 1700q69 0 113 -43t43 -128t-46 -129t-113 -44t-113 44q-44 44 -43 129t45 128t114 43zM975 381h115q-8 -182 -66 -381h-989l18 94l703 1077l-248 -4q-34 0 -40 -8q-5 -8 -14 -19t-16 -20l-162 -209h-112q6 190 61 351h959l-13 -74l-720 -1100l258 6q53 2 70 10
t44 48z" />
    <glyph glyph-name="zdotaccent" unicode="&#x17c;" horiz-adv-x="864" 
d="M578 1395q70 0 114 -43t43 -128q-2 -85 -47 -130t-115 -45q-69 0 -113 45t-43 130t46 128t115 43zM786 389h72q16 -81 -16 -231t-82 -199q-338 102 -522 119l-74 -117l-119 94l487 568l-264 20q-37 4 -59 -41l-19 -39l-71 19l76 391l583 -68l66 78l74 -63l-488 -584
q145 -12 289 -57q39 -14 59 45q8 25 8 65z" />
    <glyph glyph-name="Zcaron" unicode="&#x17d;" horiz-adv-x="1103" 
d="M516 1675l211 -98l242 98l45 -82q-96 -113 -256 -231h-94q-66 47 -109 96t-100 135zM975 381h115q-8 -182 -66 -381h-989l18 94l703 1077l-248 -4q-34 0 -40 -8q-5 -8 -14 -19t-16 -20l-162 -209h-112q6 190 61 351h959l-13 -74l-720 -1100l258 6q53 2 70 10t44 48z" />
    <glyph glyph-name="zcaron" unicode="&#x17e;" horiz-adv-x="864" 
d="M285 1417l67 60l221 -195l265 195l53 -64q-133 -223 -299 -352h-78q-135 131 -229 356zM786 389h72q16 -81 -16 -231t-82 -199q-338 102 -522 119l-74 -117l-119 94l487 568l-264 20q-37 4 -59 -41l-19 -39l-71 19l76 391l583 -68l66 78l74 -63l-488 -584
q145 -12 289 -57q39 -14 59 45q8 25 8 65z" />
    <glyph glyph-name="longs" unicode="&#x17f;" horiz-adv-x="591" 
d="M696 1325q-74 0 -100 -67t-45 -244l-94 -971q-23 -217 -142 -323t-305 -107q-186 0 -291 61q31 129 95 244h100l25 -217q25 -8 65 -8t59 15q37 28 56 154q6 46 16 142l82 856h-94l12 86h90l4 29q23 217 142 323t305 106t291 -61q-31 -129 -95 -243h-100l-24 217
q-25 8 -52 8z" />
    <glyph glyph-name="uni018F" unicode="&#x18f;" horiz-adv-x="1243" 
d="M412 467q0 -197 50 -307t144 -109q94 0 169 113t114 303h-477zM647 1292q303 0 474 -178t141 -477t-213 -483t-439 -184t-404 157q-148 158 -143 428h842l8 70q27 258 -51 421q-78 162 -246 162t-323 -174l-39 92q84 78 188 122t205 44z" />
    <glyph glyph-name="florin" unicode="&#x192;" horiz-adv-x="696" 
d="M-60 -389q-190 0 -307 70q25 139 93 243h137l12 -207q23 -12 65 -12q91 0 138 236l182 919h-123l27 88h112q44 207 176 332t322 125t307 -80q-25 -145 -102 -260h-117l-24 233q-23 12 -66 12t-82 -58t-61 -177l-25 -127h217l-26 -88h-209l-146 -760q-43 -221 -177 -355
q-133 -134 -323 -134z" />
    <glyph glyph-name="uni01C4" unicode="&#x1c4;" horiz-adv-x="2367" 
d="M1792 1675l211 -98l242 98l45 -82q-96 -113 -256 -231h-95q-67 47 -109 96t-99 135zM705 1174h-93l-108 -1086h92q127 0 228 159t124 388q24 229 -46 384t-197 155zM2238 381h115q-8 -182 -65 -381h-990l19 94l702 1077l-247 -4q-34 0 -40 -8q-4 -8 -14 -19t-16 -20
l-162 -209h-113q6 190 62 351h958l-12 -74l-721 -1100l258 6q53 2 71 10q17 8 44 48zM741 1262q285 0 435 -158t118 -468t-209 -473q-178 -163 -448 -163h-563l14 74l53 18q35 14 39 55l96 967q6 43 -28 55l-60 19l17 74h536z" />
    <glyph glyph-name="uni01C5" unicode="&#x1c5;" horiz-adv-x="2168" 
d="M1573 1425l67 60l222 -195l264 195l53 -64q-133 -223 -299 -352h-78q-135 131 -229 356zM702 1174h-92l-108 -1086h92q127 0 228 159t124 388t-47 384t-197 155zM2091 389h72q16 -81 -17 -231t-82 -199q-338 102 -522 119l-74 -117l-118 94l487 568l-264 20
q-37 4 -60 -41l-18 -39l-72 19l76 391l584 -68l65 78l74 -63l-487 -584q145 -12 288 -57q39 -14 60 45q8 25 8 65zM739 1262q285 0 435 -158t118 -468t-209 -473q-178 -163 -448 -163h-563l14 74l53 18q35 14 39 55l96 967q6 43 -28 55l-60 19l17 74h536z" />
    <glyph glyph-name="uni01C6" unicode="&#x1c6;" horiz-adv-x="1964" 
d="M1362 1415l68 60l221 -195l264 195l53 -64q-133 -223 -299 -352h-78q-135 131 -229 356zM428 403q0 -243 100 -243q47 0 131 104q14 135 66 633l-45 2q-74 0 -127 -58q-53 -59 -79 -151q-46 -164 -46 -287zM1886 389h72q16 -81 -16 -231t-82 -199q-338 102 -523 119
l-73 -117l-119 94l487 568l-264 20q-37 4 -59 -41l-19 -39l-71 19l75 391l584 -68l66 78l73 -63l-487 -584q145 -12 289 -57q39 -14 59 45q8 25 8 65zM373 -33q-117 0 -200 108t-83 302q0 256 166 429t416 173q20 0 61 -4l23 227q4 55 -45 62l-109 14l12 72q178 45 416 57
h43q8 -88 -2 -203l-104 -1034q-6 -53 32 -47l60 10l20 -72q-172 -68 -307 -92q-50 13 -70 61t-26 132q-152 -195 -303 -195z" />
    <glyph glyph-name="uni01C7" unicode="&#x1c7;" horiz-adv-x="1552" 
d="M633 88q61 0 94 51l143 240h109q10 -152 -61 -379h-846l14 74l53 18q35 14 39 55l96 967q6 43 -28 55l-60 19l17 74h508l-15 -74l-51 -21q-37 -14 -41 -53l-102 -1026h131zM1419 68q-18 -190 -146 -308t-362 -143l-12 82q88 55 115 90q53 70 69 225l111 1100q6 43 -29 55
l-59 19l16 74h508l-14 -74l-51 -21q-37 -14 -41 -53z" />
    <glyph glyph-name="uni01C8" unicode="&#x1c8;" horiz-adv-x="1486" 
d="M1329 1051q-78 0 -129 51t-49 146q2 96 52 146t129 50t131 -51t50 -145t-54 -145q-52 -52 -130 -52zM1397 72q-17 -193 -139 -312t-347 -143l-16 74q4 3 35 27q79 60 94 100q6 16 23 57t26 139l80 760q4 45 -45 62l-43 14l12 72q195 49 350 57h43q8 -88 -2 -203zM635 88
q61 0 94 51l143 240h109q10 -152 -61 -379h-846l14 74l53 18q35 14 39 55l96 967q6 43 -28 55l-60 19l17 74h508l-15 -74l-51 -21q-37 -14 -41 -53l-102 -1026h131z" />
    <glyph glyph-name="uni01C9" unicode="&#x1c9;" horiz-adv-x="1062" 
d="M557 61q-170 -68 -309 -92q-59 15 -94 73t-27 138l106 1022q4 45 -45 62l-43 14l13 72q195 49 350 57h43q8 -88 -2 -203l-105 -1034q-6 -53 33 -47l60 10zM973 72q-18 -193 -139 -312t-347 -143l-16 74q4 3 35 27q79 60 94 100q6 16 23 56t26 140l80 760q4 45 -45 62
l-43 14l12 72q195 49 351 57h43q8 -88 -3 -203zM905 1051q-78 0 -129 51t-49 146q2 96 52 146t129 50t131 -51q53 -51 51 -145t-54 -145q-52 -52 -131 -52z" />
    <glyph glyph-name="uni01CA" unicode="&#x1ca;" horiz-adv-x="1843" 
d="M1710 68q-18 -190 -146 -308t-362 -143l-12 82q88 55 115 90q53 70 69 225l111 1100q6 43 -29 55l-59 19l16 74h508l-14 -74l-52 -21q-37 -14 -40 -53zM836 0l-486 1047l-88 -895q-4 -33 35 -46l119 -32l-15 -74h-329l12 74l57 26q35 16 39 52l101 1003q-41 25 -97 33
l15 74h432l456 -949l80 795q2 41 -49 51l-104 29l12 74h332l-15 -74l-61 -29q-29 -12 -35 -51l-110 -1108h-301z" />
    <glyph glyph-name="uni01CB" unicode="&#x1cb;" horiz-adv-x="1773" 
d="M1616 1051q-78 0 -129 51t-49 146q2 96 52 146t129 50t131 -51t50 -145t-54 -145q-52 -52 -130 -52zM1683 72q-18 -193 -139 -312t-346 -143l-16 74q4 3 35 27t37 30t28 30q23 24 29 40t23 57t26 139l80 760q4 45 -45 62l-43 14l12 72q195 49 350 57h43q8 -88 -2 -203z
M834 0l-486 1047l-88 -895q-4 -33 35 -46l119 -32l-15 -74h-329l12 74l57 26q35 16 39 52l101 1003q-41 25 -97 33l15 74h432l456 -949l80 795q2 41 -49 51l-104 29l12 74h332l-15 -74l-61 -29q-29 -12 -35 -51l-110 -1108h-301z" />
    <glyph glyph-name="uni01CC" unicode="&#x1cc;" horiz-adv-x="1613" 
d="M1456 1051q-78 0 -129 51t-49 146q2 96 52 146t129 50t131 -51t50 -145t-54 -145q-52 -52 -130 -52zM1524 72q-18 -193 -140 -312t-346 -143l-16 74q4 3 35 27q79 60 94 100q6 16 23 57t26 139l80 760q4 45 -45 62l-43 14l12 72q195 49 350 57h43q8 -88 -2 -203zM877 979
q113 0 145 -92t12 -307l-41 -410q-6 -53 33 -47l61 10l19 -72l-318 -92q-66 0 -96 39t-18 162l37 352q25 244 -31 244q-22 0 -52 -23t-49 -47t-67 -78l-61 -618l-322 -27l80 799q4 45 -45 62l-43 14l16 74q195 49 350 57h43q8 -88 -2 -203l-2 -24q197 227 351 227z" />
    <glyph glyph-name="uni01EA" unicode="&#x1ea;" horiz-adv-x="1286" 
d="M649 51q111 0 196 161t111 417t-24 418q-49 161 -164 161t-199 -158q-83 -158 -109 -415q-26 -258 22 -421t167 -163zM692 -375q-78 0 -131 50t-45 139t100 155q-250 9 -392 187t-113 464t221 480t446 192q254 0 405 -179t120 -470q-25 -233 -140 -399t-291 -234
q-72 -39 -106 -78t-39 -104q-10 -102 66 -102q34 -1 69 26l29 -59q-78 -68 -199 -68z" />
    <glyph glyph-name="uni01EB" unicode="&#x1eb;" horiz-adv-x="1009" 
d="M504 35q131 0 174 442q20 174 0 305t-86 131q-117 0 -160 -439t72 -439zM418 -410q-78 0 -131 50t-45 133q14 129 174 204q-162 29 -251 167t-69 348t162 348t344 139q203 0 319 -137q117 -137 95 -345t-133 -343t-275 -170q-78 -43 -114 -83t-41 -108q-10 -102 65 -102
q35 -1 70 26l28 -59q-78 -68 -198 -68z" />
    <glyph glyph-name="uni01F1" unicode="&#x1f1;" horiz-adv-x="2367" 
d="M705 1174h-93l-108 -1086h92q127 0 228 159t124 388q24 229 -46 384t-197 155zM2238 381h115q-8 -182 -65 -381h-990l19 94l702 1077l-247 -4q-34 0 -40 -8q-4 -8 -14 -19t-16 -20l-162 -209h-113q6 190 62 351h958l-12 -74l-721 -1100l258 6q53 2 71 10q17 8 44 48z
M741 1262q285 0 435 -158t118 -468t-209 -473q-178 -163 -448 -163h-563l14 74l53 18q35 14 39 55l96 967q6 43 -28 55l-60 19l17 74h536z" />
    <glyph glyph-name="uni01F2" unicode="&#x1f2;" horiz-adv-x="2168" 
d="M702 1174h-92l-108 -1086h92q127 0 228 159t124 388t-47 384t-197 155zM2091 389h72q16 -81 -17 -231t-82 -199q-338 102 -522 119l-74 -117l-118 94l487 568l-264 20q-37 4 -60 -41l-18 -39l-72 19l76 391l584 -68l65 78l74 -63l-487 -584q145 -12 288 -57q39 -14 60 45
q8 25 8 65zM739 1262q285 0 435 -158t118 -468t-209 -473q-178 -163 -448 -163h-563l14 74l53 18q35 14 39 55l96 967q6 43 -28 55l-60 19l17 74h536z" />
    <glyph glyph-name="uni01F3" unicode="&#x1f3;" horiz-adv-x="1964" 
d="M428 403q0 -243 100 -243q47 0 131 104q14 135 66 633l-45 2q-74 0 -127 -58q-53 -59 -79 -151q-46 -164 -46 -287zM1886 389h72q16 -81 -16 -231t-82 -199q-338 102 -523 119l-73 -117l-119 94l487 568l-264 20q-37 4 -59 -41l-19 -39l-71 19l75 391l584 -68l66 78
l73 -63l-487 -584q145 -12 289 -57q39 -14 59 45q8 25 8 65zM373 -33q-117 0 -200 108t-83 302q0 256 166 429t416 173q20 0 61 -4l23 227q4 55 -45 62l-109 14l12 72q178 45 416 57h43q8 -88 -2 -203l-104 -1034q-6 -53 32 -47l60 10l20 -72q-172 -68 -307 -92
q-50 13 -70 61t-26 132q-152 -195 -303 -195z" />
    <glyph glyph-name="uni01F4" unicode="&#x1f4;" horiz-adv-x="1226" 
d="M948 1206q-199 0 -331 -162q-131 -162 -157 -426t57 -414q83 -151 212 -151q37 0 57 6l33 322q2 47 -31 53l-83 19l16 73h534l-14 -73l-45 -19q-45 -16 -47 -53l-35 -346q-154 -66 -422 -66q-306 1 -456 185t-121 475t223 477q195 186 508 186q250 0 411 -102
q-32 -154 -106 -283h-104l-31 287q-61 12 -68 12zM1116 1458l-420 -112l-22 71q37 76 172 170t233 119z" />
    <glyph glyph-name="uni01F5" unicode="&#x1f5;" horiz-adv-x="1044" 
d="M950 1350l-325 -283l-66 47q16 106 82 227t141 183zM477 -289q198 0 281 45q33 20 35 40q4 45 -68 48l-399 41q-100 10 -158 56q-23 -27 -25 -70q-8 -74 64 -117t270 -43zM548 406q68 0 96 60t37 156t8 150q-1 123 -103 123q-56 0 -86 -65q-30 -66 -41 -184
q-12 -118 5 -179t84 -61zM590 979q202 0 319 -76q68 57 201 121q-14 -139 -41 -217l-65 -16q25 -61 18 -144q-14 -145 -138 -235t-345 -90q-104 0 -187 20q-37 -33 -41 -66q-5 -33 15 -44t69 -17l373 -41q250 -29 227 -256q-12 -133 -155 -219q-144 -86 -364 -86t-329 68
q-109 69 -99 159t83 144q-33 55 -25 141q14 160 187 235q-192 80 -172 287q14 143 140 237q127 94 329 95z" />
    <glyph glyph-name="uni01FA" unicode="&#x1fa;" horiz-adv-x="1071" 
d="M686 1489q43 0 72 30q28 30 30 85t-27 84q-30 28 -73 28t-74 -32t-32 -82q-2 -113 104 -113zM487 885l-188 -445h287zM901 2001l-420 -113l-22 72q37 76 172 170t233 119zM924 1606q-2 -106 -71 -178t-179 -70q-110 0 -170 68q-62 68 -61 178q1 108 69 179t173 71
t173 -72q68 -70 66 -176zM647 160l-43 192h-342l-80 -192q-12 -35 -5 -48t36 -18l90 -20l-14 -74h-320l13 74l67 20q23 10 43 58l467 1110h207l244 -1090q14 -63 45 -78l57 -20l-14 -74h-625l12 74l111 20q61 15 51 66z" />
    <glyph glyph-name="uni01FB" unicode="&#x1fb;" horiz-adv-x="1075" 
d="M670 1192q42 0 72 30t30 85t-28 84t-72 29t-74 -32q-31 -32 -31 -83q-1 -113 103 -113zM915 1729l-419 -113l-23 72q37 76 172 170t234 118zM428 403q0 -241 100 -241q49 0 129 100l66 635l-43 2q-74 0 -127 -58q-53 -59 -79 -151q-46 -164 -46 -287zM660 1061
q-110 0 -172 68q-62 69 -60 177t70 180q68 70 173 70t172 -70t65 -177q-2 -106 -70 -177t-178 -71zM373 -31q-117 1 -200 107t-83 301q0 256 166 429t416 173q156 0 366 -88l-71 -721q-6 -53 32 -47l60 10l20 -72q-172 -68 -307 -92q-50 13 -70 61t-26 132
q-150 -193 -303 -193z" />
    <glyph glyph-name="uni01FC" unicode="&#x1fc;" horiz-adv-x="1492" 
d="M420 543h282l52 522zM1337 1450l-419 -113l-23 72q37 76 172 170t233 119zM1217 674q37 0 56 43q7 16 11 22l39 84h109l-66 -383h-90l-25 86q-2 6 -4 16l-3 15q-1 4 -3 10t-5 8q-3 3 -8 7t-22 4h-170l-49 -498h158q68 0 94 51l96 195h111q23 -209 -14 -334h-875l14 74
l54 18q35 14 39 55l30 308h-332l-188 -295q-31 -49 31 -66l104 -20l-14 -74h-336l12 74l31 10q31 8 68 68l643 1005l-123 31l16 74h920q12 -121 -47 -312h-111l-51 174q-7 29 -25 39t-55 11h-143l-50 -500h173z" />
    <glyph glyph-name="uni01FD" unicode="&#x1fd;" horiz-adv-x="1468" 
d="M582 401v39q-168 -74 -185 -231q-5 -47 15 -75t76 -28t155 52q-61 98 -61 243zM1087 893q-59 0 -101 -122t-46 -304q82 31 146 105t65 192q0 55 -17 92q-18 37 -47 37zM1032 1350l-325 -283l-66 47q16 106 82 227t141 183zM1487 737q0 -141 -154 -231t-393 -127
q8 -133 61 -208t131 -75t142 38q63 38 141 118l58 -59q-160 -223 -441 -224q-227 0 -346 129q-184 -129 -373 -129q-119 -1 -191 53t-61 180q13 126 107 194t183 83q89 16 237 37l10 98q16 158 -2 223t-88 64q-51 0 -123 -16l-80 -246h-102q-43 98 -39 254q193 86 383 86
q143 0 246 -109q137 109 312 109t279 -70t103 -172z" />
    <glyph glyph-name="uni01FE" unicode="&#x1fe;" horiz-adv-x="1286" 
d="M1090 1446l-420 -113l-23 72q37 76 172 170t234 119zM651 51q111 0 196 161t109 413q16 156 5 272l-484 -657q49 -189 174 -189zM766 1208q-111 0 -195 -157q-83 -158 -105 -369t-5 -348l485 661q-47 213 -180 213zM643 -31q-170 0 -303 84l-150 -205h-88l183 246
q-207 182 -170 527q27 285 219 479t440 192q184 0 322 -96l153 209h86l-186 -254q189 -181 157 -497t-214 -500t-449 -185z" />
    <glyph glyph-name="uni01FF" unicode="&#x1ff;" horiz-adv-x="1013" 
d="M434 479q-8 -92 -10 -127l262 367q-10 195 -92 194q-117 0 -160 -434zM506 35q131 0 174 442q8 98 8 141l-266 -372q6 -211 84 -211zM954 1350l-325 -283l-66 47q16 106 82 227t141 183zM498 -31q-127 0 -226 66l-133 -187h-73l159 224q-156 147 -127 407q20 223 162 361
t340 139q133 0 229 -59l132 184h73l-155 -219q164 -139 137 -406q-23 -223 -167 -367t-351 -143z" />
    <glyph glyph-name="uni0200" unicode="&#x200;" horiz-adv-x="1071" 
d="M487 885l-188 -445h287zM580 1622l202 176q66 -63 107 -184t35 -228l-74 -45zM215 1622l203 176q66 -63 106 -183t35 -229l-74 -45zM647 160l-43 192h-342l-80 -192q-12 -35 -5 -48t36 -18l90 -20l-14 -74h-320l13 74l67 20q23 10 43 58l467 1110h207l244 -1090
q14 -63 45 -78l57 -20l-14 -74h-625l12 74l111 20q61 15 51 66z" />
    <glyph glyph-name="uni0201" unicode="&#x201;" horiz-adv-x="1075" 
d="M215 1341l201 175q66 -60 106 -182t35 -228l-72 -47zM580 1341l200 175q66 -60 107 -182t35 -228l-74 -47zM428 403q0 -241 100 -241q49 0 129 100l66 635l-43 2q-74 0 -127 -58q-53 -59 -79 -151q-46 -164 -46 -287zM373 -31q-117 1 -200 107t-83 301q0 256 166 429
t416 173q156 0 366 -88l-71 -721q-6 -53 32 -47l60 10l20 -72q-172 -68 -307 -92q-50 13 -70 61t-26 132q-150 -193 -303 -193z" />
    <glyph glyph-name="uni0202" unicode="&#x202;" horiz-adv-x="1071" 
d="M487 885l-188 -445h287zM681 1679q138 0 212 -98t57 -229h-94q-10 43 -62 78q-52 34 -129 34t-139 -34q-61 -35 -75 -78h-97q12 133 100 230t227 97zM647 160l-43 192h-342l-80 -192q-12 -35 -5 -48t36 -18l90 -20l-14 -74h-320l13 74l67 20q23 10 43 58l467 1110h207
l244 -1090q14 -63 45 -78l57 -20l-14 -74h-625l12 74l111 20q61 15 51 66z" />
    <glyph glyph-name="uni0203" unicode="&#x203;" horiz-adv-x="1075" 
d="M694 1372q114 0 178 -89q66 -89 37 -232h-71q-10 43 -56 82t-114 39q-66 0 -122 -40t-73 -81h-70q1 143 89 232t202 89zM428 403q0 -241 100 -241q49 0 129 100l66 635l-43 2q-74 0 -127 -58q-53 -59 -79 -151q-46 -164 -46 -287zM373 -31q-117 1 -200 107t-83 301
q0 256 166 429t416 173q156 0 366 -88l-71 -721q-6 -53 32 -47l60 10l20 -72q-172 -68 -307 -92q-50 13 -70 61t-26 132q-150 -193 -303 -193z" />
    <glyph glyph-name="uni0204" unicode="&#x204;" horiz-adv-x="1005" 
d="M569 1622l203 176q66 -63 107 -184t34 -228l-73 -45zM205 1622l203 176q66 -63 106 -183t35 -229l-74 -45zM733 674q35 0 51 31t17 34l39 84h108l-65 -383h-90l-25 86q-2 6 -4 16l-3 15q-1 4 -3 10t-5 8q-3 3 -9 7t-21 4h-170l-49 -498h137q68 0 94 51l117 195h109
q20 -158 -33 -334h-854l14 74l53 18q35 14 39 55l96 967q6 43 -26 55l-60 19l15 74h837q12 -121 -47 -312h-110l-51 174q-8 29 -26 39t-54 11h-144l-49 -500h172z" />
    <glyph glyph-name="uni0205" unicode="&#x205;" horiz-adv-x="978" 
d="M598 893q-59 0 -101 -122t-46 -304q83 31 147 105t64 192q0 55 -18 92t-46 37zM164 1341l201 175q67 -60 107 -182t34 -228l-72 -47zM528 1341l201 175q66 -60 107 -182t34 -228l-73 -47zM997 737q1 -141 -153 -231t-393 -127q8 -133 61 -208t131 -75t141 38t142 118
l57 -59q-160 -223 -440 -224q-211 0 -331 116t-120 316q0 244 148 411t389 167q162 0 265 -70t103 -172z" />
    <glyph glyph-name="uni0206" unicode="&#x206;" horiz-adv-x="1005" 
d="M677 1679q138 0 212 -98t57 -229h-94q-10 43 -62 78q-52 34 -130 34t-138 -34q-62 -34 -76 -78h-96q12 133 100 230t227 97zM733 674q35 0 51 31t17 34l39 84h108l-65 -383h-90l-25 86q-2 6 -4 16l-3 15q-1 4 -3 10t-5 8q-3 3 -9 7t-21 4h-170l-49 -498h137q68 0 94 51
l117 195h109q20 -158 -33 -334h-854l14 74l53 18q35 14 39 55l96 967q6 43 -26 55l-60 19l15 74h837q12 -121 -47 -312h-110l-51 174q-8 29 -26 39t-54 11h-144l-49 -500h172z" />
    <glyph glyph-name="uni0207" unicode="&#x207;" horiz-adv-x="978" 
d="M598 893q-59 0 -101 -122t-46 -304q83 31 147 105t64 192q0 55 -18 92t-46 37zM648 1372q114 0 180 -89t36 -232h-71q-11 43 -57 82t-112 39t-124 -40q-56 -40 -72 -81h-70q2 143 89 232t201 89zM997 737q1 -141 -153 -231t-393 -127q8 -133 61 -208t131 -75t141 38
t142 118l57 -59q-160 -223 -440 -224q-211 0 -331 116t-120 316q0 244 148 411t389 167q162 0 265 -70t103 -172z" />
    <glyph glyph-name="uni0208" unicode="&#x208;" horiz-adv-x="653" 
d="M455 1622l202 176q66 -63 107 -184t35 -228l-74 -45zM90 1622l203 176q67 -63 107 -183t34 -229l-74 -45zM276 1114q6 43 -28 55l-60 19l17 74h508l-15 -74l-51 -21q-37 -14 -41 -53l-96 -967q-4 -37 31 -53l55 -20l-14 -74h-508l14 74l53 18q35 14 39 55z" />
    <glyph glyph-name="uni0209" unicode="&#x209;" horiz-adv-x="587" 
d="M336 1341l201 175q67 -60 107 -182t34 -228l-74 -47zM-29 1341l201 175q66 -60 107 -182t34 -228l-71 -47zM582 61q-170 -68 -310 -92q-59 15 -94 73t-26 138l63 594q4 45 -45 62l-43 14l12 72q195 49 350 57h43q8 -88 -2 -203l-61 -606q-6 -53 33 -47l59 10z" />
    <glyph glyph-name="uni020A" unicode="&#x20a;" horiz-adv-x="653" 
d="M492 1679q138 0 213 -98q74 -98 57 -229h-94q-10 43 -62 78q-52 34 -130 34q-76 0 -138 -34t-76 -78h-96q12 133 100 230t226 97zM276 1114q6 43 -28 55l-60 19l17 74h508l-15 -74l-51 -21q-37 -14 -41 -53l-96 -967q-4 -37 31 -53l55 -20l-14 -74h-508l14 74l53 18
q35 14 39 55z" />
    <glyph glyph-name="uni020B" unicode="&#x20b;" horiz-adv-x="585" 
d="M580 61q-170 -68 -310 -92q-59 15 -94 73t-26 138l63 594q4 45 -45 62l-43 14l12 72q195 49 350 57h43q8 -88 -2 -203l-61 -606q-6 -53 33 -47l59 10zM411 1372q113 0 179 -89t37 -232h-72q-10 43 -56 82t-113 39q-68 0 -124 -40t-72 -81h-69q2 143 89 232t201 89z" />
    <glyph glyph-name="uni020C" unicode="&#x20c;" horiz-adv-x="1286" 
d="M649 51q111 0 196 161t111 417t-24 418q-49 161 -164 161t-199 -158q-83 -158 -109 -415q-26 -258 22 -421t167 -163zM644 -31q-263 0 -413 179q-151 178 -121 468t222 484t446 192q254 0 405 -179t120 -477t-213 -482t-446 -185zM692 1622l203 176q67 -63 107 -184
t34 -228l-73 -45zM328 1622l202 176q66 -63 107 -183t35 -229l-74 -45z" />
    <glyph glyph-name="uni020D" unicode="&#x20d;" horiz-adv-x="1007" 
d="M504 35q131 0 174 442q20 174 0 305t-86 131q-117 0 -160 -439t72 -439zM501 -31q-202 -1 -315 145q-114 146 -92 367t164 359t344 139q203 0 319 -137q116 -138 93 -362t-167 -368t-346 -143zM535 1341l200 175q66 -60 107 -182t35 -228l-74 -47zM170 1341l201 175
q67 -60 107 -182t34 -228l-72 -47z" />
    <glyph glyph-name="uni020E" unicode="&#x20e;" horiz-adv-x="1286" 
d="M649 51q111 0 196 161t111 417t-24 418q-49 161 -164 161t-199 -158q-83 -158 -109 -415q-26 -258 22 -421t167 -163zM644 -31q-263 0 -413 179q-151 178 -121 468t222 484t446 192q254 0 405 -179t120 -477t-213 -482t-446 -185zM800 1679q138 0 212 -98t57 -229h-94
q-11 43 -63 78q-52 34 -129 34t-139 -34t-75 -78h-96q12 133 100 230q89 97 227 97z" />
    <glyph glyph-name="uni020F" unicode="&#x20f;" horiz-adv-x="1007" 
d="M504 35q131 0 174 442q20 174 0 305t-86 131q-117 0 -160 -439t72 -439zM501 -31q-202 -1 -315 145q-114 146 -92 367t164 359t344 139q203 0 319 -137q116 -138 93 -362t-167 -368t-346 -143zM656 1372q114 0 180 -89t36 -232h-71q-11 43 -57 82t-112 39t-124 -40
q-56 -40 -72 -81h-69q2 143 89 232q86 89 200 89z" />
    <glyph glyph-name="uni0210" unicode="&#x210;" horiz-adv-x="1210" 
d="M672 1622l202 176q66 -63 107 -184t35 -228l-74 -45zM307 1622l203 176q66 -63 106 -183t35 -229l-73 -45zM684 1174h-74l-55 -564h66q199 0 229 282t-166 282zM711 1262q254 0 390 -92t118 -277q-25 -229 -271 -322l123 -331q49 -125 148 -166l-17 -74h-233
q-113 0 -160 31t-78 145l-98 346h-86l-37 -375q-6 -47 31 -53l116 -20l-14 -74h-569l14 74l53 18q35 14 39 55l96 967q6 43 -28 55l-60 19l17 74h506z" />
    <glyph glyph-name="uni0211" unicode="&#x211;" horiz-adv-x="866" 
d="M129 1341l201 175q66 -60 106 -182t35 -228l-72 -47zM494 1341l200 175q66 -60 107 -182t35 -228l-74 -47zM779 979q99 0 173 -84q-45 -184 -92 -281h-104l-29 217q-16 4 -31 5q-80 0 -176 -95l-71 -741l-322 -27l78 791q4 49 -27 65l-47 23l12 72q180 47 332 55h51
q12 -61 4 -135q150 135 249 135z" />
    <glyph glyph-name="uni0212" unicode="&#x212;" horiz-adv-x="1210" 
d="M771 1679q138 0 212 -98t57 -229h-94q-10 43 -62 78q-52 34 -129 34t-139 -34q-61 -35 -75 -78h-97q12 133 100 230t227 97zM684 1174h-74l-55 -564h66q199 0 229 282t-166 282zM711 1262q254 0 390 -92t118 -277q-25 -229 -271 -322l123 -331q49 -125 148 -166l-17 -74
h-233q-113 0 -160 31t-78 145l-98 346h-86l-37 -375q-6 -47 31 -53l116 -20l-14 -74h-569l14 74l53 18q35 14 39 55l96 967q6 43 -28 55l-60 19l17 74h506z" />
    <glyph glyph-name="uni0213" unicode="&#x213;" horiz-adv-x="866" 
d="M577 1372q113 0 179 -89t37 -232h-72q-10 43 -56 82t-113 39q-68 0 -124 -40t-72 -81h-69q2 143 89 232t201 89zM779 979q99 0 173 -84q-45 -184 -92 -281h-104l-29 217q-16 4 -31 5q-80 0 -176 -95l-71 -741l-322 -27l78 791q4 49 -27 65l-47 23l12 72q180 47 332 55h51
q12 -61 4 -135q150 135 249 135z" />
    <glyph glyph-name="uni0214" unicode="&#x214;" horiz-adv-x="1177" 
d="M653 -31q-274 1 -385 105t-84 377l68 663q2 43 -29 55l-59 19l16 74h549l-14 -74l-94 -21q-37 -6 -39 -53l-82 -817q-25 -233 215 -234q210 0 276 262q18 71 27 162l63 627q2 43 -28 55l-88 19l14 74h289l-15 -74l-51 -21q-37 -14 -41 -53l-59 -606q-27 -268 -131 -404
t-318 -135zM737 1622l203 176q66 -63 107 -184t34 -228l-73 -45zM373 1622l202 176q66 -63 107 -183t35 -229l-74 -45z" />
    <glyph glyph-name="uni0215" unicode="&#x215;" horiz-adv-x="1103" 
d="M242 1341l200 175q66 -60 107 -182t35 -228l-72 -47zM606 1341l201 175q67 -60 107 -182t34 -228l-74 -47zM322 -31q-113 0 -146 92t-12 308l39 395q4 49 -27 65l-47 23l12 72q180 47 332 55h51q14 -57 4 -143l-41 -410q-25 -244 31 -244q33 0 69 35t99 113
q18 206 62 618h317l-78 -778q-6 -53 33 -47l59 10l21 -72q-170 -68 -309 -92q-59 15 -95 73t-26 138q0 6 2 15q-194 -226 -350 -226z" />
    <glyph glyph-name="uni0216" unicode="&#x216;" horiz-adv-x="1177" 
d="M838 1679q138 0 213 -98q74 -98 57 -229h-94q-10 43 -62 78q-52 34 -130 34q-76 0 -138 -34t-76 -78h-96q12 133 100 230t226 97zM653 -31q-274 1 -385 105t-84 377l68 663q2 43 -29 55l-59 19l16 74h549l-14 -74l-94 -21q-37 -6 -39 -53l-82 -817q-25 -233 215 -234
q210 0 276 262q18 71 27 162l63 627q2 43 -28 55l-88 19l14 74h289l-15 -74l-51 -21q-37 -14 -41 -53l-59 -606q-27 -268 -131 -404t-318 -135z" />
    <glyph glyph-name="uni0217" unicode="&#x217;" horiz-adv-x="1103" 
d="M696 1372q114 0 178 -89q66 -89 37 -232h-71q-10 43 -56 82t-114 39q-66 0 -122 -40t-73 -81h-69q2 143 89 232t201 89zM322 -31q-113 0 -146 92t-12 308l39 395q4 49 -27 65l-47 23l12 72q180 47 332 55h51q14 -57 4 -143l-41 -410q-25 -244 31 -244q33 0 69 35t99 113
q18 206 62 618h317l-78 -778q-6 -53 33 -47l59 10l21 -72q-170 -68 -309 -92q-59 15 -95 73t-26 138q0 6 2 15q-194 -226 -350 -226z" />
    <glyph glyph-name="uni0218" unicode="&#x218;" horiz-adv-x="991" 
d="M472 -96q69 0 113 -46t44 -132q-2 -145 -92 -266t-248 -160l-13 77q94 37 139 75q44 38 68 108q-78 -2 -125 41t-45 128t46 130t113 45zM625 1292q113 0 229 -34t184 -80q-33 -145 -110 -273h-109l-31 283q-54 20 -128 20t-110 -41t-41 -101t28 -124q33 -66 89 -113
t120 -102t120 -105q55 -50 88 -123t25 -155q-17 -182 -157 -278t-349 -97q-274 0 -412 99q30 180 93 280h114l39 -274q39 -20 135 -20t138 39q41 40 48 112q7 71 -41 141t-120 132q-73 62 -145 129t-118 156t-36 185q16 158 144 251t313 93z" />
    <glyph glyph-name="uni0219" unicode="&#x219;" horiz-adv-x="886" 
d="M427 -96q69 0 113 -46t44 -132q-2 -145 -92 -266t-248 -160l-13 77q94 37 139 75q44 38 68 108q-78 -2 -125 41t-45 128t46 130t113 45zM401 51q133 0 144 80q7 69 -143 176q-62 45 -122 97t-101 126q-40 74 -32 158q14 135 122 213t282 78t348 -102q-23 -133 -88 -240
h-104l-19 229q-40 27 -98 27q-116 0 -121 -68q-7 -83 142 -203q63 -50 125 -104t104 -121q42 -68 34 -137q-14 -141 -142 -216t-310 -75q-242 0 -379 97q35 149 86 239h107l26 -231q49 -23 139 -23z" />
    <glyph glyph-name="uni021A" unicode="&#x21a;" horiz-adv-x="1058" 
d="M499 -96q69 0 113 -46t43 -132q-2 -145 -92 -266t-248 -160l-12 77q94 37 138 75t69 108q-78 -2 -125 41t-45 128t46 130t113 45zM412 1174q-45 0 -73 -44q-10 -14 -17 -27q-8 -13 -11 -18l-102 -165l-74 12q-6 176 60 330h931q29 -147 -6 -330l-86 -12l-61 167
q-2 5 -6 17t-6 15q-3 3 -7 13t-6 13q-12 24 -55 29h-76l-102 -1027q-6 -45 30 -53l111 -20l-14 -74h-604l16 74l94 18q31 8 37 55l102 1027h-75z" />
    <glyph glyph-name="uni021B" unicode="&#x21b;" horiz-adv-x="608" 
d="M207 858h-78l12 80q248 53 363 303h57l-29 -293h130l-15 -86h-123l-61 -616q-14 -147 61 -148q18 0 94 23l-16 -90q-78 -61 -218 -61t-196 73q-55 74 -43 219zM294 -96q69 0 113 -46t44 -132q-2 -145 -92 -266t-248 -160l-13 77q94 37 139 75q44 38 68 108
q-78 -2 -125 41t-45 128t46 130t113 45z" />
    <glyph glyph-name="uni0259" unicode="&#x259;" horiz-adv-x="929" 
d="M457 53q35 0 69 80q35 80 58 240l-172 -8q-14 -201 15 -281q12 -31 30 -31zM594 469v2l2 4q18 173 -27 277t-149 104q-72 0 -125 -37t-125 -125l-45 37q72 121 170 184t248 64q199 0 307 -138q108 -139 83 -365q-24 -226 -158 -366t-333 -141q-106 0 -184 50t-116 129
q-77 160 -60 321h512z" />
    <glyph glyph-name="circumflex" unicode="&#x2c6;" horiz-adv-x="622" 
d="M121 1120q141 227 301 357h76q137 -125 229 -355l-65 -61l-226 194l-260 -194z" />
    <glyph glyph-name="caron" unicode="&#x2c7;" horiz-adv-x="624" 
d="M150 1415l67 60l221 -195l264 195l54 -64q-133 -223 -299 -352h-78q-135 131 -229 356z" />
    <glyph glyph-name="breve" unicode="&#x2d8;" horiz-adv-x="620" 
d="M435 1251q67 0 120 39t74 82h71q0 -143 -84 -232t-198 -89t-182 89q-70 89 -43 232h71q6 -41 55 -81t116 -40z" />
    <glyph glyph-name="dotaccent" unicode="&#x2d9;" horiz-adv-x="358" 
d="M305 1393q70 0 115 -43t43 -128t-47 -130t-115 -45t-114 45t-43 130t46 128t115 43z" />
    <glyph glyph-name="ring" unicode="&#x2da;" horiz-adv-x="471" 
d="M367 1192q43 0 73 30t29 85q0 55 -28 84q-27 29 -71 29t-75 -32t-31 -83q-1 -113 103 -113zM357 1061q-110 1 -172 69t-60 176t70 180q68 70 173 70t172 -70q66 -70 64 -177q-2 -106 -70 -177t-177 -71z" />
    <glyph glyph-name="ogonek" unicode="&#x2db;" horiz-adv-x="542" 
d="M182 -412q-78 0 -131 50t-43 145t108 155t271 103l8 -49q-90 -47 -131 -88t-47 -113q-10 -102 66 -102q34 -1 69 26l29 -59q-78 -68 -199 -68z" />
    <glyph glyph-name="tilde" unicode="&#x2dc;" horiz-adv-x="665" 
d="M358 1395q60 0 136 -46t116 -46t57 16t31 63h90q-2 -121 -62 -217t-167 -96q-61 0 -126 52q-65 53 -122 53t-90 -74h-80q5 121 69 208t148 87z" />
    <glyph glyph-name="hungarumlaut" unicode="&#x2dd;" horiz-adv-x="776" 
d="M498 1098q51 254 131 391l211 -103l-219 -321zM172 1098q49 252 133 391l209 -103l-219 -321z" />
    <glyph glyph-name="uni03BC" unicode="&#x3bc;" horiz-adv-x="1112" 
d="M522 182q33 0 69 35t99 113q18 206 62 618h317l-78 -778q-6 -53 33 -47l59 10l21 -72q-170 -68 -309 -92q-59 15 -95 73t-26 138q0 6 2 15q-117 -135 -227 -193l-31 -326l-326 -63l115 1147q4 49 -27 65l-47 23l12 72q180 47 332 55h51q14 -57 4 -144l-40 -405
q-25 -244 30 -244z" />
    <glyph glyph-name="pi" unicode="&#x3c0;" horiz-adv-x="1163" 
d="M426 0h-256l80 788h-137l24 236h1120l-24 -236h-168l-80 -788h-252l78 788h-307z" />
    <glyph glyph-name="uni0401" unicode="&#x401;" horiz-adv-x="1005" 
d="M450 1675q68 0 112 -43t43 -127t-45 -128t-114 -44t-113 44q-44 44 -42 128q0 84 45 127t114 43zM885 1675q69 0 113 -43t42 -127t-47 -128t-113 -44t-113 44q-44 44 -42 129t46 127t114 42zM733 674q35 0 51 31t17 34l39 84h108l-65 -383h-90l-25 86q-2 6 -4 16l-3 15
q-1 4 -3 10t-5 8q-3 3 -9 7t-21 4h-170l-49 -498h137q68 0 94 51l117 195h109q20 -158 -33 -334h-854l14 74l53 18q35 14 39 55l96 967q6 43 -26 55l-60 19l15 74h837q12 -121 -47 -312h-110l-51 174q-8 29 -26 39t-54 11h-144l-49 -500h172z" />
    <glyph glyph-name="uni0402" unicode="&#x402;" horiz-adv-x="1310" 
d="M926 780q147 0 245 -63q177 -114 156 -312q-20 -198 -145 -349t-318 -214l-28 70q106 123 145 487q10 123 -26 191t-115 67q-51 0 -74 -6l-51 -504q-6 -45 30 -53l111 -20l-14 -74h-604l16 74l94 18q31 8 37 55l102 1027h-75q-45 0 -73 -44q-10 -14 -17 -27
q-8 -13 -11 -18l-102 -165l-74 12q-6 176 60 330h931q29 -147 -6 -330l-86 -12l-61 167q-2 5 -6 17t-6 15q-3 3 -7 13t-6 13q-12 24 -55 29h-76l-41 -414q74 20 150 20z" />
    <glyph glyph-name="uni0403" unicode="&#x403;" horiz-adv-x="921" 
d="M537 1362l-86 127l333 293l119 -221zM590 74l-17 -74h-499l14 74l53 18q35 14 39 55l96 967q6 43 -28 55l-60 19l17 74h788q29 -147 -6 -330l-84 -12l-63 167q-23 66 -40 76t-40 11h-150l-100 -1027q-4 -37 31 -53z" />
    <glyph glyph-name="uni0404" unicode="&#x404;" horiz-adv-x="1153" 
d="M733 -31q-317 0 -483 168q-166 167 -133 487t248 494t520 174q115 0 217 -32t164 -78q-25 -137 -109 -275h-100l-35 283q-47 18 -92 18q-172 0 -289 -152t-147 -372h421l-8 -88h-422q-16 -260 69 -401t229 -141t292 122l43 -57q-150 -150 -385 -150z" />
    <glyph glyph-name="uni0405" unicode="&#x405;" horiz-adv-x="991" 
d="M625 1292q113 0 229 -34t184 -80q-33 -145 -110 -273h-109l-31 283q-54 20 -128 20t-110 -41t-41 -101t28 -124q33 -66 89 -113t120 -102t120 -105q55 -50 88 -123t25 -155q-17 -182 -157 -278t-349 -97q-274 0 -412 99q30 180 93 280h114l39 -274q39 -20 135 -20t138 39
q41 40 48 112q7 71 -41 141t-120 132q-73 62 -145 129t-118 156t-36 185q16 158 144 251t313 93z" />
    <glyph glyph-name="uni0406" unicode="&#x406;" horiz-adv-x="653" 
d="M276 1114q6 43 -28 55l-60 19l17 74h508l-15 -74l-51 -21q-37 -14 -41 -53l-96 -967q-4 -37 31 -53l55 -20l-14 -74h-508l14 74l53 18q35 14 39 55z" />
    <glyph glyph-name="uni0407" unicode="&#x407;" horiz-adv-x="653" 
d="M694 1675q70 0 114 -43t42 -127t-47 -128t-114 -44t-113 44t-41 129q2 85 46 127q43 42 113 42zM259 1675q69 0 113 -43t43 -127t-45 -128t-114 -44t-114 44t-42 128q0 84 45 127t114 43zM276 1114q6 43 -28 55l-60 19l17 74h508l-15 -74l-51 -21q-37 -14 -41 -53
l-96 -967q-4 -37 31 -53l55 -20l-14 -74h-508l14 74l53 18q35 14 39 55z" />
    <glyph glyph-name="uni0408" unicode="&#x408;" horiz-adv-x="624" 
d="M492 68q-18 -190 -146 -308t-362 -143l-13 82q88 55 115 90q53 70 70 225l110 1100q6 43 -28 55l-60 19l17 74h507l-14 -74l-51 -21q-37 -14 -41 -53z" />
    <glyph glyph-name="uni0409" unicode="&#x409;" horiz-adv-x="1603" 
d="M1118 637h-41l-55 -557h41q96 0 141 72q46 72 60 219t-19 207t-127 59zM1214 719q193 0 306 -88q114 -88 96 -260q-18 -171 -143 -271t-320 -100h-561l14 74l53 18q35 14 39 55l103 1027h-250q-84 -622 -189 -890q-44 -116 -112 -206t-148 -109q-92 78 -108 162l51 57
l29 -26q14 -14 41 -15q76 0 139 110t103 281q70 300 96 541q2 59 -68 80l-88 29l14 74h920l-14 -74l-52 -21q-37 -14 -41 -53l-39 -395h129z" />
    <glyph glyph-name="uni040A" unicode="&#x40a;" horiz-adv-x="1757" 
d="M1274 637h-43l-55 -557h43q94 0 139 72t60 219t-18 207q-34 59 -126 59zM1368 719q194 0 306 -87t94 -259q-18 -173 -142 -273q-125 -100 -317 -100h-564l17 74l53 18q33 14 37 55l45 465h-342l-45 -465q-4 -37 31 -53l55 -20l-14 -74h-508l14 74l53 18q35 14 39 55
l96 967q6 43 -28 55l-60 19l17 74h508l-15 -74l-51 -21q-37 -14 -41 -53l-41 -414h342l41 414q6 43 -26 55l-60 19l15 74h507l-14 -74l-51 -21q-37 -14 -41 -53l-39 -395h129z" />
    <glyph glyph-name="uni040B" unicode="&#x40b;" horiz-adv-x="1349" 
d="M872 672q-66 0 -106 -15l-51 -510q-4 -41 30 -53l78 -20l-16 -74h-569l16 74l94 18q31 8 37 55l102 1027h-75q-45 0 -73 -44q-10 -14 -17 -27q-8 -13 -11 -18l-102 -165l-74 12q-6 176 60 330h931q29 -147 -6 -330l-86 -12l-61 167q-2 5 -6 17t-6 15q-3 3 -7 13t-6 13
q-12 24 -55 29h-76l-43 -441q102 51 248 51t228 -74q81 -74 65 -237l-33 -326q-4 -37 31 -53l55 -20l-16 -74h-502l14 74l51 18q33 14 37 55l29 289q14 139 -14 188q-29 48 -95 48z" />
    <glyph glyph-name="uni040C" unicode="&#x40c;" horiz-adv-x="1200" 
d="M1051 1446l-420 -113l-23 72q37 76 172 170t234 119zM276 1114q6 43 -28 55l-60 19l17 74h508l-15 -74l-51 -21q-37 -14 -41 -53l-43 -424l441 428q47 47 16 53l-94 17l14 74h363l-15 -74l-94 -23q-35 -10 -82 -59l-283 -275l289 -647q47 -104 133 -110l-14 -74h-434
l-246 567l-6 -8l-41 -412q-4 -37 31 -53l55 -20l-14 -74h-508l14 74l53 18q35 14 39 55z" />
    <glyph glyph-name="uni040E" unicode="&#x40e;" horiz-adv-x="980" 
d="M792 1567q78 0 137 35q60 35 77 77h94q-10 -131 -102 -229t-233 -98q-140 0 -207 97q-66 97 -52 230h94q6 -43 60 -77t132 -35zM322 127q60 0 97 23q36 23 77 86l-301 858q-27 76 -54 80l-61 12l14 76h615l-13 -74l-88 -19q-31 -6 -38 -16t3 -45l140 -455l225 461
q14 29 11 39t-25 14l-101 21l17 74h307l-17 -74l-34 -10q-47 -17 -72 -68l-346 -717q-213 -428 -449 -424q-98 63 -120 189l61 61q92 -92 152 -92z" />
    <glyph glyph-name="uni040F" unicode="&#x40f;" horiz-adv-x="1320" 
d="M797 0q-39 0 -57 -23t-35 -81l-43 -189h-76l-6 193q-6 100 -68 100h-440l14 74l53 18q35 14 39 55l96 967q6 43 -28 55l-60 19l17 74h508l-15 -74l-51 -21q-37 -14 -41 -53l-102 -1026h340l102 1026q6 43 -26 55l-60 19l14 74h508l-14 -74l-51 -21q-37 -14 -41 -53
l-96 -967q-2 -39 30 -53l58 -20l-17 -74h-452z" />
    <glyph glyph-name="uni0410" unicode="&#x410;" horiz-adv-x="1071" 
d="M487 885l-188 -445h287zM647 160l-43 192h-342l-80 -192q-12 -35 -5 -48t36 -18l90 -20l-14 -74h-320l13 74l67 20q23 10 43 58l467 1110h207l244 -1090q14 -63 45 -78l57 -20l-14 -74h-625l12 74l111 20q61 15 51 66z" />
    <glyph glyph-name="uni0411" unicode="&#x411;" horiz-adv-x="1083" 
d="M602 637h-43l-55 -557h41q96 0 141 72q46 72 60 219t-19 207t-125 59zM696 719q194 0 306 -87t95 -259q-17 -173 -143 -273t-317 -100h-563l14 74l53 18q35 14 39 55l96 967q6 43 -28 55l-60 19l17 74h813q29 -147 -6 -330l-84 -12l-64 167q-23 66 -40 76t-40 11h-172
l-45 -455h129z" />
    <glyph glyph-name="uni0412" unicode="&#x412;" horiz-adv-x="1153" 
d="M657 1174h-45l-45 -459h58q78 0 122 72t54 178q20 209 -144 209zM608 627h-51l-53 -539h69q90 0 149 72q58 72 70 190t-30 198q-43 79 -154 79zM721 1262q219 0 333 -67t97 -222q-10 -97 -75 -185t-195 -118q143 -33 205 -124t53 -206q-17 -162 -137 -251t-328 -89h-600
l14 74l53 18q35 14 39 55l96 967q6 43 -28 55l-60 19l17 74h516z" />
    <glyph glyph-name="uni0413" unicode="&#x413;" horiz-adv-x="921" 
d="M590 74l-17 -74h-499l14 74l53 18q35 14 39 55l96 967q6 43 -28 55l-60 19l17 74h788q29 -147 -6 -330l-84 -12l-63 167q-23 66 -40 76t-40 11h-150l-100 -1027q-4 -37 31 -53z" />
    <glyph glyph-name="uni0414" unicode="&#x414;" horiz-adv-x="1202" 
d="M575 1174q-53 -346 -121 -588t-194 -498h457l108 1086h-250zM909 0h-682q-39 0 -57 -17t-37 -69l-63 -207h-74q6 213 47 381h131q117 213 199 479t106 496q4 49 -1 63t-40 27l-112 35l14 74h928l-15 -72l-32 -12q-40 -16 -50 -32q-10 -15 -12 -34l-102 -1024h57
q8 -188 -29 -381h-71l-25 199q-6 54 -22 74t-58 20z" />
    <glyph glyph-name="uni0415" unicode="&#x415;" horiz-adv-x="1005" 
d="M733 674q35 0 51 31t17 34l39 84h108l-65 -383h-90l-25 86q-2 6 -4 16l-3 15q-1 4 -3 10t-5 8q-3 3 -9 7t-21 4h-170l-49 -498h137q68 0 94 51l117 195h109q20 -158 -33 -334h-854l14 74l53 18q35 14 39 55l96 967q6 43 -26 55l-60 19l15 74h837q12 -121 -47 -312h-110
l-51 174q-8 29 -26 39t-54 11h-144l-49 -500h172z" />
    <glyph glyph-name="uni0416" unicode="&#x416;" horiz-adv-x="1751" 
d="M825 1114q6 43 -26 55l-60 19l15 74h508l-15 -74l-51 -21q-37 -14 -41 -53l-43 -424l440 428q47 47 19 53l-96 17l14 74h362l-12 -74l-94 -23q-37 -12 -84 -59l-283 -275l289 -647q47 -104 133 -110l-12 -74h-436l-246 565l-6 -8l-41 -410q-4 -37 31 -53l57 -20l-17 -74
h-507l16 74l53 18q33 14 37 55l41 412l-6 8l-356 -567h-451l16 74q86 6 156 110l416 647l-226 275q-41 49 -71 59l-90 23l10 74h367l-15 -74l-98 -17q-29 -8 8 -53l352 -428z" />
    <glyph glyph-name="uni0417" unicode="&#x417;" horiz-adv-x="1003" 
d="M540 1212q-58 0 -89 -18l-101 -291h-98q-53 119 -55 283q168 106 386 106t336 -83t103 -226q-12 -117 -116 -212t-288 -109q184 -23 282 -113t85 -223q-10 -168 -162 -262t-374 -95q-301 0 -422 107q30 169 110 284h96l37 -288q61 -20 138 -21q115 0 174 84t67 180
q14 152 -49 220t-207 83l6 80q143 16 210 81t77 198q14 125 -49 193q-39 42 -97 42z" />
    <glyph glyph-name="uni0418" unicode="&#x418;" horiz-adv-x="1323" 
d="M276 1114q6 43 -28 55l-60 19l17 74h508l-15 -74l-51 -21q-37 -14 -41 -53l-86 -866l443 1014h419l-14 -74l-51 -21q-37 -14 -41 -53l-96 -967q-2 -39 30 -53l58 -20l-17 -74h-508l17 74l53 18q35 16 37 55l88 873l-442 -1020h-422l14 74l53 18q35 14 39 55z" />
    <glyph glyph-name="uni0419" unicode="&#x419;" horiz-adv-x="1323" 
d="M841 1567q77 0 137 35t77 77h94q-10 -131 -102 -229q-93 -98 -233 -98t-207 97q-66 97 -52 230h94q7 -43 61 -77t131 -35zM276 1114q6 43 -28 55l-60 19l17 74h508l-15 -74l-51 -21q-37 -14 -41 -53l-86 -866l443 1014h419l-14 -74l-51 -21q-37 -14 -41 -53l-96 -967
q-2 -39 30 -53l58 -20l-17 -74h-508l17 74l53 18q35 16 37 55l88 873l-442 -1020h-422l14 74l53 18q35 14 39 55z" />
    <glyph glyph-name="uni041A" unicode="&#x41a;" horiz-adv-x="1200" 
d="M276 1114q6 43 -28 55l-60 19l17 74h508l-15 -74l-51 -21q-37 -14 -41 -53l-43 -424l441 428q47 47 16 53l-94 17l14 74h363l-15 -74l-94 -23q-35 -10 -82 -59l-283 -275l289 -647q47 -104 133 -110l-14 -74h-434l-246 567l-6 -8l-41 -412q-4 -37 31 -53l55 -20l-14 -74
h-508l14 74l53 18q35 14 39 55z" />
    <glyph glyph-name="uni041B" unicode="&#x41b;" horiz-adv-x="1171" 
d="M551 1174q-84 -622 -189 -890q-44 -116 -112 -206t-148 -109q-92 78 -108 162l51 57l29 -26q14 -14 41 -15q76 0 139 110t103 281q70 300 96 541q2 59 -68 80l-88 29l14 74h920l-14 -74l-52 -21q-37 -14 -41 -53l-96 -967q-4 -37 31 -53l55 -20l-14 -74h-508l14 74l53 18
q35 14 39 55l103 1027h-250z" />
    <glyph glyph-name="uni041C" unicode="&#x41c;" horiz-adv-x="1599" 
d="M584 0q-166 684 -244 1006l-84 -854q-4 -33 35 -46l119 -32l-15 -74h-329l12 74l57 26q35 16 39 52l100 1013q-20 12 -61 23l16 74h402l223 -920l422 920h387l-16 -74l-91 -29l-100 -1012q-2 -39 31 -53l57 -20l-16 -74h-508l16 74l54 18q35 14 36 55l76 762l-414 -909
h-204z" />
    <glyph glyph-name="uni041D" unicode="&#x41d;" horiz-adv-x="1323" 
d="M276 1114q6 43 -28 55l-60 19l17 74h508l-15 -74l-51 -21q-37 -14 -41 -53l-41 -414h340l41 414q6 43 -26 55l-60 19l14 74h508l-14 -74l-51 -21q-37 -14 -41 -53l-96 -967q-4 -37 30 -53l58 -20l-17 -74h-508l17 74l53 18q33 14 37 55l45 465h-340l-45 -465
q-4 -37 31 -53l55 -20l-14 -74h-508l14 74l53 18q35 14 39 55z" />
    <glyph glyph-name="uni041E" unicode="&#x41e;" horiz-adv-x="1286" 
d="M649 51q111 0 196 161t111 417t-24 418q-49 161 -164 161t-199 -158q-83 -158 -109 -415q-26 -258 22 -421t167 -163zM644 -31q-263 0 -413 179q-151 178 -121 468t222 484t446 192q254 0 405 -179t120 -477t-213 -482t-446 -185z" />
    <glyph glyph-name="uni041F" unicode="&#x41f;" horiz-adv-x="1329" 
d="M276 1114q6 43 -28 55l-60 19l17 74h1184l-17 -74l-51 -21q-37 -14 -41 -53l-96 -967q-2 -39 30 -53l58 -20l-17 -74h-507l16 74l53 18q35 14 37 55l102 1027h-346l-100 -1027q-4 -37 31 -53l55 -20l-14 -74h-508l14 74l53 18q35 14 39 55z" />
    <glyph glyph-name="uni0420" unicode="&#x420;" horiz-adv-x="1114" 
d="M686 1174h-76l-59 -605h67q158 1 188 303t-120 302zM752 1262q214 0 328 -94t95 -290q-19 -198 -157 -297t-363 -100h-112l-33 -334q-6 -47 31 -53l112 -20l-14 -74h-565l14 74l53 18q35 14 39 55l96 967q6 43 -28 55l-60 19l17 74h547z" />
    <glyph glyph-name="uni0421" unicode="&#x421;" horiz-adv-x="1165" 
d="M843 1292q284 0 425 -106q-33 -152 -107 -279h-104l-31 283q-70 18 -106 18q-168 0 -302 -176t-158 -427t71 -403t257 -151q23 0 76 12l144 267h129q-4 -186 -47 -307q-160 -53 -359 -54q-319 0 -483 166q-164 167 -132 485t237 495q206 177 490 177z" />
    <glyph glyph-name="uni0422" unicode="&#x422;" horiz-adv-x="1058" 
d="M412 1174q-45 0 -73 -44q-10 -14 -17 -27q-8 -13 -11 -18l-102 -165l-74 12q-6 176 60 330h931q29 -147 -6 -330l-86 -12l-61 167q-2 5 -6 17t-6 15q-3 3 -7 13t-6 13q-12 24 -55 29h-76l-102 -1027q-6 -45 30 -53l111 -20l-14 -74h-604l16 74l94 18q31 8 37 55l102 1027
h-75z" />
    <glyph glyph-name="uni0423" unicode="&#x423;" horiz-adv-x="980" 
d="M322 127q60 0 97 23q36 23 77 86l-301 858q-27 76 -54 80l-61 12l14 76h615l-13 -74l-88 -19q-31 -6 -38 -16t3 -45l140 -455l225 461q14 29 11 39t-25 14l-101 21l17 74h307l-17 -74l-34 -10q-47 -17 -72 -68l-346 -717q-213 -428 -449 -424q-98 63 -120 189l61 61
q92 -92 152 -92z" />
    <glyph glyph-name="uni0424" unicode="&#x424;" horiz-adv-x="1515" 
d="M1206 627q27 291 -178 370l-74 -741q115 43 178 142q62 100 74 229zM438 618q-29 -283 187 -366l75 754q-231 -73 -262 -388zM711 1114q6 43 -27 55l-61 19l16 74h508l-14 -74l-52 -21q-37 -14 -41 -53l-4 -35q264 -19 402 -125t116 -336q-41 -395 -608 -442l-2 -29
q-4 -37 31 -53l57 -20l-16 -74h-508l14 74l53 18q35 14 39 55l2 29q-264 23 -406 126t-120 310q24 242 193 347t424 120z" />
    <glyph glyph-name="uni0425" unicode="&#x425;" horiz-adv-x="1175" 
d="M604 1116l187 -352l282 356q31 41 -12 51l-88 17l14 74h307l-14 -74l-49 -19q-20 -8 -57 -53l-343 -432l279 -522q29 -53 49 -68l29 -20l-17 -74h-583l16 74l86 20q47 10 23 64l-191 352l-262 -346q-45 -59 14 -70l103 -20l-17 -74h-366l14 74l80 24q25 8 76 74l317 418
l-272 510q-6 10 -16 35t-29 36l-39 17l12 74h592l-14 -74l-86 -21q-45 -10 -25 -51z" />
    <glyph glyph-name="uni0426" unicode="&#x426;" horiz-adv-x="1318" 
d="M1053 0h-981l14 74l53 18q35 14 39 55l96 967q6 43 -28 55l-60 19l17 74h508l-15 -74l-51 -21q-37 -14 -41 -53l-102 -1026h340l102 1026q6 43 -26 55l-60 19l14 74h508l-14 -74l-51 -21q-37 -14 -41 -53l-103 -1026h86q14 -154 -26 -381h-74l-22 199q-9 54 -25 74
t-57 20z" />
    <glyph glyph-name="uni0427" unicode="&#x427;" horiz-adv-x="1243" 
d="M535 471q-358 0 -330 307l35 336q2 43 -33 55l-78 19l12 74h566l-13 -74l-73 -21q-37 -14 -41 -53l-27 -268q-12 -138 27 -190t127 -52q51 0 110 31l49 479q6 43 -26 55l-62 19l17 74h508l-15 -74l-51 -21q-37 -14 -41 -53l-96 -967q-4 -37 30 -53l58 -20l-17 -74h-565
l15 74l110 18q33 6 39 55l39 404q-145 -80 -274 -80z" />
    <glyph glyph-name="uni0428" unicode="&#x428;" horiz-adv-x="1882" 
d="M891 1114q4 43 -29 55l-59 19l16 74h508l-16 -74l-51 -21q-35 -16 -39 -53l-103 -1026h285l102 1026q6 43 -28 55l-60 19l17 74h508l-15 -74l-51 -21q-37 -14 -41 -53l-96 -967q-4 -37 30 -53l58 -20l-17 -74h-1736l14 74l53 18q35 14 39 55l96 967q6 43 -28 55l-60 19
l17 74h508l-15 -74l-51 -21q-37 -14 -41 -53l-102 -1026h284z" />
    <glyph glyph-name="uni0429" unicode="&#x429;" horiz-adv-x="1878" 
d="M1612 0h-1540l14 74l53 18q35 14 39 55l96 967q6 43 -28 55l-60 19l17 74h508l-15 -74l-51 -21q-37 -14 -41 -53l-102 -1026h284l103 1026q4 43 -29 55l-59 19l16 74h508l-16 -74l-52 -21q-35 -16 -38 -53l-103 -1026h285l102 1026q6 43 -28 55l-60 19l17 74h507l-14 -74
l-51 -21q-37 -14 -41 -53l-102 -1026h86q6 -162 -29 -381h-72l-22 199q-8 54 -24 74t-58 20z" />
    <glyph glyph-name="uni042A" unicode="&#x42a;" horiz-adv-x="1286" 
d="M803 637h-43l-55 -557h43q94 0 139 72t60 219t-18 207q-34 59 -126 59zM897 719q193 0 305 -87t96 -259q-18 -173 -143 -273t-317 -100h-564l17 74l51 18q35 14 39 55l100 1027h-73q-45 0 -71 -39t-30 -50l-102 -165l-74 12q-6 176 59 330h789l-14 -74l-117 -21
q-35 -6 -41 -53l-39 -395h129z" />
    <glyph glyph-name="uni042B" unicode="&#x42b;" horiz-adv-x="1675" 
d="M602 637h-43l-55 -557h41q96 0 141 72q46 72 60 219t-19 207t-125 59zM1298 1114q6 43 -28 55l-60 19l17 74h508l-15 -74l-51 -21q-37 -14 -41 -53l-96 -967q-4 -37 31 -53l55 -20l-14 -74h-508l14 74l53 18q35 14 39 55zM637 0h-563l14 74l53 18q35 14 39 55l96 967
q6 43 -28 55l-60 19l17 74h508l-15 -74l-51 -21q-37 -14 -41 -53l-39 -395h129q194 0 306 -87t95 -259q-17 -173 -142 -273t-318 -100z" />
    <glyph glyph-name="uni042C" unicode="&#x42c;" horiz-adv-x="1085" 
d="M602 637h-43l-55 -557h41q96 0 141 72q46 72 60 219t-19 207t-125 59zM637 0h-563l14 74l53 18q35 14 39 55l96 967q6 43 -28 55l-60 19l17 74h508l-15 -74l-51 -21q-37 -14 -41 -53l-39 -395h129q194 0 306 -87t95 -259q-17 -173 -142 -273t-318 -100z" />
    <glyph glyph-name="uni042D" unicode="&#x42d;" horiz-adv-x="1153" 
d="M389 53q143 -1 257 141t149 402h-420l8 88h420q14 221 -72 373t-258 151q-41 0 -96 -18l-90 -283h-101q-55 135 -53 275q69 47 179 79t225 31q416 0 573 -299q82 -156 59 -377q-31 -309 -231 -478t-516 -169q-233 0 -354 150l53 57q125 -123 268 -123z" />
    <glyph glyph-name="uni042E" unicode="&#x42e;" horiz-adv-x="1908" 
d="M1380 1208q-116 0 -194 -156t-104 -415q-26 -258 28 -422t168 -164q115 0 195 160q79 160 105 415q26 254 -28 418t-170 164zM1420 1292q245 0 390 -178q146 -178 116 -476t-217 -483t-449 -185t-408 174q-145 175 -119 466h-180l-45 -463q-4 -37 31 -53l55 -20l-14 -74
h-508l14 74l53 18q35 14 39 55l96 967q6 43 -28 55l-60 19l17 74h508l-15 -74l-51 -21q-37 -14 -41 -53l-43 -418h184q51 256 241 426t434 170z" />
    <glyph glyph-name="uni042F" unicode="&#x42f;" horiz-adv-x="1212" 
d="M721 610h63l56 564h-70q-192 0 -220 -282t171 -282zM252 0h-244l12 74q98 39 177 166l188 329q-229 92 -205 324q16 178 174 273t408 96h518l-12 -74l-64 -19q-33 -10 -39 -55l-96 -967q-6 -43 27 -55l61 -18l-10 -74h-569l10 74l110 20q35 8 41 53l37 375h-88l-164 -346
q-55 -116 -108 -146t-164 -30z" />
    <glyph glyph-name="uni0430" unicode="&#x430;" horiz-adv-x="1075" 
d="M428 403q0 -241 100 -241q49 0 129 100l66 635l-43 2q-74 0 -127 -58q-53 -59 -79 -151q-46 -164 -46 -287zM373 -31q-117 1 -200 107t-83 301q0 256 166 429t416 173q156 0 366 -88l-71 -721q-6 -53 32 -47l60 10l20 -72q-172 -68 -307 -92q-50 13 -70 61t-26 132
q-150 -193 -303 -193z" />
    <glyph glyph-name="uni0431" unicode="&#x431;" horiz-adv-x="1069" 
d="M551 37q127 0 164 383t-86 383t-160 -383t82 -383zM631 870q215 0 337 -125t102 -325t-166 -326q-144 -125 -357 -125t-330 167q-117 166 -86 448t143 466q113 183 342 218q47 6 165 13t192 23t112 54h62q-41 -387 -389 -393q-441 -15 -539 -312l8 -2q57 95 161 157
t243 62z" />
    <glyph glyph-name="uni0432" unicode="&#x432;" horiz-adv-x="956" 
d="M584 901q-117 0 -146 -395q96 31 142 100q45 70 51 146q0 149 -47 149zM506 49q40 -1 66 63t26 142q6 166 -53 201q-2 0 -111 -35q-6 -150 10 -260t62 -111zM661 979q144 0 225 -59t77 -164q-6 -84 -75 -142t-202 -108q129 -2 195 -68t61 -153q-8 -135 -143 -225
t-326 -91q-191 0 -294 116t-89 329q8 202 144 377q67 84 175 136t252 52z" />
    <glyph glyph-name="uni0433" unicode="&#x433;" horiz-adv-x="749" 
d="M305 -31q-203 0 -203 164q0 76 60 198q60 123 120 233t60 170t-53 59q-23 0 -65 -26t-77 -67l-53 68q94 102 218 156t249 55q178 0 193 -150q6 -79 -54 -197t-126 -229q-65 -111 -64 -167q0 -30 15 -46t38 -16q59 0 133 68l58 -62q-217 -211 -449 -211z" />
    <glyph glyph-name="uni0434" unicode="&#x434;" horiz-adv-x="1071" 
d="M584 49q80 -1 116 143t35 336q0 192 -26 340q-35 23 -76 23q-94 0 -139 -143t-45 -312q0 -387 135 -387zM594 979q51 0 94 -16q-41 151 -131 263t-244 208l21 43q213 -47 380 -172t254 -280t103 -318q19 -117 -19 -324q-30 -162 -157 -289q-57 -57 -149 -91t-203 -34
q-203 0 -325 135q-122 136 -122 358t142 370t356 147z" />
    <glyph glyph-name="uni0435" unicode="&#x435;" horiz-adv-x="978" 
d="M598 893q-59 0 -101 -122t-46 -304q83 31 147 105t64 192q0 55 -18 92t-46 37zM997 737q1 -141 -153 -231t-393 -127q8 -133 61 -208t131 -75t141 38t142 118l57 -59q-160 -223 -440 -224q-211 0 -331 116t-120 316q0 244 148 411t389 167q162 0 265 -70t103 -172z" />
    <glyph glyph-name="uni0436" unicode="&#x436;" horiz-adv-x="2179" 
d="M1784 -31q-190 0 -300 128t-100 339l-102 -162l-27 -274h-333l47 455l-152 -240q-131 -246 -438 -246q-199 0 -346 99q31 139 102 266h90l27 -260q39 -25 90 -25q82 0 139 113t75 299t-25 298q-44 112 -140 111q-45 0 -90 -26t-63 -42q-18 -17 -70 -71l-47 43
q86 104 166 154t209 51q190 0 300 -129t97 -338l96 154l31 282h330l-47 -465l149 234q129 262 449 262q199 0 346 -98q-31 -139 -103 -267h-90l-26 260q-39 25 -91 25q-82 0 -139 -112q-58 -112 -76 -297t26 -299t140 -113q45 0 90 26t64 42q18 18 69 71l48 -43
q-86 -104 -166 -154t-209 -51z" />
    <glyph glyph-name="uni0437" unicode="&#x437;" horiz-adv-x="868" 
d="M127 868q133 111 395 111q130 0 230 -58q100 -57 100 -153t-67 -166t-205 -96q132 -25 204 -86t72 -152q0 -129 -118 -214t-344 -85t-337 109q0 98 35 196h105l51 -202q49 -20 98 -21q80 1 127 63t47 148q0 184 -207 201l2 82q100 12 151 58q50 46 50 145q0 150 -119 149
q-41 0 -69 -12l-60 -209h-102q-39 86 -39 192z" />
    <glyph glyph-name="uni0438" unicode="&#x438;" horiz-adv-x="1103" 
d="M322 -31q-113 0 -146 92t-12 308l39 395q4 49 -27 65l-47 23l12 72q180 47 332 55h51q14 -57 4 -143l-41 -410q-25 -244 31 -244q33 0 69 35t99 113q18 206 62 618h317l-78 -778q-6 -53 33 -47l59 10l21 -72q-170 -68 -309 -92q-59 15 -95 73t-26 138q0 6 2 15
q-194 -226 -350 -226z" />
    <glyph glyph-name="uni0439" unicode="&#x439;" horiz-adv-x="1103" 
d="M667 1251q67 0 119 39t74 82h72q0 -143 -84 -232t-198 -89t-184 89t-42 232h72q6 -41 55 -81t116 -40zM322 -31q-113 0 -146 92t-12 308l39 395q4 49 -27 65l-47 23l12 72q180 47 332 55h51q14 -57 4 -143l-41 -410q-25 -244 31 -244q33 0 69 35t99 113q18 206 62 618
h317l-78 -778q-6 -53 33 -47l59 10l21 -72q-170 -68 -309 -92q-59 15 -95 73t-26 138q0 6 2 15q-194 -226 -350 -226z" />
    <glyph glyph-name="uni043A" unicode="&#x43a;" horiz-adv-x="1026" 
d="M528 776l-24 -241l262 264q35 35 30 49t-16 16l-73 13l12 71h354l-14 -71l-109 -25q-43 -12 -86 -57l-143 -146l237 -489q12 -27 41 -54t64 -32l-14 -74h-396l-166 379l-36 -379l-322 -27l80 799q4 45 -45 62l-43 14l16 74q195 49 350 57h43q8 -88 -2 -203z" />
    <glyph glyph-name="uni043B" unicode="&#x43b;" horiz-adv-x="976" 
d="M346 782q0 40 -15 56t-59 20l-106 12l14 78h762l-82 -778q-6 -53 33 -47l59 10l21 -72q-170 -68 -309 -92q-58 15 -94 73t-27 138l73 688h-178q4 -725 -395 -899q-39 102 -23 195q131 6 229 160q97 154 97 458z" />
    <glyph glyph-name="uni043C" unicode="&#x43c;" horiz-adv-x="1302" 
d="M942 948h324l-80 -778q-6 -53 33 -47l59 10l20 -72q-170 -68 -309 -92q-59 15 -94 73t-27 138l52 514l-297 -651h-158l-111 592q-34 -271 -112 -457t-189 -209q-41 94 -20 195q76 -4 131 95q97 175 123 595q-14 8 -56 20l-77 15l10 59l428 2l104 -538z" />
    <glyph glyph-name="uni043D" unicode="&#x43d;" horiz-adv-x="1097" 
d="M449 0l-322 -27l82 801q4 45 -45 62l-43 14l12 72q195 49 350 57h43q8 -88 -2 -203l-26 -262h202l45 434l318 27l-80 -805q-6 -53 33 -47l59 10l21 -72q-170 -68 -310 -92q-59 15 -94 73t-26 138l24 250h-201z" />
    <glyph glyph-name="uni043E" unicode="&#x43e;" horiz-adv-x="1007" 
d="M504 35q131 0 174 442q20 174 0 305t-86 131q-117 0 -160 -439t72 -439zM501 -31q-202 -1 -315 145q-114 146 -92 367t164 359t344 139q203 0 319 -137q116 -138 93 -362t-167 -368t-346 -143z" />
    <glyph glyph-name="uni043F" unicode="&#x43f;" horiz-adv-x="1107" 
d="M877 979q113 0 145 -92t12 -307l-41 -410q-6 -53 33 -47l61 10l19 -72l-318 -92q-66 0 -96 39t-18 162l37 352q25 244 -31 244q-22 0 -52 -23t-49 -47t-67 -78l-61 -618l-322 -27l80 799q4 45 -45 62l-43 14l16 74q195 49 350 57h43q8 -88 -2 -203l-2 -24
q197 227 351 227z" />
    <glyph glyph-name="uni0440" unicode="&#x440;" horiz-adv-x="1071" 
d="M676 831q-70 0 -160 -100l-65 -647q45 -16 75 -16q166 0 205 411q39 352 -55 352zM797 979q139 0 219 -121q80 -120 54 -372t-160 -384t-339 -133q-63 0 -129 23l-24 -250q-4 -31 20 -33l144 -22l-13 -74h-569l12 74l43 18q41 16 47 57l101 1002q6 49 -29 65l-47 23
l12 72q180 47 332 55h51q14 -57 4 -141l-2 -7q61 63 135 105t138 43z" />
    <glyph glyph-name="uni0441" unicode="&#x441;" horiz-adv-x="888" 
d="M494 -31q-199 1 -310 141t-87 372t155 364q131 133 344 133t360 -98q-31 -139 -102 -267h-90l-27 260q-39 25 -90 25q-82 0 -139 -111q-58 -111 -76 -297t26 -300t140 -113q45 0 90 26t64 42q18 18 69 71l47 -43q-86 -104 -166 -154t-208 -51z" />
    <glyph glyph-name="uni0442" unicode="&#x442;" horiz-adv-x="1632" 
d="M877 979q88 0 127 -55t40 -176q201 231 357 231q113 0 145 -92t13 -307l-41 -410q-6 -53 32 -47l60 10l20 -72l-317 -92q-67 0 -97 39t-18 162l37 352q25 244 -31 244q-32 0 -68 -35t-98 -110l-67 -621h-320l60 522q27 244 -31 244q-22 0 -52 -23t-49 -47t-67 -78
l-61 -618l-322 -27l80 799q4 45 -45 62l-43 14l16 74q195 49 350 57h43q8 -88 -2 -203l-2 -24q197 227 351 227z" />
    <glyph glyph-name="uni0443" unicode="&#x443;" horiz-adv-x="966" 
d="M418 979h39q35 -57 49 -131l133 -680q125 154 199 318t74 250q0 87 -27 108l-146 20l-6 54q51 41 129 61q137 0 144 -195q0 -133 -100 -343q-100 -211 -303 -447q-202 -236 -443 -385l-76 145q209 111 324 195l-58 39l-182 839q-4 31 -39 39l-49 11l16 71q139 31 322 31z
" />
    <glyph glyph-name="uni0444" unicode="&#x444;" horiz-adv-x="1574" 
d="M1182 831q-66 0 -160 -106l-66 -641q45 -16 76 -16q166 0 205 411q39 352 -55 352zM494 117q68 0 161 106l64 639q-47 18 -76 19q-166 0 -205 -406q-38 -358 56 -358zM373 -31q-139 0 -219 123t-58 354q29 270 163 402t339 131q66 0 131 -25l25 248q4 55 -45 62l-93 14
l13 72q188 47 399 57h43q8 -88 -2 -203l-37 -379q142 154 276 154t214 -121q80 -120 54 -372t-160 -384t-339 -133q-63 0 -129 23l-24 -250q-4 -31 20 -33l143 -22l-12 -74h-569l12 74l43 18q41 16 47 57l37 361q-61 -66 -135 -110t-137 -44z" />
    <glyph glyph-name="uni0445" unicode="&#x445;" horiz-adv-x="915" 
d="M813 768q0 51 -18 72l-158 14l-4 47q82 59 170 78q137 0 143 -133q0 -152 -272 -354l149 -347q10 -23 33 -34l57 -29l-14 -76q-145 -29 -293 -37h-41q-49 59 -76 123l-122 291q-145 -123 -146 -203q0 -49 21 -71l155 -15l4 -47q-82 -59 -170 -78q-137 0 -143 133
q0 143 246 357l-141 338q-10 27 -37 34l-80 33l14 74q145 31 307 41h43q51 -61 80 -131l121 -281q172 119 172 201z" />
    <glyph glyph-name="uni0446" unicode="&#x446;" horiz-adv-x="1105" 
d="M520 182q33 0 69 35t99 113q18 206 62 618h317l-78 -778q-6 -53 33 -47l59 10l21 -72q-61 -25 -92 -34q-6 -31 -6 -72l6 -180q-2 -82 -42 -151t-151 -130l-39 39q43 61 43 256q1 59 21 107t84 104q-119 -29 -133 -31q-59 15 -95 73t-26 138q0 6 2 15q-195 -225 -350 -226
q-113 0 -146 92t-12 308l39 395q4 49 -27 65l-47 23l12 72q180 47 332 55h51q14 -57 4 -143l-41 -410q-25 -244 31 -244z" />
    <glyph glyph-name="uni0447" unicode="&#x447;" horiz-adv-x="1007" 
d="M1006 61q-170 -68 -310 -92q-59 15 -94 73t-27 138l15 137q-92 -39 -168 -38q-299 0 -264 307l20 188q4 45 -45 62l-43 14l12 72q195 49 351 57h43q8 -88 -2 -203l-17 -155q-20 -219 78 -220q12 0 45 9l57 546l318 23l-82 -809q-6 -53 33 -47l59 10z" />
    <glyph glyph-name="uni0448" unicode="&#x448;" horiz-adv-x="1628" 
d="M848 -31q-90 1 -128 57t-40 179q-205 -236 -358 -236q-113 0 -146 92t-12 308l39 395q4 49 -27 65l-47 23l12 72q180 47 332 55h51q14 -57 4 -143l-41 -410q-25 -244 31 -244q42 0 102 69q19 24 66 79l62 618h319l-53 -522q-25 -244 30 -244q33 0 69 35t99 113
q18 206 62 618h317l-78 -778q-6 -53 33 -47l60 10l20 -72q-170 -68 -309 -92q-59 15 -94 73t-27 138q0 6 2 15q-194 -226 -350 -226z" />
    <glyph glyph-name="uni0449" unicode="&#x449;" horiz-adv-x="1632" 
d="M324 -31q-113 0 -146 92t-12 308l39 395q4 49 -27 65l-47 23l12 72q180 47 332 55h51q14 -57 4 -143l-41 -410q-25 -244 31 -244q42 0 102 69q19 24 66 79l62 618h319l-53 -522q-25 -244 31 -244q33 0 69 35t98 113q18 206 62 618h317l-77 -778q-6 -53 32 -47l60 10
l20 -72q-102 -39 -151 -53q-6 -12 -1 -111t5 -122q-2 -82 -42 -151t-151 -130l-39 39q43 61 43 256q4 111 84 193l-57 -13q-59 15 -94 73t-27 138q0 6 2 15q-195 -225 -350 -226q-90 1 -128 57t-40 179q-205 -236 -358 -236z" />
    <glyph glyph-name="uni044A" unicode="&#x44a;" horiz-adv-x="1120" 
d="M721 508q-10 0 -39 -8l-29 -307q-12 -107 23 -131q12 -9 24 -9q47 0 75 75t28 174q0 206 -82 206zM890 627q86 0 166 -67t79 -183q-1 -168 -133 -288t-324 -120t-281 78q-90 78 -73 225l59 596h-33q-30 0 -52 -15t-32 -31t-30 -52l-72 -147l-80 12q0 170 59 313h580
l-33 -354q114 33 200 33z" />
    <glyph glyph-name="uni044B" unicode="&#x44b;" horiz-adv-x="1464" 
d="M537 508q-20 0 -41 -6l-27 -309q-12 -107 23 -131q12 -9 24 -9q47 0 75 75t27 179q0 201 -81 201zM1462 61q-170 -68 -309 -92q-59 15 -94 73t-27 138l64 594q4 45 -45 62l-43 14l12 72q195 49 350 57h43q8 -88 -2 -203l-61 -606q-6 -53 32 -47l60 10zM500 -31
q-373 0 -342 303l49 502q4 45 -45 62l-43 14l12 72q195 49 350 57h43q6 -76 -4 -203l-16 -182q88 33 188 33t179 -67t79 -183q0 -168 -132 -288t-318 -120z" />
    <glyph glyph-name="uni044C" unicode="&#x44c;" horiz-adv-x="933" 
d="M537 508q-20 0 -41 -6l-27 -309q-12 -107 23 -131q12 -9 24 -9q47 0 75 75t27 179q0 201 -81 201zM500 -31q-373 0 -342 303l49 502q4 45 -45 62l-43 14l12 72q195 49 350 57h43q6 -76 -4 -203l-16 -182q88 33 188 33t179 -67t79 -183q0 -168 -132 -288t-318 -120z" />
    <glyph glyph-name="uni044D" unicode="&#x44d;" horiz-adv-x="948" 
d="M367 78q89 0 153 98t88 262l-280 -16l12 123l278 -17q12 170 -30 271q-43 100 -135 100q-68 0 -109 -25l-80 -260h-90q-47 137 -47 267q159 98 399 98t345 -133q105 -134 81 -364t-162 -371t-339 -142q-158 0 -247 50t-155 155l55 43q106 -139 263 -139z" />
    <glyph glyph-name="uni044E" unicode="&#x44e;" horiz-adv-x="1560" 
d="M1057 49q129 0 172 424t-88 424q-115 0 -158 -424t74 -424zM1160 979q198 0 313 -137q115 -138 92 -362t-167 -367t-340 -143t-310 132q-113 133 -105 340h-151l-43 -442l-322 -27l82 801q4 45 -45 62l-43 14l12 72q195 49 350 57h43q8 -88 -2 -203l-24 -250h153
q35 203 172 328t335 125z" />
    <glyph glyph-name="uni044F" unicode="&#x44f;" horiz-adv-x="991" 
d="M598 864q-61 0 -95 -70t-34 -166q0 -206 113 -214l47 450h-31zM606 948h350l-82 -778q-6 -53 33 -47l60 10l20 -72q-170 -68 -309 -92q-59 15 -94 73t-27 138l14 148q-31 0 -82 6q-164 -334 -387 -365q-35 82 -22 195q186 -8 313 186q-283 70 -282 266q0 332 495 332z
" />
    <glyph glyph-name="uni0451" unicode="&#x451;" horiz-adv-x="978" 
d="M598 893q-59 0 -101 -122t-46 -304q83 31 147 105t64 192q0 55 -18 92t-46 37zM816 1427q71 0 116 -44t43 -130t-47 -131t-116 -45t-116 45t-43 132t47 130t116 43zM380 1427q71 0 115 -43t43 -130t-46 -132t-116 -45t-117 45t-44 132t48 130t117 43zM997 737
q1 -141 -153 -231t-393 -127q8 -133 61 -208t131 -75t141 38t142 118l57 -59q-160 -223 -440 -224q-211 0 -331 116t-120 316q0 244 148 411t389 167q162 0 265 -70t103 -172z" />
    <glyph glyph-name="uni0452" unicode="&#x452;" horiz-adv-x="1062" 
d="M744 866q146 0 223 -103q76 -103 55 -308l-27 -260q-18 -188 -140 -339t-306 -218l-27 57q106 123 142 500l20 198q40 361 -88 361q-57 0 -104 -25l-72 -729l-320 -27l109 1084h-119l6 82h121l6 63q4 55 -45 62l-92 14l12 72q188 47 400 57h43q8 -88 -2 -203l-7 -65h336
l-8 -82h-336l-24 -248q98 57 244 57z" />
    <glyph glyph-name="uni0453" unicode="&#x453;" horiz-adv-x="751" 
d="M305 -31q-203 0 -203 164q0 76 60 198q60 123 120 233t60 170t-53 59q-23 0 -65 -26t-77 -67l-53 68q94 102 218 156t249 55q178 0 193 -150q6 -79 -54 -197t-126 -229q-65 -111 -64 -167q0 -30 15 -46t38 -16q59 0 133 68l58 -62q-217 -211 -449 -211zM760 1350
l-326 -283l-65 47q16 106 82 227t141 183z" />
    <glyph glyph-name="uni0454" unicode="&#x454;" horiz-adv-x="950" 
d="M520 -31q-212 0 -328 137t-94 369t154 368t372 136t382 -98q-31 -139 -103 -267h-90l-27 263q-34 23 -114 23t-144 -93q-64 -92 -86 -248l285 16l-12 -122l-281 18q-10 -181 40 -287t151 -106q137 0 268 139l45 -43q-84 -102 -176 -154t-242 -51z" />
    <glyph glyph-name="uni0455" unicode="&#x455;" horiz-adv-x="886" 
d="M401 51q133 0 144 80q7 69 -143 176q-62 45 -122 97t-101 126q-40 74 -32 158q14 135 122 213t282 78t348 -102q-23 -133 -88 -240h-104l-19 229q-40 27 -98 27q-116 0 -121 -68q-7 -83 142 -203q63 -50 125 -104t104 -121q42 -68 34 -137q-14 -141 -142 -216t-310 -75
q-242 0 -379 97q35 149 86 239h107l26 -231q49 -23 139 -23z" />
    <glyph glyph-name="uni0456" unicode="&#x456;" horiz-adv-x="587" 
d="M580 61q-170 -68 -310 -92q-59 15 -94 73t-26 138l63 594q4 45 -45 62l-43 14l12 72q195 49 350 57h43q8 -88 -2 -203l-61 -606q-6 -53 33 -47l59 10zM389 1051q-78 0 -129 51t-49 146q2 96 52 146t129 50t131 -51t50 -145t-54 -145q-52 -52 -130 -52z" />
    <glyph glyph-name="uni0457" unicode="&#x457;" horiz-adv-x="585" 
d="M580 61q-170 -68 -310 -92q-59 15 -94 73t-26 138l63 594q4 45 -45 62l-43 14l12 72q195 49 350 57h43q8 -88 -2 -203l-61 -606q-6 -53 33 -47l59 10zM624 1427q72 0 116 -44t42 -130t-47 -131t-115 -45t-116 45q-45 45 -43 132t47 130t116 43zM188 1427q70 0 114 -43
t43 -130t-46 -132t-116 -45t-117 45t-43 132q2 87 48 130q47 43 117 43z" />
    <glyph glyph-name="uni0458" unicode="&#x458;" horiz-adv-x="544" 
d="M455 72q-17 -193 -139 -312t-347 -143l-16 74q4 3 35 27q79 60 94 100q6 16 23 57t26 139l80 760q4 45 -45 62l-43 14l12 72q195 49 350 57h43q8 -88 -2 -203zM387 1051q-78 0 -129 51t-49 146q2 96 52 146t129 50t131 -51t50 -145t-54 -145q-52 -52 -130 -52z" />
    <glyph glyph-name="uni0459" unicode="&#x459;" horiz-adv-x="1341" 
d="M942 508q-10 0 -39 -8l-29 -307q-6 -55 2 -89q13 -51 46 -51q47 0 74 75q28 75 28 174q0 206 -82 206zM1111 627q87 0 166 -67t79 -183q0 -168 -132 -288t-324 -120t-282 78t-73 225l59 596h-166q4 -725 -395 -899q-39 102 -23 195q131 6 229 160q97 154 97 458
q0 40 -15 56t-59 20l-106 12l14 78h764l-33 -354q113 33 200 33z" />
    <glyph glyph-name="uni045A" unicode="&#x45a;" horiz-adv-x="1468" 
d="M1067 508q-10 0 -39 -8l-29 -307q-12 -107 23 -131q12 -9 25 -9q47 0 74 75q28 75 28 174q0 206 -82 206zM1236 627q87 0 166 -67t79 -183q0 -168 -132 -288t-323 -120t-281 78t-75 225l14 158h-195l-40 -430l-322 -27l82 801q4 45 -45 62l-43 14l12 72q195 49 350 57h43
q8 -88 -2 -203l-26 -262h194l45 434h332l-33 -354q113 33 200 33z" />
    <glyph glyph-name="uni045B" unicode="&#x45b;" horiz-adv-x="1079" 
d="M848 979q114 0 146 -92t12 -307l-41 -410q-6 -53 32 -47l62 10l18 -72l-317 -92q-66 0 -96 39t-19 162l37 352q25 244 -31 244q-33 0 -69 -35t-97 -110l-63 -621l-322 -27l111 1084h-88l6 82h90l6 61q4 45 -45 62l-43 14l17 74q195 49 350 57h43q8 -88 -2 -203l-8 -65
h278l-8 -82h-279l-30 -303q195 225 350 225z" />
    <glyph glyph-name="uni045C" unicode="&#x45c;" horiz-adv-x="1026" 
d="M942 1350l-326 -283l-65 47q16 106 82 227t141 183zM528 776l-24 -241l262 264q35 35 30 49t-16 16l-73 13l12 71h354l-14 -71l-109 -25q-43 -12 -86 -57l-143 -146l237 -489q12 -27 41 -54t64 -32l-14 -74h-396l-166 379l-36 -379l-322 -27l80 799q4 45 -45 62l-43 14
l16 74q195 49 350 57h43q8 -88 -2 -203z" />
    <glyph glyph-name="uni045E" unicode="&#x45e;" horiz-adv-x="966" 
d="M648 1251q67 0 120 39t74 82h71q0 -143 -84 -232q-83 -89 -197 -89t-184 89t-42 232h71q6 -41 55 -81t116 -40zM418 979h39q35 -57 49 -131l133 -680q125 154 199 318t74 250q0 87 -27 108l-146 20l-6 54q51 41 129 61q137 0 144 -195q0 -133 -100 -343
q-100 -211 -303 -447q-202 -236 -443 -385l-76 145q209 111 324 195l-58 39l-182 839q-4 31 -39 39l-49 11l16 71q139 31 322 31z" />
    <glyph glyph-name="uni045F" unicode="&#x45f;" horiz-adv-x="1105" 
d="M324 -31q-113 0 -146 92t-12 308l39 395q4 49 -27 65l-47 23l12 72q180 47 332 55h51q14 -57 4 -143l-41 -410q-25 -244 31 -244q33 0 69 35t99 113q18 206 62 618h317l-78 -778q-6 -53 33 -47l59 10l21 -72q-170 -68 -309 -92q-59 15 -95 73t-26 138q0 6 2 15
q-59 -66 -109 -111q-6 -31 -6 -71l6 -177q-2 -82 -42 -150t-150 -130l-39 38q35 50 39 124t6 142t74 146q-70 -37 -129 -37z" />
    <glyph glyph-name="uni0490" unicode="&#x490;" horiz-adv-x="913" 
d="M745 1262q37 0 57 19q19 19 50 69l94 157l84 -14q-4 -178 -59 -319h-363l-100 -1027q-6 -47 31 -53l116 -20l-16 -74h-567l14 74l53 18q35 14 39 55l96 967q6 43 -28 55l-60 19l17 74h542z" />
    <glyph glyph-name="uni0491" unicode="&#x491;" horiz-adv-x="755" 
d="M592 948q42 0 64 23t49 69l75 148l82 -12q0 -160 -57 -308h-256l-74 -739q-2 -27 21 -33l106 -22l-14 -74h-514l12 74l27 18q47 24 47 58l65 651q4 39 -37 57l-43 19l15 71h432z" />
    <glyph glyph-name="uni1E02" unicode="&#x1e02;" horiz-adv-x="1153" 
d="M657 1174h-45l-45 -459h58q78 0 122 72t54 178q20 209 -144 209zM709 1700q69 0 113 -43t43 -128t-46 -129t-113 -44t-113 44q-44 44 -43 129t45 128t114 43zM608 627h-51l-53 -539h69q90 0 149 72q58 72 70 190t-30 198q-43 79 -154 79zM721 1262q219 0 333 -67t97 -222
q-10 -97 -75 -185t-195 -118q143 -33 205 -124t53 -206q-17 -162 -137 -251t-328 -89h-600l14 74l53 18q35 14 39 55l96 967q6 43 -28 55l-60 19l17 74h516z" />
    <glyph glyph-name="uni1E03" unicode="&#x1e03;" horiz-adv-x="1017" 
d="M648 1829q70 0 113 -43q44 -43 43 -128t-46 -129t-114 -44t-113 44t-43 129q2 85 46 128t114 43zM600 854q-51 0 -102 -63l-74 -744h29q92 0 150 117t79 328q35 362 -82 362zM719 979q153 0 239 -127t62 -366t-184 -378q-162 -139 -369 -139t-367 47l119 1176
q6 53 -29 65l-57 23l14 72q186 49 342 55h50q16 -55 6 -141l-37 -371q102 84 211 84z" />
    <glyph glyph-name="uni1E0A" unicode="&#x1e0a;" horiz-adv-x="1280" 
d="M750 1700q70 0 114 -43t42 -128q-1 -85 -46 -129q-46 -44 -114 -44t-112 44t-43 129t45 128t114 43zM705 1174h-93l-108 -1086h92q127 0 228 159t124 388q24 229 -46 384t-197 155zM741 1262q285 0 435 -158t118 -468t-209 -473q-178 -163 -448 -163h-563l14 74l53 18
q35 14 39 55l96 967q6 43 -28 55l-60 19l17 74h536z" />
    <glyph glyph-name="uni1E0B" unicode="&#x1e0b;" horiz-adv-x="1083" 
d="M588 1790q70 0 114 -43t42 -128q-1 -85 -46 -129q-46 -44 -114 -44t-112 44t-43 129t45 128t114 43zM428 403q0 -243 100 -243q47 0 131 104q14 135 66 633l-45 2q-74 0 -127 -58q-53 -59 -79 -151q-46 -164 -46 -287zM373 -33q-117 0 -200 108t-83 302q0 256 166 429
t416 173q20 0 61 -4l23 227q4 55 -45 62l-109 14l12 72q178 45 416 57h43q8 -88 -2 -203l-104 -1034q-6 -53 32 -47l60 10l20 -72q-172 -68 -307 -92q-50 13 -70 61t-26 132q-152 -195 -303 -195z" />
    <glyph glyph-name="uni1E0C" unicode="&#x1e0c;" horiz-adv-x="1280" 
d="M620 -109q68 0 112 -43t43 -127t-46 -129t-114 -45t-113 44t-42 129q1 85 46 128t114 43zM705 1174h-93l-108 -1086h92q127 0 228 159t124 388q24 229 -46 384t-197 155zM741 1262q285 0 435 -158t118 -468t-209 -473q-178 -163 -448 -163h-563l14 74l53 18q35 14 39 55
l96 967q6 43 -28 55l-60 19l17 74h536z" />
    <glyph glyph-name="uni1E0D" unicode="&#x1e0d;" horiz-adv-x="1083" 
d="M572 -109q68 0 113 -43q44 -43 43 -127t-46 -129t-114 -45q-68 0 -112 44t-43 129t46 128t113 43zM428 403q0 -243 100 -243q47 0 131 104q14 135 66 633l-45 2q-74 0 -127 -58q-53 -59 -79 -151q-46 -164 -46 -287zM373 -33q-117 0 -200 108t-83 302q0 256 166 429
t416 173q20 0 61 -4l23 227q4 55 -45 62l-109 14l12 72q178 45 416 57h43q8 -88 -2 -203l-104 -1034q-6 -53 32 -47l60 10l20 -72q-172 -68 -307 -92q-50 13 -70 61t-26 132q-152 -195 -303 -195z" />
    <glyph glyph-name="uni1E1E" unicode="&#x1e1e;" horiz-adv-x="976" 
d="M643 1700q70 0 114 -43t43 -128t-46 -129t-114 -44t-113 44t-43 129t45 128t114 43zM762 554q0 34 -39 34h-170l-43 -441q-4 -37 31 -53l94 -20l-17 -74h-544l14 74l53 18q35 14 39 55l96 967q6 43 -26 55l-60 19l15 74h852q14 -119 -47 -332h-113l-47 194q-12 49 -80 50
h-160l-49 -498h172q32 0 38 11q7 11 9 13t5 10t5 9q1 2 5 11t6 13l39 84h108l-63 -383h-92l-25 86q-6 18 -6 24z" />
    <glyph glyph-name="uni1E1F" unicode="&#x1e1f;" horiz-adv-x="579" 
d="M524 1864q70 0 114 -43t43 -128t-46 -129t-114 -44t-113 44t-42 129q1 85 45 128q43 43 113 43zM696 1325q-74 0 -100 -67t-45 -244l-6 -66h110l-12 -86h-106l-80 -819q-23 -217 -142 -323t-305 -107q-186 0 -291 61q31 129 95 244h100l25 -217q25 -8 65 -8t59 15
q37 28 56 154q6 46 16 142l82 858h-94l12 86h90l4 27q23 217 142 323t305 106t291 -61q-31 -129 -95 -243h-100l-24 217q-25 8 -52 8z" />
    <glyph glyph-name="uni1E24" unicode="&#x1e24;" horiz-adv-x="1323" 
d="M642 -109q69 0 113 -43t43 -127t-46 -129t-114 -45t-113 44t-43 129t46 128t114 43zM276 1114q6 43 -28 55l-60 19l17 74h508l-15 -74l-51 -21q-37 -14 -41 -53l-41 -414h340l41 414q6 43 -26 55l-60 19l14 74h508l-14 -74l-51 -21q-37 -14 -41 -53l-96 -967
q-4 -37 30 -53l58 -20l-17 -74h-508l17 74l53 18q33 14 37 55l45 465h-340l-45 -465q-4 -37 31 -53l55 -20l-14 -74h-508l14 74l53 18q35 14 39 55z" />
    <glyph glyph-name="uni1E25" unicode="&#x1e25;" horiz-adv-x="1079" 
d="M522 -109q68 0 112 -43t43 -127t-46 -129t-114 -45t-113 44t-43 129t47 128t114 43zM848 979q114 0 146 -92t12 -307l-41 -410q-6 -53 32 -47l62 10l18 -72l-317 -92q-66 0 -96 39t-19 162l37 352q25 244 -31 244q-33 0 -69 -35t-97 -110l-63 -621l-322 -27l125 1227
q4 45 -45 62l-43 14l17 74q195 49 350 57h43q8 -88 -2 -203l-47 -450q195 225 350 225z" />
    <glyph glyph-name="uni1E40" unicode="&#x1e40;" horiz-adv-x="1599" 
d="M950 1567q70 0 114 -43t43 -128t-46 -129t-114 -44t-113 44t-42 129q1 85 45 128q43 43 113 43zM584 0q-166 684 -244 1006l-84 -854q-4 -33 35 -46l119 -32l-15 -74h-329l12 74l57 26q35 16 39 52l100 1013q-20 12 -61 23l16 74h402l223 -920l422 920h387l-16 -74
l-91 -29l-100 -1012q-2 -39 31 -53l57 -20l-16 -74h-508l16 74l54 18q35 14 36 55l76 762l-414 -909h-204z" />
    <glyph glyph-name="uni1E41" unicode="&#x1e41;" horiz-adv-x="1632" 
d="M918 1393q70 0 114 -43t43 -128q-2 -85 -47 -130t-115 -45q-69 0 -113 45t-43 130t46 128t115 43zM877 979q88 0 127 -55t40 -176q201 231 357 231q113 0 145 -92t13 -307l-41 -410q-6 -53 32 -47l60 10l20 -72l-317 -92q-67 0 -97 39t-18 162l37 352q25 244 -31 244
q-32 0 -68 -35t-98 -110l-67 -621h-320l60 522q27 244 -31 244q-22 0 -52 -23t-49 -47t-67 -78l-61 -618l-322 -27l80 799q4 45 -45 62l-43 14l16 74q195 49 350 57h43q8 -88 -2 -203l-2 -24q197 227 351 227z" />
    <glyph glyph-name="uni1E44" unicode="&#x1e44;" horiz-adv-x="1282" 
d="M791 1700q69 0 113 -43t43 -128t-46 -129t-113 -44t-113 44q-44 44 -43 129t45 128t114 43zM838 0l-486 1047l-88 -895q-4 -33 35 -46l119 -32l-15 -74h-329l12 74l57 26q35 16 39 52l101 1003q-41 25 -97 33l15 74h432l457 -949l79 795q2 41 -49 51l-104 29l12 74h332
l-14 -74l-62 -29q-29 -12 -35 -51l-110 -1108h-301z" />
    <glyph glyph-name="uni1E45" unicode="&#x1e45;" horiz-adv-x="1107" 
d="M682 1393q70 0 115 -43t43 -128t-47 -130t-115 -45t-114 45t-43 130t46 128t115 43zM877 979q113 0 145 -92t12 -307l-41 -410q-6 -53 33 -47l61 10l19 -72l-318 -92q-66 0 -96 39t-18 162l37 352q25 244 -31 244q-22 0 -52 -23t-49 -47t-67 -78l-61 -618l-322 -27
l80 799q4 45 -45 62l-43 14l16 74q195 49 350 57h43q8 -88 -2 -203l-2 -24q197 227 351 227z" />
    <glyph glyph-name="uni1E56" unicode="&#x1e56;" horiz-adv-x="1114" 
d="M684 1700q70 0 114 -43t43 -128t-46 -129t-114 -44t-113 44t-43 129t45 128t114 43zM686 1174h-76l-59 -605h67q158 1 188 303t-120 302zM752 1262q214 0 328 -94t95 -290q-19 -198 -157 -297t-363 -100h-112l-33 -334q-6 -47 31 -53l112 -20l-14 -74h-565l14 74l53 18
q35 14 39 55l96 967q6 43 -28 55l-60 19l17 74h547z" />
    <glyph glyph-name="uni1E57" unicode="&#x1e57;" horiz-adv-x="1073" 
d="M623 1393q71 0 115 -43t42 -128t-47 -130t-115 -45t-113 45q-44 45 -43 130t46 128t115 43zM678 831q-70 0 -160 -100l-65 -647q45 -16 75 -16q166 0 205 411q39 352 -55 352zM799 979q139 0 219 -121q80 -120 54 -372t-160 -384t-339 -133q-63 0 -129 23l-24 -250
q-4 -31 20 -33l144 -22l-13 -74h-569l12 74l43 18q41 16 47 57l101 1002q6 49 -29 65l-47 23l12 72q180 47 332 55h51q14 -57 4 -141l-2 -7q62 63 136 105t137 43z" />
    <glyph glyph-name="uni1E5A" unicode="&#x1e5a;" horiz-adv-x="1210" 
d="M626 -109q68 0 112 -43t43 -127t-46 -129t-113 -45t-113 44q-44 44 -43 129t46 128t114 43zM684 1174h-74l-55 -564h66q199 0 229 282t-166 282zM711 1262q254 0 390 -92t118 -277q-25 -229 -271 -322l123 -331q49 -125 148 -166l-17 -74h-233q-113 0 -160 31t-78 145
l-98 346h-86l-37 -375q-6 -47 31 -53l116 -20l-14 -74h-569l14 74l53 18q35 14 39 55l96 967q6 43 -28 55l-60 19l17 74h506z" />
    <glyph glyph-name="uni1E5B" unicode="&#x1e5b;" horiz-adv-x="866" 
d="M261 -109q69 0 113 -43t43 -127t-46 -129t-114 -45t-113 44t-43 129t46 128t114 43zM779 979q99 0 173 -84q-45 -184 -92 -281h-104l-29 217q-16 4 -31 5q-80 0 -176 -95l-71 -741l-322 -27l78 791q4 49 -27 65l-47 23l12 72q180 47 332 55h51q12 -61 4 -135
q150 135 249 135z" />
    <glyph glyph-name="uni1E60" unicode="&#x1e60;" horiz-adv-x="991" 
d="M625 1292q113 0 229 -34t184 -80q-33 -145 -110 -273h-109l-31 283q-54 20 -128 20t-110 -41t-41 -101t28 -124q33 -66 89 -113t120 -102t120 -105q55 -50 88 -123t25 -155q-17 -182 -157 -278t-349 -97q-274 0 -412 99q30 180 93 280h114l39 -274q39 -20 135 -20t138 39
q41 40 48 112q7 71 -41 141t-120 132q-73 62 -145 129t-118 156t-36 185q16 158 144 251t313 93zM641 1700q70 0 114 -43t43 -128t-46 -129t-114 -44t-113 44t-43 129t45 128t114 43z" />
    <glyph glyph-name="uni1E61" unicode="&#x1e61;" horiz-adv-x="886" 
d="M592 1393q70 0 115 -43t43 -128t-48 -130t-114 -45q-70 0 -114 45t-43 130t46 128t115 43zM401 51q133 0 144 80q7 69 -143 176q-62 45 -122 97t-101 126q-40 74 -32 158q14 135 122 213t282 78t348 -102q-23 -133 -88 -240h-104l-19 229q-40 27 -98 27q-116 0 -121 -68
q-7 -83 142 -203q63 -50 125 -104t104 -121q42 -68 34 -137q-14 -141 -142 -216t-310 -75q-242 0 -379 97q35 149 86 239h107l26 -231q49 -23 139 -23z" />
    <glyph glyph-name="uni1E62" unicode="&#x1e62;" horiz-adv-x="991" 
d="M625 1292q113 0 229 -34t184 -80q-33 -145 -110 -273h-109l-31 283q-54 20 -128 20t-110 -41t-41 -101t28 -124q33 -66 89 -113t120 -102t120 -105q55 -50 88 -123t25 -155q-17 -182 -157 -278t-349 -97q-274 0 -412 99q30 180 93 280h114l39 -274q39 -20 135 -20t138 39
q41 40 48 112q7 71 -41 141t-120 132q-73 62 -145 129t-118 156t-36 185q16 158 144 251t313 93zM503 -109q69 0 113 -43t42 -127q-1 -84 -46 -129q-46 -45 -114 -45t-112 44t-43 129t46 128t114 43z" />
    <glyph glyph-name="uni1E63" unicode="&#x1e63;" horiz-adv-x="886" 
d="M401 51q133 0 144 80q7 69 -143 176q-62 45 -122 97t-101 126q-40 74 -32 158q14 135 122 213t282 78t348 -102q-23 -133 -88 -240h-104l-19 229q-40 27 -98 27q-116 0 -121 -68q-7 -83 142 -203q63 -50 125 -104t104 -121q42 -68 34 -137q-14 -141 -142 -216t-310 -75
q-242 0 -379 97q35 149 86 239h107l26 -231q49 -23 139 -23zM421 -109q69 0 113 -43t43 -127t-47 -129t-114 -45t-112 44t-43 129t46 128t114 43z" />
    <glyph glyph-name="uni1E6A" unicode="&#x1e6a;" horiz-adv-x="1058" 
d="M689 1356q-69 0 -113 44t-43 129t45 128t114 43t114 -43t43 -128t-46 -129t-114 -44zM412 1174q-45 0 -73 -44q-10 -14 -17 -27q-8 -13 -11 -18l-102 -165l-74 12q-6 176 60 330h931q29 -147 -6 -330l-86 -12l-61 167q-2 5 -6 17t-6 15q-3 3 -7 13t-6 13q-12 24 -55 29
h-76l-102 -1027q-6 -45 30 -53l111 -20l-14 -74h-604l16 74l94 18q31 8 37 55l102 1027h-75z" />
    <glyph glyph-name="uni1E6B" unicode="&#x1e6b;" horiz-adv-x="608" 
d="M207 858h-78l12 80q248 53 363 303h57l-29 -293h130l-15 -86h-123l-61 -616q-14 -147 61 -148q18 0 94 23l-16 -90q-78 -61 -218 -61t-196 73q-55 74 -43 219zM303 1700q70 0 114 -43t43 -128t-46 -129t-114 -44t-113 44t-43 129t45 128t114 43z" />
    <glyph glyph-name="uni1E6C" unicode="&#x1e6c;" horiz-adv-x="1058" 
d="M536 -109q68 0 112 -43t43 -127t-46 -129t-113 -45t-113 44q-44 44 -43 129t46 128t114 43zM412 1174q-45 0 -73 -44q-10 -14 -17 -27q-8 -13 -11 -18l-102 -165l-74 12q-6 176 60 330h931q29 -147 -6 -330l-86 -12l-61 167q-2 5 -6 17t-6 15q-3 3 -7 13t-6 13
q-12 24 -55 29h-76l-102 -1027q-6 -45 30 -53l111 -20l-14 -74h-604l16 74l94 18q31 8 37 55l102 1027h-75z" />
    <glyph glyph-name="uni1E6D" unicode="&#x1e6d;" horiz-adv-x="608" 
d="M207 858h-78l12 80q248 53 363 303h57l-29 -293h130l-15 -86h-123l-61 -616q-14 -147 61 -148q18 0 94 23l-16 -90q-78 -61 -218 -61t-196 73q-55 74 -43 219zM300 -109q69 0 113 -43t43 -127t-46 -129t-114 -45t-113 44t-43 129t46 128t114 43z" />
    <glyph glyph-name="Wgrave" unicode="&#x1e80;" horiz-adv-x="1773" 
d="M838 1446l86 248q96 -23 212 -118t136 -171l-35 -72zM666 0h-248l-228 1110q-8 47 -36 59l-41 19l12 74h612l-12 -74l-127 -31q-33 -8 -40 -23t-1 -51l154 -751l227 567l-43 211q-8 47 -37 59l-43 19l14 74h613l-15 -74l-127 -31q-30 -8 -38 -23t-2 -51l153 -753l309 770
q12 31 8 42q-5 11 -32 19l-107 27l15 74h313l-14 -74l-56 -25q-18 -8 -37 -53l-444 -1110h-248l-153 758z" />
    <glyph glyph-name="wgrave" unicode="&#x1e81;" horiz-adv-x="1447" 
d="M625 1341l202 175q63 -60 105 -182t37 -228l-74 -47zM612 0l-301 -14l-143 837q-4 20 -39 39l-47 15l14 71q33 8 326 31h39q35 -55 49 -131l102 -713q102 158 164 320l-63 368q-4 20 -39 39l-47 15l14 71q33 8 326 31h39q35 -55 49 -131l102 -715q82 129 151 306
q68 177 68 281t-26 124l-146 20l-6 54q51 41 129 61q137 0 143 -195q0 -180 -94 -401t-219 -383l-301 -14l-55 327q-70 -139 -189 -313z" />
    <glyph glyph-name="Wacute" unicode="&#x1e82;" horiz-adv-x="1773" 
d="M1329 1446l-420 -113l-22 72q37 76 172 170t233 119zM666 0h-248l-228 1110q-8 47 -36 59l-41 19l12 74h612l-12 -74l-127 -31q-33 -8 -40 -23t-1 -51l154 -751l227 567l-43 211q-8 47 -37 59l-43 19l14 74h613l-15 -74l-127 -31q-30 -8 -38 -23t-2 -51l153 -753l309 770
q12 31 8 42q-5 11 -32 19l-107 27l15 74h313l-14 -74l-56 -25q-18 -8 -37 -53l-444 -1110h-248l-153 758z" />
    <glyph glyph-name="wacute" unicode="&#x1e83;" horiz-adv-x="1447" 
d="M1161 1350l-325 -283l-66 47q16 106 82 227t141 183zM612 0l-301 -14l-143 837q-4 20 -39 39l-47 15l14 71q33 8 326 31h39q35 -55 49 -131l102 -713q102 158 164 320l-63 368q-4 20 -39 39l-47 15l14 71q33 8 326 31h39q35 -55 49 -131l102 -715q82 129 151 306
q68 177 68 281t-26 124l-146 20l-6 54q51 41 129 61q137 0 143 -195q0 -180 -94 -401t-219 -383l-301 -14l-55 327q-70 -139 -189 -313z" />
    <glyph glyph-name="Wdieresis" unicode="&#x1e84;" horiz-adv-x="1773" 
d="M857 1675q69 0 113 -43t43 -127t-45 -128t-114 -44t-114 44t-42 128q0 84 45 127t114 43zM1292 1675q70 0 114 -43t42 -127t-47 -128t-114 -44t-113 44t-41 129q2 85 46 127q43 42 113 42zM666 0h-248l-228 1110q-8 47 -36 59l-41 19l12 74h612l-12 -74l-127 -31
q-33 -8 -40 -23t-1 -51l154 -751l227 567l-43 211q-8 47 -37 59l-43 19l14 74h613l-15 -74l-127 -31q-30 -8 -38 -23t-2 -51l153 -753l309 770q12 31 8 42q-5 11 -32 19l-107 27l15 74h313l-14 -74l-56 -25q-18 -8 -37 -53l-444 -1110h-248l-153 758z" />
    <glyph glyph-name="wdieresis" unicode="&#x1e85;" horiz-adv-x="1447" 
d="M1087 1397q71 0 115 -44t43 -130q-2 -86 -47 -131t-116 -45q-72 0 -116 45t-42 132t47 130t116 43zM650 1397q70 0 115 -43q44 -43 43 -130t-46 -132t-116 -45t-117 45t-44 132q3 87 49 130t116 43zM612 0l-301 -14l-143 837q-4 20 -39 39l-47 15l14 71q33 8 326 31h39
q35 -55 49 -131l102 -713q102 158 164 320l-63 368q-4 20 -39 39l-47 15l14 71q33 8 326 31h39q35 -55 49 -131l102 -715q82 129 151 306q68 177 68 281t-26 124l-146 20l-6 54q51 41 129 61q137 0 143 -195q0 -180 -94 -401t-219 -383l-301 -14l-55 327q-70 -139 -189 -313
z" />
    <glyph glyph-name="uni1E92" unicode="&#x1e92;" horiz-adv-x="1103" 
d="M550 -109q69 0 113 -43t43 -127q0 -84 -46 -129t-114 -45t-113 44q-44 44 -43 129t46 128t114 43zM975 381h115q-8 -182 -66 -381h-989l18 94l703 1077l-248 -4q-34 0 -40 -8q-5 -8 -14 -19t-16 -20l-162 -209h-112q6 190 61 351h959l-13 -74l-720 -1100l258 6
q53 2 70 10t44 48z" />
    <glyph glyph-name="uni1E93" unicode="&#x1e93;" horiz-adv-x="864" 
d="M433 -109q69 0 113 -43t43 -127t-46 -129t-114 -45t-113 44t-43 129t46 128t114 43zM786 389h72q16 -81 -16 -231t-82 -199q-338 102 -522 119l-74 -117l-119 94l487 568l-264 20q-37 4 -59 -41l-19 -39l-71 19l76 391l583 -68l66 78l74 -63l-488 -584q145 -12 289 -57
q39 -14 59 45q8 25 8 65z" />
    <glyph glyph-name="uni1EB8" unicode="&#x1eb8;" horiz-adv-x="1005" 
d="M522 -109q68 0 112 -43t43 -127t-46 -129t-114 -45t-113 44t-43 129t47 128t114 43zM733 674q35 0 51 31t17 34l39 84h108l-65 -383h-90l-25 86q-2 6 -4 16l-3 15q-1 4 -3 10t-5 8q-3 3 -9 7t-21 4h-170l-49 -498h137q68 0 94 51l117 195h109q20 -158 -33 -334h-854
l14 74l53 18q35 14 39 55l96 967q6 43 -26 55l-60 19l15 74h837q12 -121 -47 -312h-110l-51 174q-8 29 -26 39t-54 11h-144l-49 -500h172z" />
    <glyph glyph-name="uni1EB9" unicode="&#x1eb9;" horiz-adv-x="978" 
d="M598 893q-59 0 -101 -122t-46 -304q83 31 147 105t64 192q0 55 -18 92t-46 37zM488 -109q68 0 113 -43q44 -43 43 -127t-46 -129t-114 -45q-68 0 -112 44t-43 129t46 128t113 43zM997 737q1 -141 -153 -231t-393 -127q8 -133 61 -208t131 -75t141 38t142 118l57 -59
q-160 -223 -440 -224q-211 0 -331 116t-120 316q0 244 148 411t389 167q162 0 265 -70t103 -172z" />
    <glyph glyph-name="uni1EBC" unicode="&#x1ebc;" horiz-adv-x="1005" 
d="M532 1688q76 0 162 -46q84 -46 131 -45t67 17t36 61h88q-10 -137 -68 -226t-162 -89q-74 0 -148 52t-139 52q-64 0 -93 -65h-84q12 123 73 206t137 83zM733 674q35 0 51 31t17 34l39 84h108l-65 -383h-90l-25 86q-2 6 -4 16l-3 15q-1 4 -3 10t-5 8q-3 3 -9 7t-21 4h-170
l-49 -498h137q68 0 94 51l117 195h109q20 -158 -33 -334h-854l14 74l53 18q35 14 39 55l96 967q6 43 -26 55l-60 19l15 74h837q12 -121 -47 -312h-110l-51 174q-8 29 -26 39t-54 11h-144l-49 -500h172z" />
    <glyph glyph-name="uni1EBD" unicode="&#x1ebd;" horiz-adv-x="978" 
d="M598 893q-59 0 -101 -122t-46 -304q83 31 147 105t64 192q0 55 -18 92t-46 37zM553 1395q59 0 135 -46t116 -46t57 16t32 63h90q-2 -121 -62 -217t-167 -96q-61 0 -126 52q-65 53 -122 53t-90 -74h-80q6 121 70 208t147 87zM997 737q1 -141 -153 -231t-393 -127
q8 -133 61 -208t131 -75t141 38t142 118l57 -59q-160 -223 -440 -224q-211 0 -331 116t-120 316q0 244 148 411t389 167q162 0 265 -70t103 -172z" />
    <glyph glyph-name="uni1ECA" unicode="&#x1eca;" horiz-adv-x="653" 
d="M329 -109q69 0 113 -43t42 -127q-1 -84 -46 -129q-46 -45 -114 -45t-112 44t-43 129t46 128t114 43zM276 1114q6 43 -28 55l-60 19l17 74h508l-15 -74l-51 -21q-37 -14 -41 -53l-96 -967q-4 -37 31 -53l55 -20l-14 -74h-508l14 74l53 18q35 14 39 55z" />
    <glyph glyph-name="uni1ECB" unicode="&#x1ecb;" horiz-adv-x="587" 
d="M298 -109q69 0 113 -43t43 -127t-46 -129t-114 -45t-113 44t-43 129t46 128t114 43zM580 61q-170 -68 -310 -92q-59 15 -94 73t-26 138l63 594q4 45 -45 62l-43 14l12 72q195 49 350 57h43q8 -88 -2 -203l-61 -606q-6 -53 33 -47l59 10zM389 1051q-78 0 -129 51t-49 146
q2 96 52 146t129 50t131 -51t50 -145t-54 -145q-52 -52 -130 -52z" />
    <glyph glyph-name="uni1ECC" unicode="&#x1ecc;" horiz-adv-x="1286" 
d="M649 51q111 0 196 161t111 417t-24 418q-49 161 -164 161t-199 -158q-83 -158 -109 -415q-26 -258 22 -421t167 -163zM644 -31q-263 0 -413 179q-151 178 -121 468t222 484t446 192q254 0 405 -179t120 -477t-213 -482t-446 -185zM646 -109q69 0 113 -43t43 -127
t-46 -129t-114 -45t-113 44t-43 129t46 128t114 43z" />
    <glyph glyph-name="uni1ECD" unicode="&#x1ecd;" horiz-adv-x="1007" 
d="M504 35q131 0 174 442q20 174 0 305t-86 131q-117 0 -160 -439t72 -439zM501 -31q-202 -1 -315 145q-114 146 -92 367t164 359t344 139q203 0 319 -137q116 -138 93 -362t-167 -368t-346 -143zM507 -109q69 0 113 -43t43 -127t-47 -129t-114 -45t-112 44t-43 129t46 128
t114 43z" />
    <glyph glyph-name="uni1EE4" unicode="&#x1ee4;" horiz-adv-x="1177" 
d="M653 -31q-274 1 -385 105t-84 377l68 663q2 43 -29 55l-59 19l16 74h549l-14 -74l-94 -21q-37 -6 -39 -53l-82 -817q-25 -233 215 -234q210 0 276 262q18 71 27 162l63 627q2 43 -28 55l-88 19l14 74h289l-15 -74l-51 -21q-37 -14 -41 -53l-59 -606q-27 -268 -131 -404
t-318 -135zM595 -109q69 0 113 -43t43 -127t-46 -129t-114 -45t-113 44t-43 129t46 128t114 43z" />
    <glyph glyph-name="uni1EE5" unicode="&#x1ee5;" horiz-adv-x="1103" 
d="M560 -109q69 0 113 -43t43 -127t-46 -129t-114 -45t-113 44t-43 129t46 128t114 43zM322 -31q-113 0 -146 92t-12 308l39 395q4 49 -27 65l-47 23l12 72q180 47 332 55h51q14 -57 4 -143l-41 -410q-25 -244 31 -244q33 0 69 35t99 113q18 206 62 618h317l-78 -778
q-6 -53 33 -47l59 10l21 -72q-170 -68 -309 -92q-59 15 -95 73t-26 138q0 6 2 15q-194 -226 -350 -226z" />
    <glyph glyph-name="Ygrave" unicode="&#x1ef2;" 
d="M537 1446l86 248q96 -23 212 -118t136 -171l-35 -72zM616 1169q-32 -8 -38 -18t4 -43l192 -471l291 477q31 49 -18 55l-132 19l15 74h346l-14 -74l-27 -12q-51 -18 -78 -64l-371 -606l-34 -359q-4 -39 28 -53l56 -20l-15 -74h-506l17 74l51 18q35 14 37 55l35 340
l-258 611q-21 63 -52 76l-32 14l12 74h592l-12 -74z" />
    <glyph glyph-name="ygrave" unicode="&#x1ef3;" horiz-adv-x="966" 
d="M408 1372l202 174q62 -61 104 -182t38 -227l-74 -47zM418 979h39q35 -57 49 -131l133 -680q125 154 199 318t74 250q0 87 -27 108l-146 20l-6 54q51 41 129 61q137 0 144 -195q0 -133 -100 -343q-100 -211 -303 -447q-202 -236 -443 -385l-76 145q209 111 324 195l-58 39
l-182 839q-4 31 -39 39l-49 11l16 71q139 31 322 31z" />
    <glyph glyph-name="uni1EF8" unicode="&#x1ef8;" 
d="M981 1593q47 1 67 17t35 61h88q-10 -137 -67 -226t-162 -89q-74 0 -148 52t-140 52q-64 0 -93 -65h-84q11 123 73 206t138 83t161 -46q85 -45 132 -45zM616 1169q-32 -8 -38 -18t4 -43l192 -471l291 477q31 49 -18 55l-132 19l15 74h346l-14 -74l-27 -12q-51 -18 -78 -64
l-371 -606l-34 -359q-4 -39 28 -53l56 -20l-15 -74h-506l17 74l51 18q35 14 37 55l35 340l-258 611q-21 63 -52 76l-32 14l12 74h592l-12 -74z" />
    </font>
</defs>
</svg>
